<svg id="svg" version="1.1" xmlns="http://www.w3.org/2000/svg" xmlns:xlink="http://www.w3.org/1999/xlink" width="400" height="400.5540166204986" viewBox="0, 0, 400,400.5540166204986"><g id="svgg"><path id="path0" d="M189.400 0.233 C 181.768 0.609,172.956 1.325,172.600 1.598 C 172.380 1.766,170.773 2.034,169.029 2.193 C 167.285 2.352,165.575 2.630,165.229 2.812 C 164.883 2.994,162.983 3.348,161.006 3.599 C 159.030 3.851,157.320 4.202,157.206 4.380 C 157.093 4.558,155.875 4.833,154.500 4.991 C 153.125 5.149,152.000 5.419,152.000 5.590 C 152.000 5.762,150.560 6.126,148.800 6.400 C 147.040 6.674,145.600 7.023,145.600 7.176 C 145.600 7.328,144.428 7.686,142.996 7.971 C 141.564 8.255,140.306 8.628,140.201 8.799 C 140.095 8.970,139.332 9.236,138.504 9.390 C 137.677 9.545,136.820 9.815,136.600 9.991 C 136.380 10.167,135.165 10.540,133.900 10.819 C 132.635 11.099,131.600 11.471,131.600 11.646 C 131.600 11.821,130.970 12.082,130.200 12.226 C 129.430 12.371,128.800 12.620,128.800 12.781 C 128.800 12.941,127.810 13.310,126.600 13.600 C 125.390 13.890,124.400 14.265,124.400 14.432 C 124.400 14.599,123.815 14.863,123.100 15.018 C 121.910 15.276,118.882 16.695,118.401 17.219 C 118.291 17.340,117.390 17.675,116.400 17.964 C 115.410 18.252,114.510 18.605,114.400 18.748 C 114.092 19.149,109.848 21.200,109.328 21.200 C 109.074 21.200,108.807 21.335,108.733 21.500 C 108.660 21.665,107.430 22.391,106.000 23.113 C 102.527 24.867,99.047 26.827,98.800 27.169 C 98.690 27.321,97.970 27.695,97.200 27.999 C 96.430 28.304,95.656 28.789,95.480 29.077 C 95.304 29.364,94.982 29.600,94.764 29.600 C 94.386 29.600,92.019 31.130,91.600 31.646 C 91.490 31.781,91.016 32.012,90.548 32.158 C 89.795 32.393,89.203 32.802,87.317 34.393 C 87.051 34.617,86.656 34.800,86.440 34.800 C 86.223 34.800,85.810 35.134,85.523 35.543 C 85.235 35.951,84.636 36.400,84.191 36.541 C 83.747 36.681,82.791 37.337,82.067 37.998 C 81.343 38.659,80.627 39.200,80.475 39.200 C 80.198 39.201,78.337 40.656,77.166 41.787 C 76.818 42.124,76.332 42.400,76.086 42.400 C 75.841 42.400,75.496 42.626,75.320 42.902 C 75.144 43.179,74.353 43.886,73.562 44.475 C 72.772 45.064,71.480 46.143,70.691 46.873 C 69.903 47.603,68.316 49.010,67.164 50.000 C 62.963 53.612,47.200 69.688,47.200 70.360 C 47.200 70.577,46.885 70.990,46.500 71.277 C 46.115 71.565,45.270 72.520,44.622 73.400 C 43.974 74.280,43.209 75.144,42.922 75.320 C 42.635 75.496,42.400 75.892,42.400 76.200 C 42.400 76.508,42.170 76.904,41.890 77.080 C 40.963 77.661,34.800 86.033,34.800 86.711 C 34.800 86.933,34.530 87.218,34.200 87.345 C 33.870 87.471,33.600 87.851,33.600 88.187 C 33.600 88.524,33.442 88.800,33.249 88.800 C 33.055 88.800,32.673 89.340,32.400 90.000 C 32.127 90.660,31.745 91.200,31.551 91.200 C 31.358 91.200,31.200 91.384,31.200 91.609 C 31.200 91.999,29.263 95.183,28.772 95.600 C 28.642 95.710,28.281 96.385,27.970 97.100 C 27.659 97.815,27.269 98.400,27.102 98.400 C 26.936 98.400,26.800 98.642,26.800 98.939 C 26.800 99.235,26.435 99.898,25.989 100.413 C 25.543 100.927,25.074 101.764,24.946 102.274 C 24.818 102.783,24.567 103.200,24.388 103.200 C 24.210 103.200,23.948 103.725,23.807 104.367 C 23.666 105.008,23.309 105.626,23.013 105.740 C 22.717 105.853,22.354 106.498,22.206 107.173 C 22.058 107.848,21.800 108.400,21.632 108.400 C 21.465 108.400,21.090 109.120,20.800 110.000 C 20.510 110.880,20.135 111.600,19.968 111.600 C 19.800 111.600,19.545 112.140,19.400 112.800 C 19.255 113.460,19.010 114.000,18.856 114.000 C 18.701 114.000,18.335 114.810,18.043 115.800 C 17.751 116.790,17.352 117.600,17.156 117.600 C 16.960 117.600,16.800 117.790,16.800 118.022 C 16.800 118.254,16.435 119.244,15.990 120.222 C 15.544 121.200,15.072 122.540,14.940 123.200 C 14.808 123.860,14.560 124.400,14.390 124.400 C 14.219 124.400,13.864 125.300,13.600 126.400 C 13.336 127.500,12.958 128.400,12.760 128.400 C 12.562 128.400,12.400 128.720,12.400 129.111 C 12.400 129.502,12.152 130.177,11.850 130.611 C 11.547 131.045,11.068 132.435,10.786 133.700 C 10.504 134.965,10.137 136.000,9.972 136.000 C 9.806 136.000,9.549 136.719,9.400 137.598 C 9.252 138.477,8.987 139.285,8.811 139.393 C 8.636 139.501,8.271 140.762,8.001 142.195 C 7.731 143.628,7.386 144.800,7.234 144.800 C 7.083 144.800,6.719 146.150,6.426 147.800 C 6.133 149.450,5.755 150.800,5.586 150.800 C 5.417 150.800,5.149 151.925,4.991 153.300 C 4.833 154.675,4.545 155.901,4.351 156.024 C 4.158 156.147,3.780 158.082,3.512 160.324 C 3.244 162.566,2.899 164.400,2.746 164.400 C 2.593 164.400,2.341 165.795,2.186 167.500 C 2.031 169.205,1.765 170.780,1.595 171.000 C -0.271 173.418,-0.271 226.982,1.595 229.400 C 1.765 229.620,2.031 231.195,2.186 232.900 C 2.341 234.605,2.593 236.000,2.746 236.000 C 2.899 236.000,3.244 237.834,3.512 240.076 C 3.780 242.318,4.158 244.253,4.351 244.376 C 4.545 244.499,4.833 245.725,4.991 247.100 C 5.149 248.475,5.417 249.600,5.586 249.600 C 5.755 249.600,6.133 250.950,6.426 252.600 C 6.719 254.250,7.083 255.600,7.234 255.600 C 7.386 255.600,7.731 256.772,8.001 258.205 C 8.271 259.638,8.636 260.899,8.811 261.007 C 8.987 261.115,9.252 261.923,9.400 262.802 C 9.549 263.681,9.806 264.400,9.972 264.400 C 10.137 264.400,10.504 265.435,10.786 266.700 C 11.068 267.965,11.547 269.355,11.850 269.789 C 12.152 270.223,12.400 270.898,12.400 271.289 C 12.400 271.680,12.562 272.000,12.760 272.000 C 12.958 272.000,13.336 272.900,13.600 274.000 C 13.864 275.100,14.219 276.000,14.390 276.000 C 14.560 276.000,14.808 276.540,14.940 277.200 C 15.072 277.860,15.544 279.200,15.990 280.178 C 16.435 281.156,16.800 282.146,16.800 282.378 C 16.800 282.610,16.960 282.800,17.156 282.800 C 17.352 282.800,17.751 283.610,18.043 284.600 C 18.335 285.590,18.701 286.400,18.856 286.400 C 19.010 286.400,19.255 286.940,19.400 287.600 C 19.545 288.260,19.800 288.800,19.968 288.800 C 20.135 288.800,20.510 289.520,20.800 290.400 C 21.090 291.280,21.465 292.000,21.632 292.000 C 21.800 292.000,22.058 292.552,22.206 293.227 C 22.354 293.902,22.717 294.547,23.013 294.660 C 23.309 294.774,23.666 295.392,23.807 296.033 C 23.948 296.675,24.210 297.200,24.388 297.200 C 24.567 297.200,24.818 297.617,24.946 298.126 C 25.074 298.636,25.543 299.473,25.989 299.987 C 26.435 300.502,26.800 301.165,26.800 301.461 C 26.800 301.758,26.936 302.000,27.102 302.000 C 27.269 302.000,27.659 302.585,27.970 303.300 C 28.281 304.015,28.642 304.690,28.772 304.800 C 29.263 305.217,31.200 308.401,31.200 308.791 C 31.200 309.016,31.358 309.200,31.551 309.200 C 31.745 309.200,32.127 309.740,32.400 310.400 C 32.673 311.060,33.055 311.600,33.249 311.600 C 33.442 311.600,33.600 311.876,33.600 312.213 C 33.600 312.549,33.870 312.929,34.200 313.055 C 34.530 313.182,34.800 313.467,34.800 313.689 C 34.800 314.367,40.963 322.739,41.890 323.320 C 42.170 323.496,42.400 323.892,42.400 324.200 C 42.400 324.508,42.635 324.904,42.922 325.080 C 43.209 325.256,43.974 326.120,44.622 327.000 C 45.270 327.880,46.115 328.835,46.500 329.123 C 46.885 329.410,47.200 329.823,47.200 330.040 C 47.200 330.712,62.963 346.788,67.164 350.400 C 68.316 351.390,69.903 352.797,70.691 353.527 C 71.480 354.257,72.772 355.336,73.562 355.925 C 74.353 356.514,75.144 357.221,75.320 357.498 C 75.496 357.774,75.841 358.000,76.086 358.000 C 76.332 358.000,76.818 358.276,77.166 358.613 C 78.337 359.744,80.198 361.199,80.475 361.200 C 80.627 361.200,81.343 361.741,82.067 362.402 C 82.791 363.063,83.747 363.719,84.191 363.859 C 84.636 364.000,85.235 364.449,85.523 364.857 C 85.810 365.266,86.223 365.600,86.440 365.600 C 86.656 365.600,87.051 365.783,87.317 366.007 C 89.203 367.598,89.795 368.007,90.548 368.242 C 91.016 368.388,91.490 368.619,91.600 368.754 C 92.019 369.270,94.386 370.800,94.764 370.800 C 94.982 370.800,95.304 371.036,95.480 371.323 C 95.656 371.611,96.430 372.096,97.200 372.401 C 97.970 372.705,98.690 373.079,98.800 373.231 C 99.047 373.573,102.527 375.533,106.000 377.287 C 107.430 378.009,108.660 378.735,108.733 378.900 C 108.807 379.065,109.074 379.200,109.328 379.200 C 109.848 379.200,114.092 381.251,114.400 381.652 C 114.510 381.795,115.410 382.148,116.400 382.436 C 117.390 382.725,118.291 383.060,118.401 383.181 C 118.882 383.705,121.910 385.124,123.100 385.382 C 123.815 385.537,124.400 385.801,124.400 385.968 C 124.400 386.135,125.390 386.510,126.600 386.800 C 127.810 387.090,128.800 387.459,128.800 387.619 C 128.800 387.780,129.430 388.029,130.200 388.174 C 130.970 388.318,131.600 388.579,131.600 388.754 C 131.600 388.929,132.635 389.301,133.900 389.581 C 135.165 389.860,136.380 390.233,136.600 390.409 C 136.820 390.585,137.677 390.855,138.504 391.010 C 139.332 391.164,140.095 391.430,140.201 391.601 C 140.306 391.772,141.564 392.145,142.996 392.429 C 144.428 392.714,145.600 393.072,145.600 393.224 C 145.600 393.377,147.040 393.726,148.800 394.000 C 150.560 394.274,152.000 394.638,152.000 394.810 C 152.000 394.981,153.125 395.251,154.500 395.409 C 155.875 395.567,157.093 395.842,157.206 396.020 C 157.320 396.198,159.030 396.549,161.006 396.801 C 162.983 397.052,164.883 397.406,165.229 397.588 C 165.575 397.770,167.285 398.048,169.029 398.207 C 170.773 398.366,172.380 398.633,172.600 398.800 C 174.884 400.536,225.116 400.536,227.400 398.800 C 227.620 398.633,229.227 398.366,230.971 398.207 C 232.715 398.048,234.425 397.770,234.771 397.588 C 235.117 397.406,237.017 397.052,238.994 396.801 C 240.970 396.549,242.680 396.198,242.794 396.020 C 242.907 395.842,244.125 395.567,245.500 395.409 C 246.875 395.251,248.000 394.981,248.000 394.810 C 248.000 394.638,249.440 394.274,251.200 394.000 C 252.960 393.726,254.400 393.377,254.400 393.224 C 254.400 393.072,255.572 392.714,257.004 392.429 C 258.436 392.145,259.694 391.772,259.799 391.601 C 259.905 391.430,260.668 391.164,261.496 391.010 C 262.323 390.855,263.180 390.585,263.400 390.409 C 263.620 390.233,264.835 389.860,266.100 389.581 C 267.365 389.301,268.400 388.929,268.400 388.754 C 268.400 388.579,269.030 388.318,269.800 388.174 C 270.570 388.029,271.200 387.780,271.200 387.619 C 271.200 387.459,272.190 387.090,273.400 386.800 C 274.610 386.510,275.600 386.135,275.600 385.968 C 275.600 385.801,276.185 385.537,276.900 385.382 C 278.090 385.124,281.118 383.705,281.599 383.181 C 281.709 383.060,282.610 382.725,283.600 382.436 C 284.590 382.148,285.490 381.795,285.600 381.652 C 285.908 381.251,290.152 379.200,290.672 379.200 C 290.926 379.200,291.193 379.065,291.267 378.900 C 291.340 378.735,292.570 378.009,294.000 377.287 C 297.473 375.533,300.953 373.573,301.200 373.231 C 301.310 373.079,302.030 372.705,302.800 372.401 C 303.570 372.096,304.344 371.611,304.520 371.323 C 304.696 371.036,305.018 370.800,305.236 370.800 C 305.614 370.800,307.981 369.270,308.400 368.754 C 308.510 368.619,308.984 368.388,309.452 368.242 C 310.205 368.007,310.797 367.598,312.683 366.007 C 312.949 365.783,313.344 365.600,313.560 365.600 C 313.777 365.600,314.190 365.266,314.477 364.857 C 314.765 364.449,315.364 364.000,315.809 363.859 C 316.253 363.719,317.209 363.063,317.933 362.402 C 318.657 361.741,319.373 361.200,319.525 361.200 C 319.802 361.199,321.663 359.744,322.834 358.613 C 323.182 358.276,323.668 358.000,323.914 358.000 C 324.159 358.000,324.504 357.774,324.680 357.498 C 324.856 357.221,325.647 356.514,326.438 355.925 C 327.228 355.336,328.520 354.257,329.309 353.527 C 330.097 352.797,331.684 351.390,332.836 350.400 C 337.037 346.788,352.800 330.712,352.800 330.040 C 352.800 329.823,353.115 329.410,353.500 329.123 C 353.885 328.835,354.730 327.880,355.378 327.000 C 356.026 326.120,356.791 325.256,357.078 325.080 C 357.365 324.904,357.600 324.508,357.600 324.200 C 357.600 323.892,357.830 323.496,358.110 323.320 C 359.037 322.739,365.200 314.367,365.200 313.689 C 365.200 313.467,365.470 313.182,365.800 313.055 C 366.130 312.929,366.400 312.549,366.400 312.213 C 366.400 311.876,366.558 311.600,366.751 311.600 C 366.945 311.600,367.327 311.060,367.600 310.400 C 367.873 309.740,368.255 309.200,368.449 309.200 C 368.642 309.200,368.800 309.016,368.800 308.791 C 368.800 308.401,370.737 305.217,371.228 304.800 C 371.358 304.690,371.719 304.015,372.030 303.300 C 372.341 302.585,372.731 302.000,372.898 302.000 C 373.064 302.000,373.200 301.758,373.200 301.461 C 373.200 301.165,373.565 300.502,374.011 299.987 C 374.457 299.473,374.926 298.636,375.054 298.126 C 375.182 297.617,375.433 297.200,375.612 297.200 C 375.790 297.200,376.052 296.675,376.193 296.033 C 376.334 295.392,376.691 294.774,376.987 294.660 C 377.283 294.547,377.646 293.902,377.794 293.227 C 377.942 292.552,378.200 292.000,378.368 292.000 C 378.535 292.000,378.910 291.280,379.200 290.400 C 379.490 289.520,379.865 288.800,380.032 288.800 C 380.200 288.800,380.455 288.260,380.600 287.600 C 380.745 286.940,380.990 286.400,381.144 286.400 C 381.299 286.400,381.665 285.590,381.957 284.600 C 382.249 283.610,382.648 282.800,382.844 282.800 C 383.040 282.800,383.200 282.610,383.200 282.378 C 383.200 282.146,383.565 281.156,384.010 280.178 C 384.456 279.200,384.928 277.860,385.060 277.200 C 385.192 276.540,385.440 276.000,385.610 276.000 C 385.781 276.000,386.136 275.100,386.400 274.000 C 386.664 272.900,387.042 272.000,387.240 272.000 C 387.438 272.000,387.600 271.680,387.600 271.289 C 387.600 270.898,387.848 270.223,388.150 269.789 C 388.453 269.355,388.932 267.965,389.214 266.700 C 389.496 265.435,389.863 264.400,390.028 264.400 C 390.194 264.400,390.451 263.681,390.600 262.802 C 390.748 261.923,391.013 261.115,391.189 261.007 C 391.364 260.899,391.729 259.638,391.999 258.205 C 392.269 256.772,392.614 255.600,392.766 255.600 C 392.917 255.600,393.281 254.250,393.574 252.600 C 393.867 250.950,394.245 249.600,394.414 249.600 C 394.583 249.600,394.851 248.475,395.009 247.100 C 395.167 245.725,395.455 244.499,395.649 244.376 C 395.842 244.253,396.220 242.318,396.488 240.076 C 396.756 237.834,397.101 236.000,397.254 236.000 C 397.407 236.000,397.659 234.605,397.814 232.900 C 397.969 231.195,398.235 229.620,398.405 229.400 C 398.575 229.180,398.958 226.390,399.257 223.200 C 400.384 211.162,399.757 172.752,398.405 171.000 C 398.235 170.780,397.969 169.205,397.814 167.500 C 397.659 165.795,397.407 164.400,397.254 164.400 C 397.101 164.400,396.756 162.566,396.488 160.324 C 396.220 158.082,395.842 156.147,395.649 156.024 C 395.455 155.901,395.167 154.675,395.009 153.300 C 394.851 151.925,394.583 150.800,394.414 150.800 C 394.245 150.800,393.867 149.450,393.574 147.800 C 393.281 146.150,392.917 144.800,392.766 144.800 C 392.614 144.800,392.269 143.628,391.999 142.195 C 391.729 140.762,391.364 139.501,391.189 139.393 C 391.013 139.285,390.748 138.477,390.600 137.598 C 390.451 136.719,390.194 136.000,390.028 136.000 C 389.863 136.000,389.496 134.965,389.214 133.700 C 388.932 132.435,388.453 131.045,388.150 130.611 C 387.848 130.177,387.600 129.502,387.600 129.111 C 387.600 128.720,387.438 128.400,387.240 128.400 C 387.042 128.400,386.664 127.500,386.400 126.400 C 386.136 125.300,385.781 124.400,385.610 124.400 C 385.440 124.400,385.192 123.860,385.060 123.200 C 384.928 122.540,384.456 121.200,384.010 120.222 C 383.565 119.244,383.200 118.254,383.200 118.022 C 383.200 117.790,383.040 117.600,382.844 117.600 C 382.648 117.600,382.249 116.790,381.957 115.800 C 381.665 114.810,381.299 114.000,381.144 114.000 C 380.990 114.000,380.745 113.460,380.600 112.800 C 380.455 112.140,380.200 111.600,380.032 111.600 C 379.865 111.600,379.490 110.880,379.200 110.000 C 378.910 109.120,378.535 108.400,378.368 108.400 C 378.200 108.400,377.942 107.848,377.794 107.173 C 377.646 106.498,377.283 105.853,376.987 105.740 C 376.691 105.626,376.334 105.008,376.193 104.367 C 376.052 103.725,375.790 103.200,375.612 103.200 C 375.433 103.200,375.182 102.783,375.054 102.274 C 374.926 101.764,374.457 100.927,374.011 100.413 C 373.565 99.898,373.200 99.235,373.200 98.939 C 373.200 98.642,373.064 98.400,372.898 98.400 C 372.731 98.400,372.341 97.815,372.030 97.100 C 371.719 96.385,371.358 95.710,371.228 95.600 C 370.737 95.183,368.800 91.999,368.800 91.609 C 368.800 91.384,368.642 91.200,368.449 91.200 C 368.255 91.200,367.873 90.660,367.600 90.000 C 367.327 89.340,366.945 88.800,366.751 88.800 C 366.558 88.800,366.400 88.524,366.400 88.187 C 366.400 87.851,366.130 87.471,365.800 87.345 C 365.470 87.218,365.200 86.933,365.200 86.711 C 365.200 86.033,359.037 77.661,358.110 77.080 C 357.830 76.904,357.600 76.508,357.600 76.200 C 357.600 75.892,357.365 75.496,357.078 75.320 C 356.791 75.144,356.026 74.280,355.378 73.400 C 354.730 72.520,353.885 71.565,353.500 71.277 C 353.115 70.990,352.800 70.577,352.800 70.360 C 352.800 69.688,337.037 53.612,332.836 50.000 C 331.684 49.010,330.097 47.603,329.309 46.873 C 328.520 46.143,327.228 45.064,326.438 44.475 C 325.647 43.886,324.856 43.179,324.680 42.902 C 324.504 42.626,324.159 42.400,323.914 42.400 C 323.668 42.400,323.182 42.124,322.834 41.787 C 321.663 40.656,319.802 39.201,319.525 39.200 C 319.373 39.200,318.657 38.659,317.933 37.998 C 317.209 37.337,316.253 36.681,315.809 36.541 C 315.364 36.400,314.765 35.951,314.477 35.543 C 314.190 35.134,313.777 34.800,313.560 34.800 C 313.344 34.800,312.949 34.617,312.683 34.393 C 310.797 32.802,310.205 32.393,309.452 32.158 C 308.984 32.012,308.510 31.781,308.400 31.646 C 307.981 31.130,305.614 29.600,305.236 29.600 C 305.018 29.600,304.696 29.364,304.520 29.077 C 304.344 28.789,303.570 28.304,302.800 27.999 C 302.030 27.695,301.310 27.321,301.200 27.169 C 300.953 26.827,297.473 24.867,294.000 23.113 C 292.570 22.391,291.340 21.665,291.267 21.500 C 291.193 21.335,290.926 21.200,290.672 21.200 C 290.152 21.200,285.908 19.149,285.600 18.748 C 285.490 18.605,284.590 18.252,283.600 17.964 C 282.610 17.675,281.709 17.340,281.599 17.219 C 281.118 16.695,278.090 15.276,276.900 15.018 C 276.185 14.863,275.600 14.599,275.600 14.432 C 275.600 14.265,274.610 13.890,273.400 13.600 C 272.190 13.310,271.200 12.941,271.200 12.781 C 271.200 12.620,270.570 12.371,269.800 12.226 C 269.030 12.082,268.400 11.821,268.400 11.646 C 268.400 11.471,267.365 11.099,266.100 10.819 C 264.835 10.540,263.620 10.167,263.400 9.991 C 263.180 9.815,262.323 9.545,261.496 9.390 C 260.668 9.236,259.905 8.970,259.799 8.799 C 259.694 8.628,258.436 8.255,257.004 7.971 C 255.572 7.686,254.400 7.328,254.400 7.176 C 254.400 7.023,252.960 6.674,251.200 6.400 C 249.440 6.126,248.000 5.762,248.000 5.590 C 248.000 5.419,246.875 5.149,245.500 4.991 C 244.125 4.833,242.907 4.558,242.794 4.380 C 242.680 4.202,240.970 3.851,238.994 3.599 C 237.017 3.348,235.123 2.997,234.784 2.820 C 234.445 2.643,232.825 2.376,231.184 2.227 C 229.543 2.078,227.840 1.797,227.400 1.604 C 225.424 0.734,198.744 -0.228,189.400 0.233 M172.021 96.493 C 172.696 97.424,173.790 99.134,174.453 100.293 C 176.107 103.184,176.400 102.964,176.400 98.824 C 176.400 95.128,176.637 94.567,178.014 95.004 C 178.782 95.248,178.816 95.545,178.711 101.130 L 178.600 107.000 177.400 107.114 C 176.277 107.221,176.033 106.964,173.600 103.115 L 171.000 99.002 170.800 103.001 C 170.603 106.947,170.587 107.000,169.600 107.000 L 168.600 107.000 168.489 101.231 C 168.373 95.234,168.476 94.820,170.097 94.806 C 170.481 94.803,171.347 95.562,172.021 96.493 M220.400 95.987 C 220.400 96.520,220.641 96.643,221.400 96.498 C 222.534 96.281,222.868 97.445,221.791 97.859 C 221.335 98.034,221.245 98.435,221.435 99.446 C 221.659 100.637,221.588 100.800,220.845 100.800 C 220.380 100.800,220.000 100.620,220.000 100.400 C 220.000 99.775,218.912 99.931,218.658 100.593 C 218.198 101.791,217.164 100.799,217.425 99.409 C 217.607 98.437,217.509 98.051,217.034 97.868 C 215.812 97.399,216.275 96.275,217.582 96.536 C 218.545 96.729,218.720 96.656,218.524 96.146 C 218.248 95.427,219.068 94.775,219.864 95.080 C 220.159 95.193,220.400 95.601,220.400 95.987 M187.008 99.356 C 187.478 100.074,187.605 101.141,187.517 103.656 L 187.400 107.000 184.600 107.080 C 179.449 107.228,178.183 102.858,183.066 101.783 C 185.279 101.296,185.341 101.251,184.769 100.563 C 184.268 99.959,183.384 99.968,181.903 100.590 C 181.012 100.965,180.513 99.828,181.204 98.995 C 182.087 97.931,186.244 98.190,187.008 99.356 M195.673 98.914 C 195.909 99.294,196.152 99.291,196.782 98.900 C 198.234 98.001,200.620 98.266,201.370 99.410 C 202.545 101.203,202.109 107.000,200.800 107.000 C 199.836 107.000,199.793 106.888,199.600 103.884 C 199.261 98.605,196.934 98.817,196.717 104.147 C 196.603 106.929,196.573 107.003,195.500 107.127 L 194.400 107.253 194.400 104.041 C 194.400 98.571,191.950 98.435,191.600 103.884 C 191.407 106.888,191.364 107.000,190.400 107.000 C 189.403 107.000,189.400 106.986,189.287 102.751 L 189.174 98.501 192.272 98.465 C 194.304 98.441,195.475 98.596,195.673 98.914 M210.371 99.454 C 210.837 100.046,211.200 101.098,211.200 101.854 L 211.200 103.200 208.400 103.200 C 205.556 103.200,205.122 103.465,206.202 104.545 C 207.100 105.442,208.267 105.699,209.193 105.204 C 210.118 104.709,210.800 104.966,210.800 105.810 C 210.800 107.429,206.464 107.728,204.600 106.236 C 202.849 104.835,202.804 100.844,204.522 99.365 C 206.176 97.943,209.219 97.989,210.371 99.454 M206.292 100.437 C 205.271 101.031,205.826 101.600,207.424 101.600 C 208.867 101.600,209.122 101.282,208.320 100.480 C 207.741 99.901,207.231 99.890,206.292 100.437 M183.300 103.465 C 182.513 103.782,182.693 105.200,183.520 105.200 C 184.362 105.200,185.200 104.462,185.200 103.720 C 185.200 103.204,184.260 103.078,183.300 103.465 M306.400 118.800 C 307.685 120.085,307.646 154.272,306.358 155.438 C 305.535 156.183,303.232 156.200,201.923 156.200 L 98.329 156.200 97.565 155.256 C 96.838 154.359,96.800 153.451,96.800 137.138 L 96.800 119.964 97.782 118.982 L 98.764 118.000 202.182 118.000 C 305.067 118.000,305.604 118.004,306.400 118.800 M98.480 119.680 C 97.790 120.370,97.790 154.030,98.480 154.720 C 99.119 155.359,304.433 155.425,305.626 154.786 C 306.581 154.275,306.863 120.623,305.920 119.680 C 305.221 118.981,99.179 118.981,98.480 119.680 M181.493 186.900 C 181.708 187.175,181.986 187.760,182.109 188.200 C 182.233 188.640,182.996 190.800,183.805 193.000 C 185.937 198.799,185.891 198.400,184.426 198.400 C 183.356 198.400,183.068 198.182,182.574 197.000 C 182.017 195.666,181.895 195.600,180.000 195.600 C 178.105 195.600,177.983 195.666,177.426 197.000 C 176.904 198.249,174.400 199.216,174.400 198.168 C 174.400 197.899,178.402 187.145,178.668 186.700 C 178.961 186.210,181.070 186.359,181.493 186.900 M213.081 187.188 C 213.214 187.698,213.582 187.944,214.127 187.888 C 215.262 187.769,215.513 189.047,214.423 189.393 C 213.739 189.610,213.673 189.790,214.031 190.458 C 214.268 190.901,214.363 191.518,214.243 191.831 C 213.947 192.604,212.943 192.551,212.634 191.746 C 212.402 191.140,212.330 191.140,211.660 191.746 C 210.351 192.931,209.251 192.168,210.157 190.704 C 210.502 190.145,210.407 189.880,209.675 189.367 C 208.589 188.607,209.190 187.416,210.456 187.818 C 211.018 187.996,211.200 187.851,211.200 187.227 C 211.200 186.122,212.794 186.089,213.081 187.188 M194.330 195.096 C 194.201 200.421,194.189 200.480,193.078 201.436 C 191.195 203.053,186.400 202.699,186.400 200.943 C 186.400 200.597,187.079 200.470,188.631 200.523 C 190.434 200.585,190.971 200.451,191.431 199.824 C 192.456 198.425,192.148 198.103,189.979 198.312 C 187.095 198.589,186.200 197.585,186.200 194.075 C 186.200 190.456,187.165 189.645,191.419 189.689 L 194.460 189.720 194.330 195.096 M202.831 190.769 C 203.616 191.555,204.000 192.342,204.000 193.169 L 204.000 194.400 201.200 194.400 C 198.683 194.400,198.400 194.480,198.400 195.186 C 198.400 196.317,199.776 196.908,201.663 196.589 C 203.179 196.333,203.259 196.370,203.133 197.259 C 202.766 199.856,196.765 198.441,195.993 195.575 C 194.769 191.028,199.655 187.593,202.831 190.769 M179.479 190.900 C 179.361 191.395,179.139 192.205,178.986 192.700 C 178.738 193.500,178.845 193.600,179.953 193.600 C 181.378 193.600,181.426 193.438,180.595 191.449 C 179.886 189.754,179.766 189.695,179.479 190.900 M199.060 191.786 C 197.752 192.777,199.183 193.642,200.985 192.951 C 201.580 192.722,201.577 192.638,200.955 191.951 C 200.153 191.064,200.028 191.053,199.060 191.786 M189.062 192.331 C 187.610 193.936,188.838 197.207,190.642 196.539 C 191.705 196.145,191.987 195.612,191.994 193.980 C 192.004 191.703,190.431 190.819,189.062 192.331 M306.469 210.262 C 307.541 211.233,307.607 244.888,306.538 246.069 C 305.900 246.774,302.130 246.800,202.154 246.800 L 98.431 246.800 97.616 245.925 C 96.822 245.073,96.800 244.602,96.800 228.498 C 96.800 212.048,96.895 210.751,98.160 209.906 C 99.210 209.205,305.690 209.558,306.469 210.262 M98.480 210.880 C 97.790 211.570,97.790 244.830,98.480 245.520 C 99.400 246.440,304.903 246.191,305.738 245.269 C 306.806 244.089,306.741 212.032,305.669 211.062 C 304.717 210.201,99.340 210.020,98.480 210.880 M288.541 223.578 C 291.330 226.560,290.402 228.136,287.517 225.319 L 286.000 223.838 284.428 225.372 C 281.460 228.271,280.555 226.488,283.485 223.514 C 285.837 221.126,286.252 221.131,288.541 223.578 M284.399 232.247 L 286.000 233.693 287.646 232.206 C 289.154 230.844,289.345 230.773,289.931 231.359 C 290.723 232.152,287.269 236.000,285.766 236.000 C 284.833 236.000,281.600 232.799,281.600 231.876 C 281.600 230.381,282.460 230.495,284.399 232.247 M252.171 293.029 C 252.996 293.853,253.138 328.702,252.320 329.520 C 251.811 330.029,153.548 330.262,152.233 329.757 C 151.403 329.439,151.255 293.705,152.080 292.880 C 152.908 292.052,251.341 292.198,252.171 293.029 M195.480 305.853 C 195.326 306.007,195.200 308.809,195.200 312.079 C 195.200 318.286,195.490 319.253,196.980 318.017 C 197.393 317.674,197.767 317.661,198.348 317.972 C 201.909 319.878,205.210 313.574,202.218 310.582 C 201.212 309.576,199.075 309.232,198.600 310.000 C 197.891 311.146,197.235 310.305,197.120 308.104 C 197.005 305.899,196.343 304.991,195.480 305.853 M219.763 306.151 C 219.440 306.995,219.894 307.600,220.851 307.600 C 221.456 307.600,221.624 307.377,221.528 306.704 C 221.379 305.658,220.106 305.260,219.763 306.151 M178.400 306.908 C 175.671 308.314,176.124 311.105,179.365 312.857 C 182.670 314.644,182.432 317.316,179.034 316.560 C 177.194 316.150,176.700 316.158,176.550 316.600 C 175.919 318.446,180.735 319.077,182.718 317.407 C 184.975 315.509,184.369 313.466,180.982 311.555 C 177.774 309.745,178.313 307.757,181.927 308.072 C 183.176 308.181,183.400 308.078,183.400 307.400 C 183.400 306.409,180.014 306.076,178.400 306.908 M224.900 307.465 C 224.625 307.576,224.400 308.081,224.400 308.587 C 224.400 309.170,224.107 309.583,223.600 309.716 C 223.160 309.831,222.800 310.139,222.800 310.400 C 222.800 310.661,223.160 310.969,223.600 311.084 C 224.307 311.269,224.400 311.630,224.400 314.185 C 224.400 317.498,225.080 318.557,227.061 318.330 C 228.495 318.165,228.855 316.920,227.523 316.731 C 226.096 316.529,225.872 311.330,227.282 311.130 C 228.464 310.963,228.478 309.839,227.300 309.672 C 226.600 309.573,226.400 309.283,226.400 308.372 C 226.400 307.239,226.024 307.011,224.900 307.465 M185.867 309.867 C 185.455 310.278,185.551 315.420,185.992 316.579 C 186.549 318.045,188.117 318.682,189.698 318.086 C 190.596 317.746,191.084 317.737,191.464 318.053 C 192.829 319.186,193.233 318.173,193.114 313.907 C 193.005 309.992,192.958 309.794,192.100 309.672 C 191.236 309.549,191.200 309.663,191.200 312.510 C 191.200 314.875,191.052 315.610,190.469 316.138 C 188.675 317.761,187.600 316.424,187.600 312.571 C 187.600 309.653,187.007 308.727,185.867 309.867 M205.372 310.130 C 204.745 311.763,205.406 318.200,206.200 318.200 C 206.914 318.200,207.012 317.894,207.117 315.347 C 207.344 309.783,210.051 309.531,210.400 315.041 C 210.689 319.607,212.133 319.837,212.317 315.347 C 212.544 309.783,215.251 309.531,215.600 315.041 C 215.784 317.941,215.874 318.210,216.700 318.328 C 218.102 318.527,218.080 311.791,216.674 310.470 C 215.563 309.425,214.138 309.351,213.108 310.283 C 212.497 310.836,212.224 310.874,211.677 310.481 C 210.401 309.565,209.880 309.470,208.658 309.931 C 207.848 310.237,207.299 310.259,207.037 309.997 C 206.476 309.436,205.611 309.505,205.372 310.130 M219.783 310.100 C 219.148 311.756,219.798 318.200,220.600 318.200 C 221.752 318.200,221.849 309.897,220.699 309.676 C 220.313 309.602,219.901 309.793,219.783 310.100 M201.124 312.511 C 201.539 313.382,201.555 313.924,201.196 315.012 C 200.302 317.722,197.200 317.044,197.200 314.138 C 197.200 311.424,200.041 310.246,201.124 312.511 " stroke="none" fill="#fbfbfb" fill-rule="evenodd"></path><path id="path1" d="M187.334 104.000 C 187.334 105.650,187.405 106.325,187.491 105.500 C 187.578 104.675,187.578 103.325,187.491 102.500 C 187.405 101.675,187.334 102.350,187.334 104.000 M194.086 194.067 C 194.038 196.414,193.884 198.664,193.741 199.067 C 193.547 199.616,193.601 199.691,193.955 199.366 C 194.281 199.067,194.388 197.515,194.299 194.366 L 194.171 189.800 194.086 194.067 M202.724 191.400 C 202.926 191.840,203.192 192.470,203.314 192.800 C 203.507 193.318,203.541 193.315,203.568 192.776 C 203.586 192.434,203.320 191.804,202.978 191.376 C 202.366 190.612,202.362 190.613,202.724 191.400 M187.832 193.415 C 187.692 193.973,187.738 194.717,187.934 195.068 C 188.189 195.523,188.291 195.231,188.291 194.053 C 188.291 192.142,188.188 191.998,187.832 193.415 M152.082 293.278 C 151.449 293.911,151.385 328.052,152.014 329.226 C 152.420 329.985,153.401 330.000,202.206 330.000 L 251.985 330.000 252.203 329.100 C 252.324 328.605,252.372 320.280,252.311 310.600 L 252.200 293.000 202.382 292.898 C 163.965 292.820,152.453 292.907,152.082 293.278 M197.600 307.741 L 197.600 309.883 199.611 309.689 C 203.638 309.302,205.399 313.800,202.548 317.189 C 201.609 318.305,201.420 318.357,198.382 318.337 L 195.200 318.316 195.200 311.958 L 195.200 305.600 196.400 305.600 C 197.584 305.600,197.600 305.629,197.600 307.741 M221.927 306.697 C 221.776 308.005,220.497 308.421,219.754 307.405 C 219.022 306.403,219.518 305.600,220.869 305.600 C 221.924 305.600,222.039 305.720,221.927 306.697 M183.367 306.243 C 185.126 306.918,184.065 308.400,181.824 308.400 C 180.627 308.400,179.535 308.582,179.398 308.804 C 178.951 309.526,179.606 310.715,180.587 310.961 C 183.529 311.699,185.263 315.246,183.653 317.233 C 182.021 319.249,176.400 318.721,176.400 316.551 C 176.400 315.473,176.580 315.425,178.347 316.042 C 181.920 317.287,182.689 314.965,179.337 313.054 C 176.652 311.525,175.707 309.539,176.913 307.964 C 178.094 306.422,181.480 305.519,183.367 306.243 M226.725 308.303 C 226.830 309.388,227.015 309.600,227.855 309.600 C 229.157 309.600,229.002 310.942,227.678 311.130 C 226.276 311.330,226.503 316.130,227.924 316.331 C 229.551 316.562,228.924 318.173,227.150 318.321 C 224.953 318.505,224.400 317.702,224.400 314.334 C 224.400 311.862,224.304 311.500,223.600 311.316 C 223.160 311.201,222.800 310.789,222.800 310.400 C 222.800 310.011,223.160 309.599,223.600 309.484 C 224.045 309.368,224.400 308.938,224.400 308.517 C 224.400 306.500,226.532 306.303,226.725 308.303 M188.000 312.538 C 188.000 316.175,188.898 317.502,190.367 316.033 C 191.052 315.348,191.200 314.703,191.200 312.400 L 191.200 309.600 192.414 309.600 L 193.627 309.600 193.514 313.900 L 193.400 318.200 190.420 318.294 C 186.122 318.430,185.600 317.871,185.600 313.130 L 185.600 309.600 186.800 309.600 L 188.000 309.600 188.000 312.538 M212.400 309.990 C 212.730 309.999,213.742 309.898,214.650 309.766 C 217.308 309.378,218.000 310.433,218.000 314.875 L 218.000 318.400 216.800 318.400 L 215.600 318.400 215.600 315.429 C 215.600 313.170,215.437 312.295,214.923 311.780 C 213.733 310.590,212.800 312.289,212.800 315.644 L 212.800 318.400 211.600 318.400 L 210.400 318.400 210.400 315.429 C 210.400 309.892,207.982 309.793,207.600 315.313 C 207.406 318.108,207.365 318.204,206.300 318.327 L 205.200 318.453 205.200 314.059 L 205.200 309.665 208.500 309.819 C 210.315 309.904,212.070 309.981,212.400 309.990 M221.914 313.900 C 221.803 318.090,221.776 318.203,220.845 318.335 C 219.488 318.527,219.385 318.161,219.527 313.641 L 219.653 309.600 220.840 309.600 L 222.027 309.600 221.914 313.900 M198.400 312.000 C 197.367 313.033,197.372 314.972,198.409 316.009 C 200.355 317.955,202.475 314.072,200.599 311.999 C 199.695 311.000,199.399 311.001,198.400 312.000 " stroke="none" fill="#0d6fc9" fill-rule="evenodd"></path><path id="path2" d="M169.928 95.086 C 170.564 95.207,171.490 96.261,172.868 98.432 C 174.967 101.737,175.983 102.838,174.245 99.922 C 172.002 96.162,170.836 94.799,169.908 94.854 L 169.000 94.909 169.928 95.086 M176.667 95.067 C 176.520 95.213,176.400 96.943,176.400 98.909 C 176.400 101.948,176.308 102.450,175.791 102.252 C 175.294 102.061,175.259 102.164,175.605 102.809 C 176.481 104.447,176.800 103.530,176.800 99.371 C 176.800 95.558,176.869 95.155,177.500 95.276 C 178.121 95.395,178.212 96.052,178.311 101.133 L 178.422 106.855 177.320 106.728 C 176.408 106.622,175.781 105.909,173.691 102.600 C 170.453 97.474,170.400 97.473,170.400 102.567 C 170.400 106.514,170.347 106.800,169.611 106.800 C 168.866 106.800,168.814 106.463,168.694 100.900 L 168.566 95.000 168.583 101.000 L 168.600 107.000 169.600 107.000 C 170.587 107.000,170.603 106.947,170.800 103.001 L 171.000 99.002 173.600 103.115 C 176.033 106.964,176.277 107.221,177.400 107.114 L 178.600 107.000 178.711 101.231 C 178.795 96.883,178.697 95.381,178.311 95.137 C 177.685 94.739,177.022 94.711,176.667 95.067 M218.550 95.882 C 218.697 96.664,218.585 96.737,217.558 96.532 C 216.292 96.278,215.819 97.402,217.000 97.855 C 217.330 97.982,217.600 98.372,217.600 98.723 C 217.600 99.191,217.718 99.242,218.045 98.915 C 218.579 98.381,218.181 97.600,217.376 97.600 C 217.059 97.600,216.800 97.400,216.800 97.157 C 216.800 96.886,217.181 96.809,217.775 96.958 C 218.934 97.249,219.231 96.893,218.742 95.800 C 218.407 95.053,218.394 95.058,218.550 95.882 M220.054 96.108 C 220.006 97.098,220.106 97.189,221.000 96.964 C 221.616 96.810,222.000 96.883,222.000 97.157 C 222.000 97.400,221.741 97.600,221.424 97.600 C 220.561 97.600,220.307 98.279,220.814 99.226 C 221.384 100.291,220.907 100.835,220.223 99.899 C 219.579 99.019,219.227 99.019,218.552 99.900 C 218.083 100.512,217.965 100.525,217.614 100.000 C 217.264 99.478,217.211 99.485,217.206 100.057 C 217.198 100.927,218.364 101.358,218.658 100.593 C 218.912 99.931,220.000 99.775,220.000 100.400 C 220.000 100.620,220.380 100.800,220.845 100.800 C 221.588 100.800,221.659 100.637,221.435 99.446 C 221.245 98.435,221.335 98.034,221.791 97.859 C 222.855 97.451,222.537 96.281,221.420 96.494 C 220.663 96.639,220.402 96.490,220.275 95.841 C 220.148 95.196,220.096 95.258,220.054 96.108 M181.204 98.995 C 180.513 99.828,181.012 100.965,181.903 100.590 C 183.384 99.968,184.268 99.959,184.769 100.563 C 185.341 101.252,185.281 101.295,183.053 101.786 C 181.464 102.136,181.880 102.326,183.731 102.096 C 185.394 101.889,185.975 101.134,185.196 100.195 C 184.636 99.520,182.576 99.391,182.196 100.007 C 181.929 100.438,181.200 100.168,181.200 99.638 C 181.200 99.464,181.605 99.127,182.100 98.888 C 182.745 98.577,182.815 98.446,182.349 98.427 C 181.991 98.412,181.476 98.668,181.204 98.995 M185.233 98.546 C 186.040 99.251,187.352 99.673,186.851 99.065 C 186.549 98.699,186.024 98.400,185.684 98.400 C 185.345 98.400,185.142 98.466,185.233 98.546 M189.378 102.600 L 189.400 107.000 190.400 107.000 C 191.368 107.000,191.401 106.911,191.432 104.200 L 191.464 101.400 191.314 104.100 C 191.183 106.444,191.062 106.800,190.395 106.800 C 189.694 106.800,189.615 106.427,189.491 102.500 L 189.355 98.200 189.378 102.600 M190.947 99.024 C 191.251 99.353,191.631 99.392,192.100 99.143 C 193.060 98.634,192.985 98.533,191.647 98.533 C 190.756 98.533,190.596 98.645,190.947 99.024 M195.147 99.048 C 195.987 99.636,198.468 99.135,197.838 98.505 C 197.750 98.417,197.277 98.582,196.787 98.872 C 196.081 99.290,195.858 99.296,195.714 98.900 C 195.615 98.625,195.238 98.400,194.878 98.400 C 194.381 98.400,194.446 98.557,195.147 99.048 M204.522 99.365 C 202.804 100.844,202.849 104.835,204.600 106.236 C 206.464 107.728,210.800 107.429,210.800 105.810 C 210.800 104.976,210.102 104.696,209.303 105.209 C 208.716 105.586,208.709 105.627,209.261 105.458 C 210.145 105.187,210.498 105.600,209.948 106.263 C 209.290 107.056,205.991 106.930,204.872 106.069 C 202.947 104.587,203.372 100.187,205.555 99.000 C 206.130 98.688,206.385 98.425,206.122 98.416 C 205.860 98.407,205.140 98.834,204.522 99.365 M209.000 98.862 C 212.036 100.522,211.545 102.725,208.100 102.903 L 205.400 103.043 208.300 103.122 L 211.200 103.200 211.200 101.854 C 211.200 100.331,209.889 98.394,208.871 98.412 C 208.318 98.422,208.340 98.501,209.000 98.862 M192.080 100.080 C 191.816 100.344,191.600 100.717,191.600 100.909 C 191.600 101.100,191.883 100.975,192.228 100.629 C 192.733 100.124,193.026 100.092,193.728 100.466 C 194.516 100.886,194.547 100.867,194.051 100.265 C 193.403 99.479,192.743 99.417,192.080 100.080 M197.216 100.475 C 196.560 101.179,196.400 101.886,196.400 104.075 C 196.400 108.327,194.900 108.173,194.697 103.900 L 194.559 101.000 194.479 104.127 L 194.400 107.253 195.500 107.127 C 196.573 107.003,196.603 106.929,196.717 104.147 C 196.934 98.817,199.261 98.605,199.600 103.884 C 199.793 106.888,199.836 107.000,200.800 107.000 C 201.791 107.000,201.800 106.966,201.826 103.400 L 201.853 99.800 201.711 103.300 C 201.583 106.462,201.493 106.800,200.784 106.800 C 200.076 106.800,200.000 106.514,200.000 103.862 C 200.000 101.524,199.851 100.789,199.269 100.262 C 198.329 99.411,198.194 99.425,197.216 100.475 M205.982 100.222 C 205.523 100.775,205.583 100.791,206.521 100.363 C 207.354 99.984,207.705 99.989,208.188 100.390 C 209.238 101.261,208.866 101.690,207.200 101.531 C 206.320 101.448,205.600 101.519,205.600 101.689 C 205.600 102.298,208.816 102.024,209.057 101.395 C 209.622 99.924,207.044 98.942,205.982 100.222 M180.576 103.380 C 179.088 105.651,180.736 107.170,184.600 107.090 C 186.140 107.058,187.040 106.960,186.600 106.873 C 186.160 106.785,185.591 106.545,185.336 106.338 C 185.041 106.099,184.776 106.115,184.612 106.381 C 183.351 108.421,179.704 105.638,180.903 103.550 C 181.708 102.147,181.466 102.022,180.576 103.380 M183.054 103.311 C 182.105 104.005,182.352 105.363,183.454 105.521 C 184.469 105.667,185.689 104.560,185.516 103.651 C 185.355 102.807,183.999 102.620,183.054 103.311 M185.200 103.720 C 185.200 104.462,184.362 105.200,183.520 105.200 C 182.693 105.200,182.513 103.782,183.300 103.465 C 184.260 103.078,185.200 103.204,185.200 103.720 M205.606 104.220 C 205.597 104.842,206.471 105.602,207.180 105.588 C 207.640 105.579,207.593 105.458,207.000 105.122 C 206.560 104.873,206.068 104.473,205.906 104.234 C 205.710 103.944,205.610 103.939,205.606 104.220 M97.782 118.982 L 96.800 119.964 96.800 137.138 C 96.800 153.451,96.838 154.359,97.565 155.256 L 98.329 156.200 201.923 156.200 C 303.232 156.200,305.535 156.183,306.358 155.438 C 307.646 154.272,307.685 120.085,306.400 118.800 C 305.604 118.004,305.067 118.000,202.182 118.000 L 98.764 118.000 97.782 118.982 M305.920 119.680 C 306.863 120.623,306.581 154.275,305.626 154.786 C 304.433 155.425,99.119 155.359,98.480 154.720 C 97.790 154.030,97.790 120.370,98.480 119.680 C 99.179 118.981,305.221 118.981,305.920 119.680 M178.228 187.700 C 177.473 189.545,177.114 190.800,177.341 190.800 C 177.448 190.800,177.838 189.890,178.207 188.778 C 178.950 186.543,181.195 185.883,181.536 187.800 C 181.614 188.240,181.830 188.761,182.016 188.958 C 182.473 189.440,181.988 187.533,181.493 186.900 C 180.669 185.847,178.798 186.305,178.228 187.700 M211.200 187.227 C 211.200 187.851,211.018 187.996,210.456 187.818 C 209.190 187.416,208.589 188.607,209.675 189.367 C 210.407 189.880,210.502 190.145,210.157 190.704 C 209.251 192.168,210.351 192.931,211.660 191.746 C 212.330 191.140,212.402 191.140,212.634 191.746 C 212.943 192.551,213.947 192.604,214.243 191.831 C 214.363 191.518,214.268 190.901,214.031 190.458 C 213.673 189.790,213.739 189.610,214.423 189.393 C 215.513 189.047,215.262 187.769,214.127 187.888 C 213.582 187.944,213.214 187.698,213.081 187.188 C 212.794 186.089,211.200 186.122,211.200 187.227 M212.581 187.659 C 212.332 188.443,212.418 188.496,213.554 188.269 C 214.920 187.996,215.284 188.592,214.000 189.000 C 213.077 189.293,213.006 189.700,213.685 190.787 C 214.399 191.931,213.663 192.345,212.845 191.259 L 212.144 190.330 211.544 191.233 C 211.196 191.758,210.748 192.015,210.477 191.847 C 210.132 191.634,210.176 191.303,210.644 190.589 C 211.252 189.662,211.234 189.599,210.252 189.151 C 208.998 188.579,209.275 187.903,210.625 188.242 C 211.427 188.443,211.600 188.338,211.600 187.643 C 211.600 187.144,211.856 186.800,212.227 186.800 C 212.686 186.800,212.781 187.030,212.581 187.659 M179.600 189.239 C 179.600 189.355,179.960 190.195,180.400 191.106 C 181.468 193.316,181.417 193.600,179.953 193.600 C 178.891 193.600,178.743 193.482,178.953 192.800 C 179.566 190.813,179.593 190.309,179.022 191.546 C 178.080 193.584,178.208 194.000,179.776 194.000 C 181.517 194.000,181.775 193.566,181.145 191.698 C 180.708 190.400,179.600 188.637,179.600 189.239 M182.416 189.815 C 182.395 190.352,183.793 194.326,184.115 194.649 C 184.453 194.986,183.693 192.302,182.998 190.704 C 182.686 189.987,182.424 189.587,182.416 189.815 M187.409 190.500 C 185.917 191.796,185.452 197.200,186.832 197.200 C 187.087 197.200,187.081 196.925,186.814 196.426 C 186.213 195.302,186.307 192.940,187.007 191.586 C 187.583 190.473,188.049 190.237,190.400 189.866 C 191.093 189.757,190.946 189.692,189.922 189.654 C 188.907 189.617,188.121 189.882,187.409 190.500 M192.000 190.006 C 191.578 190.282,191.815 190.323,192.800 190.142 C 194.525 189.825,194.851 189.598,193.567 189.606 C 193.035 189.609,192.330 189.789,192.000 190.006 M197.513 190.502 C 196.410 191.413,195.578 193.099,195.627 194.326 C 195.641 194.697,195.904 194.197,196.210 193.215 C 197.532 188.970,204.135 188.976,203.512 193.220 C 203.416 193.869,203.487 194.400,203.669 194.400 C 203.851 194.400,204.000 193.846,204.000 193.169 C 204.000 190.177,199.931 188.505,197.513 190.502 M176.444 192.444 C 176.198 193.151,176.066 193.800,176.152 193.885 C 176.238 193.971,176.509 193.462,176.756 192.756 C 177.002 192.049,177.134 191.400,177.048 191.315 C 176.962 191.229,176.691 191.738,176.444 192.444 M189.100 191.632 C 188.715 191.856,188.400 192.239,188.400 192.482 C 188.400 192.725,188.729 192.626,189.131 192.262 C 190.838 190.717,192.205 191.902,191.895 194.657 C 191.767 195.794,191.821 196.294,192.037 195.954 C 193.586 193.508,191.400 190.292,189.100 191.632 M200.962 191.959 C 201.496 192.548,201.532 192.764,201.124 192.927 C 200.782 193.064,200.843 193.148,201.300 193.168 C 201.685 193.186,202.000 193.098,202.000 192.974 C 202.000 192.412,201.128 191.200,200.724 191.200 C 200.477 191.200,200.584 191.541,200.962 191.959 M175.054 196.113 C 174.285 198.127,174.258 198.400,174.824 198.400 C 175.057 198.400,175.131 198.212,174.989 197.982 C 174.847 197.753,174.902 197.348,175.110 197.082 C 175.513 196.570,176.121 194.400,175.862 194.400 C 175.778 194.400,175.414 195.171,175.054 196.113 M177.599 195.500 C 177.599 195.665,178.580 195.739,179.779 195.664 C 181.948 195.529,181.963 195.536,182.559 196.964 C 182.889 197.754,183.255 198.400,183.371 198.400 C 183.617 198.400,182.818 196.435,182.273 195.700 C 181.876 195.165,177.600 194.982,177.599 195.500 M184.617 196.000 C 184.760 196.550,184.899 197.315,184.925 197.700 C 184.950 198.085,185.113 198.400,185.286 198.400 C 185.754 198.400,185.671 197.844,184.978 196.346 C 184.582 195.488,184.451 195.363,184.617 196.000 M196.018 195.718 C 195.997 196.547,197.715 198.407,198.482 198.386 C 198.767 198.378,198.551 198.123,198.003 197.820 C 197.454 197.516,196.787 196.757,196.521 196.134 C 196.197 195.376,196.030 195.238,196.018 195.718 M188.400 195.947 C 188.400 196.759,190.340 197.426,190.911 196.810 C 191.307 196.383,191.256 196.333,190.642 196.551 C 190.175 196.716,189.600 196.562,189.142 196.148 C 188.687 195.736,188.400 195.658,188.400 195.947 M199.000 196.608 C 199.547 197.054,200.275 197.200,201.300 197.069 C 202.896 196.864,203.254 197.279,202.100 197.995 C 201.460 198.392,201.469 198.419,202.200 198.311 C 202.688 198.238,203.052 197.827,203.133 197.255 C 203.259 196.370,203.178 196.333,201.663 196.589 C 200.714 196.750,199.681 196.676,199.130 196.408 C 198.224 195.968,198.221 195.973,199.000 196.608 M191.200 197.831 C 190.276 198.387,190.269 198.415,191.100 198.190 C 192.158 197.903,192.305 198.631,191.431 199.824 C 190.971 200.451,190.434 200.585,188.631 200.523 C 186.359 200.445,185.828 200.868,186.880 201.920 C 187.689 202.729,191.740 202.520,192.897 201.610 C 193.825 200.880,194.781 198.917,193.963 199.423 C 193.763 199.546,193.600 199.902,193.600 200.214 C 193.600 201.806,187.387 202.782,186.888 201.269 C 186.751 200.854,187.111 200.798,188.533 201.011 C 190.145 201.253,190.469 201.167,191.376 200.260 C 192.161 199.475,192.871 197.133,192.300 197.214 C 192.245 197.222,191.750 197.499,191.200 197.831 M98.160 209.906 C 96.895 210.751,96.800 212.048,96.800 228.498 C 96.800 244.602,96.822 245.073,97.616 245.925 L 98.431 246.800 202.154 246.800 C 302.130 246.800,305.900 246.774,306.538 246.069 C 307.607 244.888,307.541 211.233,306.469 210.262 C 305.690 209.558,99.210 209.205,98.160 209.906 M305.669 211.062 C 306.741 212.032,306.806 244.089,305.738 245.269 C 304.903 246.191,99.400 246.440,98.480 245.520 C 97.790 244.830,97.790 211.570,98.480 210.880 C 99.340 210.020,304.717 210.201,305.669 211.062 M283.485 223.514 C 280.555 226.488,281.460 228.271,284.428 225.372 L 286.000 223.838 287.517 225.319 C 290.402 228.136,291.330 226.560,288.541 223.578 C 286.252 221.131,285.837 221.126,283.485 223.514 M281.867 231.067 C 280.987 231.946,284.191 236.000,285.766 236.000 C 287.269 236.000,290.723 232.152,289.931 231.359 C 289.345 230.773,289.154 230.844,287.646 232.206 L 286.000 233.693 284.399 232.247 C 282.780 230.784,282.350 230.583,281.867 231.067 M151.949 293.100 C 151.463 293.720,151.473 293.743,152.039 293.302 C 152.540 292.911,163.410 292.781,202.239 292.700 L 251.800 292.597 202.149 292.498 C 155.271 292.405,152.467 292.439,151.949 293.100 M252.400 311.480 C 252.290 321.424,252.337 329.423,252.504 329.256 C 252.672 329.089,252.761 320.952,252.704 311.176 L 252.600 293.400 252.400 311.480 M197.136 307.999 C 197.265 310.289,197.891 311.148,198.597 310.005 C 198.737 309.778,198.577 309.711,198.221 309.847 C 197.705 310.045,197.600 309.705,197.600 307.843 C 197.600 306.609,197.465 305.600,197.300 305.599 C 197.135 305.599,197.061 306.679,197.136 307.999 M221.513 306.658 C 221.698 307.626,221.624 307.698,220.627 307.507 C 219.925 307.373,219.677 307.437,219.927 307.687 C 220.649 308.409,221.794 307.842,221.927 306.697 C 221.996 306.093,221.886 305.600,221.682 305.600 C 221.478 305.600,221.402 306.076,221.513 306.658 M181.400 306.363 C 183.150 306.570,183.396 306.712,183.368 307.500 C 183.351 307.995,183.486 308.400,183.668 308.400 C 184.276 308.400,184.010 306.489,183.367 306.243 C 183.019 306.109,181.984 306.028,181.067 306.063 L 179.400 306.126 181.400 306.363 M225.037 307.141 C 224.902 307.358,225.134 307.438,225.571 307.323 C 226.178 307.165,226.379 307.366,226.509 308.261 L 226.675 309.400 226.637 308.203 C 226.600 307.012,225.548 306.313,225.037 307.141 M180.500 308.276 C 180.885 308.376,181.515 308.376,181.900 308.276 C 182.285 308.175,181.970 308.093,181.200 308.093 C 180.430 308.093,180.115 308.175,180.500 308.276 M179.067 308.667 C 178.686 309.047,178.737 310.314,179.142 310.564 C 179.330 310.680,179.465 310.241,179.442 309.589 C 179.419 308.936,179.385 308.401,179.367 308.401 C 179.348 308.400,179.213 308.520,179.067 308.667 M187.679 312.471 C 187.619 314.809,187.750 315.693,188.229 316.171 C 189.093 317.036,189.475 316.967,188.681 316.090 C 188.246 315.609,187.994 314.415,187.899 312.390 L 187.759 309.400 187.679 312.471 M193.000 313.962 C 193.000 316.361,193.135 318.240,193.300 318.138 C 193.465 318.036,193.600 316.073,193.600 313.776 C 193.600 311.479,193.465 309.600,193.300 309.600 C 193.135 309.600,193.000 311.563,193.000 313.962 M202.218 310.582 C 203.740 312.103,203.641 315.621,202.031 317.231 C 201.388 317.874,201.012 318.400,201.195 318.400 C 201.851 318.400,203.572 315.953,203.811 314.684 C 204.156 312.841,202.719 309.600,201.556 309.600 C 201.380 309.600,201.678 310.042,202.218 310.582 M211.149 310.135 C 211.787 310.908,212.630 310.999,213.038 310.338 C 213.213 310.055,213.148 309.985,212.870 310.157 C 212.621 310.311,212.008 310.219,211.508 309.953 C 210.684 309.514,210.651 309.531,211.149 310.135 M216.713 310.508 C 217.426 311.266,217.588 312.005,217.701 315.008 L 217.835 318.600 217.918 314.975 C 217.997 311.470,217.370 309.600,216.115 309.600 C 215.975 309.600,216.244 310.008,216.713 310.508 M221.400 313.962 C 221.400 316.361,221.535 318.240,221.700 318.138 C 221.865 318.036,222.000 316.073,222.000 313.776 C 222.000 311.479,221.865 309.600,221.700 309.600 C 221.535 309.600,221.400 311.563,221.400 313.962 M181.661 311.952 C 184.230 313.582,184.740 315.360,183.130 317.074 C 182.652 317.583,182.462 318.000,182.708 318.000 C 184.119 318.000,184.859 314.833,183.800 313.322 C 183.203 312.469,180.804 310.800,180.174 310.800 C 179.992 310.800,180.661 311.319,181.661 311.952 M207.896 311.900 C 207.255 312.614,206.691 318.518,207.300 318.140 C 207.465 318.037,207.600 316.833,207.600 315.465 C 207.600 313.861,207.821 312.662,208.223 312.089 C 208.966 311.028,208.777 310.918,207.896 311.900 M213.096 311.900 C 212.443 312.628,211.913 318.403,212.500 318.401 C 212.665 318.400,212.800 317.180,212.800 315.689 C 212.800 313.883,213.008 312.681,213.423 312.089 C 214.166 311.028,213.977 310.918,213.096 311.900 M226.559 313.800 C 226.597 316.419,226.661 316.609,227.538 316.733 C 228.240 316.832,228.426 317.059,228.275 317.633 C 228.165 318.056,228.238 318.300,228.437 318.177 C 229.175 317.721,228.807 316.457,227.900 316.328 C 227.102 316.215,226.973 315.905,226.759 313.600 L 226.518 311.000 226.559 313.800 M197.614 312.374 C 196.971 313.576,197.125 315.408,197.931 316.138 C 198.970 317.077,199.362 316.962,198.400 316.000 C 197.527 315.127,197.363 313.589,198.014 312.374 C 198.242 311.948,198.338 311.600,198.228 311.600 C 198.118 311.600,197.842 311.948,197.614 312.374 M176.401 315.900 C 176.401 316.065,176.986 316.230,177.701 316.267 C 178.743 316.322,178.841 316.268,178.200 315.996 C 177.172 315.560,176.400 315.519,176.401 315.900 " stroke="none" fill="#9fa3a8" fill-rule="evenodd"></path><path id="path3" d="M168.800 101.000 C 168.800 106.533,168.837 106.800,169.600 106.800 C 170.350 106.800,170.400 106.533,170.400 102.567 C 170.400 97.473,170.453 97.474,173.691 102.600 C 175.781 105.909,176.408 106.622,177.320 106.728 L 178.422 106.855 178.311 101.133 C 178.212 96.052,178.121 95.395,177.500 95.276 C 176.869 95.155,176.800 95.560,176.800 99.404 C 176.800 104.677,176.634 104.670,173.255 99.268 C 171.184 95.957,170.532 95.200,169.755 95.200 L 168.800 95.200 168.800 101.000 M218.875 96.100 C 218.982 96.867,218.838 96.983,217.900 96.885 C 217.295 96.822,216.800 96.957,216.800 97.185 C 216.800 97.413,217.059 97.600,217.376 97.600 C 218.248 97.600,218.486 98.274,217.929 99.166 C 217.299 100.174,217.888 100.842,218.577 99.899 C 218.858 99.515,219.229 99.200,219.400 99.200 C 219.571 99.200,219.942 99.515,220.223 99.899 C 220.907 100.835,221.384 100.291,220.814 99.226 C 220.307 98.279,220.561 97.600,221.424 97.600 C 221.741 97.600,222.000 97.400,222.000 97.157 C 222.000 96.883,221.616 96.810,221.000 96.964 C 220.132 97.182,220.000 97.083,220.000 96.208 C 220.000 95.561,219.776 95.200,219.375 95.200 C 218.956 95.200,218.791 95.497,218.875 96.100 M182.100 98.888 C 181.605 99.127,181.200 99.464,181.200 99.638 C 181.200 100.168,181.929 100.438,182.196 100.007 C 182.576 99.391,184.636 99.520,185.196 100.195 C 185.901 101.045,185.395 102.000,184.239 102.000 C 181.434 102.000,179.747 103.943,180.952 105.784 C 181.668 106.875,183.828 107.212,184.675 106.365 C 184.988 106.052,185.185 106.052,185.378 106.365 C 186.412 108.038,187.200 106.767,187.200 103.429 C 187.200 98.961,185.355 97.318,182.100 98.888 M189.600 102.600 C 189.600 106.533,189.651 106.800,190.400 106.800 C 191.127 106.800,191.200 106.533,191.200 103.862 C 191.200 101.524,191.349 100.789,191.931 100.262 C 193.642 98.714,194.800 100.260,194.800 104.089 C 194.800 106.533,194.879 106.800,195.600 106.800 C 196.329 106.800,196.400 106.533,196.400 103.809 C 196.400 101.052,196.479 100.767,197.410 100.157 C 199.159 99.010,200.000 100.213,200.000 103.862 C 200.000 106.581,200.063 106.800,200.841 106.800 C 201.640 106.800,201.675 106.633,201.541 103.442 C 201.347 98.813,199.822 97.249,197.256 99.045 C 196.402 99.644,196.235 99.637,194.972 98.957 C 193.702 98.273,193.532 98.267,192.504 98.870 C 191.561 99.424,191.325 99.437,190.884 98.959 C 189.827 97.813,189.600 98.456,189.600 102.600 M205.555 99.000 C 203.372 100.187,202.947 104.587,204.872 106.069 C 206.046 106.971,209.291 107.055,210.000 106.200 C 210.557 105.528,210.471 105.500,208.155 105.590 C 206.354 105.660,205.200 104.872,205.200 103.571 C 205.200 102.883,205.501 102.800,208.000 102.800 C 210.742 102.800,210.800 102.779,210.800 101.769 C 210.800 99.377,207.787 97.787,205.555 99.000 M208.796 100.195 C 209.647 101.220,208.973 102.000,207.236 102.000 C 205.349 102.000,204.860 101.438,205.823 100.375 C 206.657 99.453,208.107 99.365,208.796 100.195 M185.516 103.651 C 185.834 105.320,182.700 106.374,182.190 104.770 C 181.900 103.855,181.874 103.904,183.000 103.263 C 184.075 102.651,185.363 102.850,185.516 103.651 M177.232 191.500 C 176.302 194.085,175.360 196.536,175.138 196.947 C 174.894 197.399,174.879 197.839,175.100 198.060 C 175.734 198.694,176.786 197.965,177.125 196.657 C 177.670 194.553,181.878 194.730,182.900 196.900 C 183.551 198.283,184.310 198.757,184.910 198.157 C 185.044 198.023,185.002 197.618,184.817 197.257 C 184.476 196.589,183.041 192.700,181.734 188.900 C 180.424 185.090,179.304 185.736,177.232 191.500 M211.600 187.643 C 211.600 188.338,211.427 188.443,210.625 188.242 C 209.275 187.903,208.998 188.579,210.252 189.151 C 211.234 189.599,211.252 189.662,210.644 190.589 C 210.176 191.303,210.132 191.634,210.477 191.847 C 210.748 192.015,211.196 191.758,211.544 191.233 L 212.144 190.330 212.845 191.259 C 213.663 192.345,214.399 191.931,213.685 190.787 C 213.006 189.700,213.077 189.293,214.000 189.000 C 215.284 188.592,214.920 187.996,213.554 188.269 C 212.418 188.496,212.332 188.443,212.581 187.659 C 212.781 187.030,212.686 186.800,212.227 186.800 C 211.856 186.800,211.600 187.144,211.600 187.643 M180.268 189.700 C 181.952 192.003,181.734 194.000,179.800 194.000 C 178.020 194.000,177.906 193.713,178.717 191.269 C 179.432 189.111,179.665 188.876,180.268 189.700 M188.092 190.279 C 186.669 190.819,185.903 194.719,186.865 196.526 C 187.875 198.422,189.234 198.817,191.220 197.790 C 192.379 197.190,192.400 197.198,192.400 198.208 C 192.400 200.067,190.658 201.330,188.533 201.011 C 187.111 200.798,186.751 200.854,186.888 201.269 C 187.002 201.614,187.915 201.841,189.499 201.918 C 193.378 202.107,194.000 201.015,194.000 194.022 L 194.000 190.145 191.300 190.116 C 189.815 190.100,188.371 190.173,188.092 190.279 M197.524 190.920 C 193.972 194.212,197.813 200.241,202.026 197.986 C 203.279 197.316,202.915 196.861,201.300 197.076 C 200.159 197.228,199.536 197.068,198.700 196.409 C 196.830 194.935,197.248 194.449,200.500 194.318 C 203.328 194.203,203.397 194.175,203.294 193.200 C 202.987 190.318,199.613 188.984,197.524 190.920 M201.500 191.932 C 202.353 192.991,202.073 193.200,199.800 193.200 C 197.362 193.200,197.098 192.853,198.626 191.651 C 199.707 190.800,200.663 190.894,201.500 191.932 M191.771 191.829 C 193.102 193.160,192.039 197.200,190.357 197.200 C 188.624 197.200,187.358 194.945,188.000 193.000 C 188.582 191.238,190.564 190.622,191.771 191.829 " stroke="none" fill="#a24a4d" fill-rule="evenodd"></path></g></svg>