<?xml version="1.0" encoding="UTF-8"?>
<!DOCTYPE svg PUBLIC "-//W3C//DTD SVG 1.1//EN" "http://www.w3.org/Graphics/SVG/1.1/DTD/svg11.dtd">
<svg xmlns="http://www.w3.org/2000/svg" version="1.1" width="448px" height="448px" viewBox="0 0 448 448" style="shape-rendering:geometricPrecision; text-rendering:geometricPrecision; image-rendering:optimizeQuality; fill-rule:evenodd; clip-rule:evenodd" xmlns:xlink="http://www.w3.org/1999/xlink">
<g><path style="opacity:0.986" fill="#f8f8f8" d="M 204.5,-0.5 C 217.167,-0.5 229.833,-0.5 242.5,-0.5C 290.676,4.09653 333.009,22.0965 369.5,53.5C 272.167,53.5 174.833,53.5 77.5,53.5C 113.991,22.0965 156.324,4.09653 204.5,-0.5 Z"/></g>
<g><path style="opacity:0.996" fill="#bcc5ce" d="M 77.5,53.5 C 174.833,53.5 272.167,53.5 369.5,53.5C 371.191,54.8637 372.858,56.197 374.5,57.5C 273.833,57.5 173.167,57.5 72.5,57.5C 74.1423,56.197 75.8089,54.8637 77.5,53.5 Z"/></g>
<g><path style="opacity:0.995" fill="#ecedee" d="M 72.5,57.5 C 173.167,57.5 273.833,57.5 374.5,57.5C 375.833,58.1667 376.833,59.1667 377.5,60.5C 362.5,60.5 347.5,60.5 332.5,60.5C 332.5,73.8333 332.5,87.1667 332.5,100.5C 358.5,100.5 384.5,100.5 410.5,100.5C 411.974,101.436 412.974,102.77 413.5,104.5C 286.833,104.5 160.167,104.5 33.5,104.5C 34.2485,102.668 35.2485,101.001 36.5,99.5C 131.833,99.5 227.167,99.5 322.5,99.5C 322.5,86.5 322.5,73.5 322.5,60.5C 238.167,60.5 153.833,60.5 69.5,60.5C 70.1667,59.1667 71.1667,58.1667 72.5,57.5 Z"/></g>
<g><path style="opacity:0.997" fill="#fefefe" d="M 69.5,60.5 C 153.833,60.5 238.167,60.5 322.5,60.5C 322.5,73.5 322.5,86.5 322.5,99.5C 227.167,99.5 131.833,99.5 36.5,99.5C 45.6521,85.0082 56.6521,72.0082 69.5,60.5 Z"/></g>
<g><path style="opacity:0.988" fill="#fcfcfc" d="M 377.5,60.5 C 383.87,65.8695 389.537,71.8695 394.5,78.5C 389.817,80.2095 388.317,83.5429 390,88.5C 392.21,91.2896 395.044,92.123 398.5,91C 394.18,91.5003 391.846,89.667 391.5,85.5C 394.5,85.5 397.5,85.5 400.5,85.5C 404.588,90.0126 407.921,95.0126 410.5,100.5C 384.5,100.5 358.5,100.5 332.5,100.5C 332.5,87.1667 332.5,73.8333 332.5,60.5C 347.5,60.5 362.5,60.5 377.5,60.5 Z"/></g>
<g><path style="opacity:1" fill="#d4d0c9" d="M 346.5,65.5 C 349.263,65.7438 351.429,67.0771 353,69.5C 353.311,70.7425 352.811,71.7425 351.5,72.5C 354.736,73.9415 357.736,73.6081 360.5,71.5C 365.158,73.5976 365.492,76.0976 361.5,79C 358.074,80.2381 356.408,79.0714 356.5,75.5C 355.5,75.5 354.5,75.5 353.5,75.5C 352.833,86.1667 352.167,86.1667 351.5,75.5C 348.19,75.461 345.524,76.7943 343.5,79.5C 341.127,77.665 339.961,75.3317 340,72.5C 342.372,70.2968 344.539,67.9635 346.5,65.5 Z"/></g>
<g><path style="opacity:1" fill="#cccbcc" d="M 394.5,78.5 C 396.471,80.8082 398.471,83.1415 400.5,85.5C 397.5,85.5 394.5,85.5 391.5,85.5C 391.846,89.667 394.18,91.5003 398.5,91C 395.044,92.123 392.21,91.2896 390,88.5C 388.317,83.5429 389.817,80.2095 394.5,78.5 Z"/></g>
<g><path style="opacity:1" fill="#bdbcbf" d="M 377.5,73.5 C 385.491,71.66 388.658,74.66 387,82.5C 384.772,84.1134 382.272,84.78 379.5,84.5C 379.808,86.924 379.474,89.2573 378.5,91.5C 377.504,85.5368 377.171,79.5368 377.5,73.5 Z"/></g>
<g><path style="opacity:1" fill="#f9f9f9" d="M 379.5,74.5 C 382.916,73.8663 384.916,75.1996 385.5,78.5C 385.338,82.3262 383.338,83.9928 379.5,83.5C 379.5,80.5 379.5,77.5 379.5,74.5 Z"/></g>
<g><path style="opacity:1" fill="#b1b1b1" d="M 355.5,82.5 C 359.514,82.3345 363.514,82.5012 367.5,83C 369.396,84.8083 369.896,86.975 369,89.5C 367.167,91.3333 365.333,93.1667 363.5,95C 359.953,94.1837 356.786,92.3504 354,89.5C 353.391,86.9348 353.891,84.6015 355.5,82.5 Z"/></g>
<g><path style="opacity:1" fill="#f1f1f1" d="M 356.5,84.5 C 360.127,85.5388 363.794,85.5388 367.5,84.5C 367.984,88.8611 366.151,91.8611 362,93.5C 357.632,91.7086 355.798,88.7086 356.5,84.5 Z"/></g>
<g><path style="opacity:0.997" fill="#fdfdfd" d="M 33.5,104.5 C 160.167,104.5 286.833,104.5 413.5,104.5C 432.614,135.174 443.947,168.508 447.5,204.5C 447.5,217.167 447.5,229.833 447.5,242.5C 446.596,243.209 446.263,244.209 446.5,245.5C 444.765,243.765 442.765,242.432 440.5,241.5C 438.5,242.5 436.5,243.5 434.5,244.5C 432.438,243.271 430.271,242.271 428,241.5C 425.729,242.271 423.562,243.271 421.5,244.5C 419.438,243.271 417.271,242.271 415,241.5C 412.999,242.502 410.999,243.502 409,244.5C 407.217,243.047 405.217,242.047 403,241.5C 400.476,242.178 398.309,243.512 396.5,245.5C 394.736,243.722 392.736,242.389 390.5,241.5C 389.463,239.262 389.297,236.929 390,234.5C 390.383,235.056 390.883,235.389 391.5,235.5C 394.752,237.147 397.586,236.48 400,233.5C 400.667,230.5 400.667,227.5 400,224.5C 399.184,223.177 398.017,222.511 396.5,222.5C 393.833,222.5 391.167,222.5 388.5,222.5C 387.509,228.979 387.176,235.646 387.5,242.5C 386.469,243.355 385.303,244.022 384,244.5C 381.738,243.618 379.571,242.618 377.5,241.5C 375.253,242.406 373.253,243.739 371.5,245.5C 367.802,240.688 363.802,240.355 359.5,244.5C 357.045,243.685 354.711,242.685 352.5,241.5C 350.5,242.5 348.5,243.5 346.5,244.5C 344.438,243.271 342.271,242.271 340,241.5C 337.476,242.178 335.309,243.512 333.5,245.5C 331.747,243.739 329.747,242.406 327.5,241.5C 325.253,242.406 323.253,243.739 321.5,245.5C 317.167,240.167 312.833,240.167 308.5,245.5C 307.019,244.52 305.685,243.353 304.5,242C 302.833,241.333 301.167,241.333 299.5,242C 298.601,243.236 297.434,244.07 296,244.5C 294.217,243.047 292.217,242.047 290,241.5C 287.476,242.178 285.309,243.512 283.5,245.5C 282.019,244.52 280.685,243.353 279.5,242C 277.833,241.333 276.167,241.333 274.5,242C 273.601,243.236 272.434,244.07 271,244.5C 268.738,243.618 266.571,242.618 264.5,241.5C 262.253,242.406 260.253,243.739 258.5,245.5C 257.019,244.52 255.685,243.353 254.5,242C 252.833,241.333 251.167,241.333 249.5,242C 248.601,243.236 247.434,244.07 246,244.5C 243.738,243.618 241.571,242.618 239.5,241.5C 237.253,242.406 235.253,243.739 233.5,245.5C 232.019,244.52 230.685,243.353 229.5,242C 227.833,241.333 226.167,241.333 224.5,242C 223.541,243.464 222.208,244.297 220.5,244.5C 218.5,243.5 216.5,242.5 214.5,241.5C 212.296,241.527 211.462,242.527 212,244.5C 212.689,243.643 213.522,242.977 214.5,242.5C 216.309,244.488 218.476,245.822 221,246.5C 223.217,245.953 225.217,244.953 227,243.5C 228.434,243.93 229.601,244.764 230.5,246C 232.167,246.667 233.833,246.667 235.5,246C 236.685,244.647 238.019,243.48 239.5,242.5C 241.309,244.488 243.476,245.822 246,246.5C 248.271,245.729 250.438,244.729 252.5,243.5C 254.5,244.5 256.5,245.5 258.5,246.5C 260.747,245.594 262.747,244.261 264.5,242.5C 266.309,244.488 268.476,245.822 271,246.5C 273.271,245.729 275.438,244.729 277.5,243.5C 279.562,244.729 281.729,245.729 284,246.5C 286.024,245.487 287.857,244.154 289.5,242.5C 291.309,244.488 293.476,245.822 296,246.5C 298.271,245.729 300.438,244.729 302.5,243.5C 304.208,243.703 305.541,244.536 306.5,246C 310.21,247.224 312.877,246.058 314.5,242.5C 316.309,244.488 318.476,245.822 321,246.5C 323.271,245.729 325.438,244.729 327.5,243.5C 329.562,244.729 331.729,245.729 334,246.5C 336.217,245.953 338.217,244.953 340,243.5C 341.783,244.953 343.783,245.953 346,246.5C 348.524,245.822 350.691,244.488 352.5,242.5C 354.309,244.488 356.476,245.822 359,246.5C 361.217,245.953 363.217,244.953 365,243.5C 367.361,244.551 369.694,245.551 372,246.5C 374.001,245.498 376.001,244.498 378,243.5C 379.783,244.953 381.783,245.953 384,246.5C 386.271,245.729 388.438,244.729 390.5,243.5C 392.562,244.729 394.729,245.729 397,246.5C 399.217,245.953 401.217,244.953 403,243.5C 404.783,244.953 406.783,245.953 409,246.5C 411.271,245.729 413.438,244.729 415.5,243.5C 417.562,244.729 419.729,245.729 422,246.5C 424.217,245.953 426.217,244.953 428,243.5C 429.783,244.953 431.783,245.953 434,246.5C 436.524,245.822 438.691,244.488 440.5,242.5C 442.264,244.278 444.264,245.611 446.5,246.5C 444.611,267.39 439.611,287.39 431.5,306.5C 430.081,305.549 428.415,305.216 426.5,305.5C 426.5,300.5 426.5,295.5 426.5,290.5C 425.5,289.167 424.5,289.167 423.5,290.5C 423.5,295.833 423.5,301.167 423.5,306.5C 422.581,307.896 425.247,308.23 431.5,307.5C 423.037,328.92 411.37,348.253 396.5,365.5C 393.536,365.02 390.536,364.687 387.5,364.5C 387.5,368.5 387.5,372.5 387.5,376.5C 355.799,410.361 317.132,432.361 271.5,442.5C 271.5,440.5 271.5,438.5 271.5,436.5C 267.5,436.5 263.5,436.5 259.5,436.5C 259.5,439.167 259.5,441.833 259.5,444.5C 255.382,445.709 251.049,446.376 246.5,446.5C 248.988,444.612 251.988,443.945 255.5,444.5C 255.871,437.491 252.538,434.991 245.5,437C 243.66,439.826 242.994,442.993 243.5,446.5C 242.833,446.5 242.5,446.833 242.5,447.5C 239.5,447.5 236.5,447.5 233.5,447.5C 233.5,441.833 233.5,436.167 233.5,430.5C 231.396,430.201 229.396,430.534 227.5,431.5C 228.689,432.429 230.022,432.762 231.5,432.5C 231.5,437.5 231.5,442.5 231.5,447.5C 229.167,447.5 226.833,447.5 224.5,447.5C 224.784,444.223 224.451,441.057 223.5,438C 219.529,436.908 215.529,436.408 211.5,436.5C 211.5,440.167 211.5,443.833 211.5,447.5C 210.5,447.5 209.5,447.5 208.5,447.5C 208.5,443.833 208.5,440.167 208.5,436.5C 204.167,436.5 199.833,436.5 195.5,436.5C 195.5,439.833 195.5,443.167 195.5,446.5C 192.5,445.833 189.5,445.167 186.5,444.5C 186.5,440.833 186.5,437.167 186.5,433.5C 193.068,432.755 192.902,432.088 186,431.5C 184.167,431.833 182.333,432.167 180.5,432.5C 181.689,433.429 183.022,433.762 184.5,433.5C 184.5,437.167 184.5,440.833 184.5,444.5C 179.473,443.628 174.473,442.628 169.5,441.5C 169.5,440.5 169.5,439.5 169.5,438.5C 171.604,438.799 173.604,438.466 175.5,437.5C 173.257,436.526 170.924,436.192 168.5,436.5C 167.833,431.167 167.167,431.167 166.5,436.5C 165.325,436.281 164.325,436.614 163.5,437.5C 164.993,438.141 165.993,439.141 166.5,440.5C 125.448,429.718 90.4478,409.052 61.5,378.5C 62.8197,375.572 63.4864,372.239 63.5,368.5C 63.1667,365.167 62.8333,361.833 62.5,358.5C 61.8333,360.833 61.1667,363.167 60.5,365.5C 56.4739,363.546 53.8073,364.546 52.5,368.5C 21.6774,332.171 4.01077,290.171 -0.5,242.5C -0.5,237.167 -0.5,231.833 -0.5,226.5C 2.02195,225.335 2.02195,224.002 -0.5,222.5C -0.5,216.5 -0.5,210.5 -0.5,204.5C 1.23041,187.189 4.89707,170.189 10.5,153.5C 11.4959,153.414 12.3292,153.748 13,154.5C 13.4986,158.152 13.6653,161.818 13.5,165.5C 14.5,165.5 15.5,165.5 16.5,165.5C 16.6655,161.486 16.4988,157.486 16,153.5C 14.8904,151.963 13.3904,151.297 11.5,151.5C 13.6762,142.624 17.0096,134.291 21.5,126.5C 21.4142,127.496 21.7476,128.329 22.5,129C 24.7695,129.758 26.9361,129.591 29,128.5C 29.7112,130.367 29.2112,131.867 27.5,133C 25.4233,133.192 23.4233,133.692 21.5,134.5C 25.937,136.378 29.437,135.378 32,131.5C 32.4994,126.177 32.666,120.844 32.5,115.5C 30.602,116.096 28.9354,116.096 27.5,115.5C 28.7417,111.345 30.7417,107.678 33.5,104.5 Z"/></g>
<g><path style="opacity:1" fill="#aeafb0" d="M 61.5,110.5 C 62.5,110.5 63.5,110.5 64.5,110.5C 64.5,116.833 64.5,123.167 64.5,129.5C 63.5,129.5 62.5,129.5 61.5,129.5C 61.5,126.833 61.5,124.167 61.5,121.5C 59.1667,121.5 56.8333,121.5 54.5,121.5C 54.8134,124.247 54.48,126.914 53.5,129.5C 52.1667,123.5 52.1667,117.5 53.5,111.5C 54.48,114.086 54.8134,116.753 54.5,119.5C 56.8333,119.5 59.1667,119.5 61.5,119.5C 61.5,116.5 61.5,113.5 61.5,110.5 Z"/></g>
<g><path style="opacity:1" fill="#b3b3b3" d="M 151.5,110.5 C 154.998,109.955 157.998,110.788 160.5,113C 151.456,111.502 148.289,115.335 151,124.5C 153.64,126.873 156.807,128.207 160.5,128.5C 149.285,130.444 145.119,125.778 148,114.5C 149.376,113.295 150.542,111.962 151.5,110.5 Z"/></g>
<g><path style="opacity:0.931" fill="#fafafb" d="M 25.5,117.5 C 27.0174,117.511 28.1841,118.177 29,119.5C 29.8141,121.902 29.6474,124.235 28.5,126.5C 25.7679,128.034 23.7679,127.367 22.5,124.5C 23.2271,122.046 24.2271,119.713 25.5,117.5 Z"/></g>
<g><path style="opacity:1" fill="#b0afb0" d="M 167.5,115.5 C 174.226,115.598 177.059,118.932 176,125.5C 173.839,129.124 170.672,130.291 166.5,129C 162.204,123.963 162.537,119.463 167.5,115.5 Z"/></g>
<g><path style="opacity:1" fill="#f2f3f2" d="M 168.5,117.5 C 173.151,118.174 174.651,120.841 173,125.5C 169.182,128.498 167.016,127.498 166.5,122.5C 166.437,120.486 167.103,118.819 168.5,117.5 Z"/></g>
<g><path style="opacity:1" fill="#b2b2b3" d="M 71.5,115.5 C 78.7561,115.19 81.5895,118.524 80,125.5C 76.8295,130.414 73.1628,130.747 69,126.5C 67.9231,122.258 68.7564,118.591 71.5,115.5 Z"/></g>
<g><path style="opacity:1" fill="#f7f7f6" d="M 73.5,118.5 C 76.2721,118.627 77.6054,120.127 77.5,123C 77.6234,127.26 75.79,128.426 72,126.5C 71.1093,123.502 71.6093,120.836 73.5,118.5 Z"/></g>
<g><path style="opacity:1" fill="#bbbabb" d="M 198.5,115.5 C 204.675,114.677 207.675,117.344 207.5,123.5C 204.5,123.5 201.5,123.5 198.5,123.5C 198.281,124.675 198.614,125.675 199.5,126.5C 210.078,128.296 210.078,129.129 199.5,129C 194.501,124.839 194.167,120.339 198.5,115.5 Z"/></g>
<g><path style="opacity:1" fill="#b5b5b5" d="M 103.5,115.5 C 109.833,114.5 112.5,117.167 111.5,123.5C 99.8869,123.991 99.8869,125.657 111.5,128.5C 102.179,130.677 98.6795,127.011 101,117.5C 101.995,116.934 102.828,116.267 103.5,115.5 Z"/></g>
<g><path style="opacity:1" fill="#c9c9df" d="M 27.5,115.5 C 28.9354,116.096 30.602,116.096 32.5,115.5C 32.666,120.844 32.4994,126.177 32,131.5C 29.437,135.378 25.937,136.378 21.5,134.5C 23.4233,133.692 25.4233,133.192 27.5,133C 29.2112,131.867 29.7112,130.367 29,128.5C 26.9361,129.591 24.7695,129.758 22.5,129C 21.7476,128.329 21.4142,127.496 21.5,126.5C 21.3284,125.508 21.6618,124.842 22.5,124.5C 23.7679,127.367 25.7679,128.034 28.5,126.5C 29.6474,124.235 29.8141,121.902 29,119.5C 28.1841,118.177 27.0174,117.511 25.5,117.5C 25.8333,116.5 26.5,115.833 27.5,115.5 Z"/></g>
<g><path style="opacity:1" fill="#b4b4b3" d="M 83.5,109.5 C 85.8333,109.5 88.1667,109.5 90.5,109.5C 90.3339,115.176 90.5006,120.843 91,126.5C 92.8254,127.103 94.6587,127.77 96.5,128.5C 93.3884,129.983 90.5551,129.65 88,127.5C 87.5006,122.177 87.334,116.844 87.5,111.5C 85.5168,111.843 84.1834,111.176 83.5,109.5 Z"/></g>
<g><path style="opacity:1" fill="#b0b0b0" d="M 179.5,115.5 C 183.495,116.65 187.495,116.817 191.5,116C 193.037,117.11 193.703,118.61 193.5,120.5C 186.361,116.948 183.361,119.281 184.5,127.5C 189.752,128.258 189.585,128.925 184,129.5C 182.5,129.167 181,128.833 179.5,128.5C 180.325,127.614 181.325,127.281 182.5,127.5C 182.5,124.167 182.5,120.833 182.5,117.5C 180.821,117.715 179.821,117.048 179.5,115.5 Z"/></g>
<g><path style="opacity:1" fill="#b0afb0" d="M 115.5,115.5 C 117.624,116.031 119.124,117.365 120,119.5C 120.681,121.895 121.515,124.228 122.5,126.5C 123.97,123.293 125.137,119.959 126,116.5C 126.893,115.289 127.726,115.289 128.5,116.5C 126.628,122.284 124.461,127.951 122,133.5C 120.007,135.378 117.841,135.712 115.5,134.5C 117.872,133.653 119.872,132.319 121.5,130.5C 120.462,127.531 118.962,124.864 117,122.5C 116.023,120.26 115.523,117.927 115.5,115.5 Z"/></g>
<g><path style="opacity:1" fill="#adaeae" d="M 61.5,146.5 C 62.5,146.5 63.5,146.5 64.5,146.5C 64.5,152.833 64.5,159.167 64.5,165.5C 63.5,165.5 62.5,165.5 61.5,165.5C 61.5,162.5 61.5,159.5 61.5,156.5C 59.1667,156.5 56.8333,156.5 54.5,156.5C 53.8412,168.465 53.1745,168.465 52.5,156.5C 52.8333,153.5 53.1667,150.5 53.5,147.5C 54.48,150.086 54.8134,152.753 54.5,155.5C 56.8333,155.5 59.1667,155.5 61.5,155.5C 61.5,152.5 61.5,149.5 61.5,146.5 Z"/></g>
<g><path style="opacity:1" fill="#b3b1b3" d="M 402.5,145.5 C 404.833,145.5 407.167,145.5 409.5,145.5C 409.334,151.176 409.501,156.843 410,162.5C 411.509,163.09 413.009,163.756 414.5,164.5C 411.718,165.952 409.218,165.619 407,163.5C 406.501,158.177 406.334,152.844 406.5,147.5C 404.517,147.843 403.183,147.176 402.5,145.5 Z"/></g>
<g><path style="opacity:1" fill="#b1afb0" d="M 307.5,146.5 C 315.125,145.304 319.459,148.47 320.5,156C 319.891,163.99 315.558,167.157 307.5,165.5C 307.5,159.167 307.5,152.833 307.5,146.5 Z"/></g>
<g><path style="opacity:1" fill="#f5f5f5" d="M 309.5,148.5 C 317.114,149.028 319.614,153.028 317,160.5C 315.152,163.041 312.652,164.041 309.5,163.5C 309.5,158.5 309.5,153.5 309.5,148.5 Z"/></g>
<g><path style="opacity:1" fill="#b1b2b2" d="M 182.5,146.5 C 185.084,147.048 186.084,148.715 185.5,151.5C 193.5,152.167 193.5,152.833 185.5,153.5C 185.335,156.518 185.502,159.518 186,162.5C 187.825,163.103 189.659,163.77 191.5,164.5C 188.388,165.983 185.555,165.65 183,163.5C 182.502,160.183 182.335,156.85 182.5,153.5C 178.5,152.833 178.5,152.167 182.5,151.5C 182.5,149.833 182.5,148.167 182.5,146.5 Z"/></g>
<g><path style="opacity:1" fill="#b0afb0" d="M 262.5,151.5 C 270.322,151.166 273.156,154.833 271,162.5C 266.837,166.747 263.171,166.414 260,161.5C 258.861,157.579 259.695,154.246 262.5,151.5 Z"/></g>
<g><path style="opacity:1" fill="#b6b5b5" d="M 211.5,151.5 C 214.009,152.675 216.509,152.675 219,151.5C 220.711,151.439 222.044,152.106 223,153.5C 223.499,157.486 223.666,161.486 223.5,165.5C 222.5,165.5 221.5,165.5 220.5,165.5C 220.665,161.818 220.499,158.152 220,154.5C 218.062,153.14 216.396,153.473 215,155.5C 214.502,158.817 214.335,162.15 214.5,165.5C 213.5,165.5 212.5,165.5 211.5,165.5C 211.5,160.833 211.5,156.167 211.5,151.5 Z"/></g>
<g><path style="opacity:1" fill="#acacac" d="M 244.5,151.5 C 246.833,151.5 249.167,151.5 251.5,151.5C 251.5,155.5 251.5,159.5 251.5,163.5C 253.288,163.215 254.955,163.548 256.5,164.5C 252.167,165.833 247.833,165.833 243.5,164.5C 245.396,163.534 247.396,163.201 249.5,163.5C 249.5,160.167 249.5,156.833 249.5,153.5C 247.219,153.923 245.552,153.256 244.5,151.5 Z"/></g>
<g><path style="opacity:1" fill="#b5b5b6" d="M 275.5,151.5 C 278.85,151.335 282.183,151.502 285.5,152C 286,152.5 286.5,153 287,153.5C 287.499,157.486 287.666,161.486 287.5,165.5C 286.5,165.5 285.5,165.5 284.5,165.5C 284.665,161.818 284.499,158.152 284,154.5C 282.062,153.14 280.396,153.473 279,155.5C 278.502,158.817 278.335,162.15 278.5,165.5C 277.5,165.5 276.5,165.5 275.5,165.5C 275.5,160.833 275.5,156.167 275.5,151.5 Z"/></g>
<g><path style="opacity:1" fill="#cbcce1" d="M 11.5,151.5 C 13.3904,151.297 14.8904,151.963 16,153.5C 16.4988,157.486 16.6655,161.486 16.5,165.5C 15.5,165.5 14.5,165.5 13.5,165.5C 13.6653,161.818 13.4986,158.152 13,154.5C 12.3292,153.748 11.4959,153.414 10.5,153.5C 10.3284,152.508 10.6618,151.842 11.5,151.5 Z"/></g>
<g><path style="opacity:1" fill="#f4f5f4" d="M 264.5,153.5 C 267.734,153.237 269.068,154.737 268.5,158C 268.983,162.31 267.316,163.81 263.5,162.5C 261.935,159.192 262.268,156.192 264.5,153.5 Z"/></g>
<g><path style="opacity:1" fill="#afaeae" d="M 358.5,147.5 C 360.176,148.183 360.843,149.517 360.5,151.5C 368.5,152.167 368.5,152.833 360.5,153.5C 360.335,156.518 360.502,159.518 361,162.5C 369.662,164.394 369.495,165.227 360.5,165C 359.667,164.167 358.833,163.333 358,162.5C 357.502,159.518 357.335,156.518 357.5,153.5C 356.325,153.719 355.325,153.386 354.5,152.5C 355.689,151.571 357.022,151.238 358.5,151.5C 358.5,150.167 358.5,148.833 358.5,147.5 Z"/></g>
<g><path style="opacity:1" fill="#b2b2b4" d="M 71.5,151.5 C 78.8247,150.992 81.6581,154.326 80,161.5C 76.8295,166.414 73.1628,166.747 69,162.5C 67.9464,158.345 68.7798,154.678 71.5,151.5 Z"/></g>
<g><path style="opacity:1" fill="#f6f6f5" d="M 73.5,154.5 C 74.8333,154.5 76.1667,154.5 77.5,154.5C 77.6641,157.187 77.4974,159.854 77,162.5C 73.5829,164.036 71.7496,162.869 71.5,159C 71.5186,157.167 72.1852,155.667 73.5,154.5 Z"/></g>
<g><path style="opacity:1" fill="#bababa" d="M 103.5,151.5 C 109.675,150.677 112.675,153.344 112.5,159.5C 99.5981,159.332 99.2648,160.999 111.5,164.5C 108.494,165.748 105.494,165.748 102.5,164.5C 99.7309,159.896 100.064,155.562 103.5,151.5 Z"/></g>
<g><path style="opacity:1" fill="#bbbabb" d="M 198.5,151.5 C 204.675,150.677 207.675,153.344 207.5,159.5C 204.5,159.5 201.5,159.5 198.5,159.5C 198.281,160.675 198.614,161.675 199.5,162.5C 208.742,164.287 208.742,165.121 199.5,165C 194.588,160.797 194.255,156.297 198.5,151.5 Z"/></g>
<g><path style="opacity:1" fill="#bababa" d="M 326.5,151.5 C 332.675,150.677 335.675,153.344 335.5,159.5C 322.598,159.332 322.265,160.999 334.5,164.5C 325.179,166.677 321.679,163.011 324,153.5C 324.995,152.934 325.828,152.267 326.5,151.5 Z"/></g>
<g><path style="opacity:1" fill="#b2b2b3" d="M 164.5,151.5 C 166.716,152.203 168.549,153.536 170,155.5C 171.34,154.132 172.674,152.799 174,151.5C 174.5,151.833 175,152.167 175.5,152.5C 174.167,154.5 172.833,156.5 171.5,158.5C 173.288,160.576 174.954,162.743 176.5,165C 175.5,165.667 174.5,165.667 173.5,165C 172.213,163.59 171.046,162.09 170,160.5C 168.954,162.09 167.787,163.59 166.5,165C 165.5,165.667 164.5,165.667 163.5,165C 164.937,162.783 166.603,160.783 168.5,159C 167.327,156.35 165.994,153.85 164.5,151.5 Z"/></g>
<g><path style="opacity:1" fill="#acabac" d="M 390.5,151.5 C 398.568,151.798 401.068,155.798 398,163.5C 390.063,166.91 386.73,164.243 388,155.5C 388.48,153.867 389.313,152.534 390.5,151.5 Z"/></g>
<g><path style="opacity:1" fill="#f1f2f2" d="M 391.5,153.5 C 394.83,153.163 396.496,154.663 396.5,158C 396.26,163.281 394.093,164.448 390,161.5C 389.109,158.502 389.609,155.836 391.5,153.5 Z"/></g>
<g><path style="opacity:1" fill="#aeaeae" d="M 374.5,151.5 C 382.322,151.166 385.156,154.833 383,162.5C 379.254,166.393 375.588,166.393 372,162.5C 371.333,159.5 371.333,156.5 372,153.5C 372.995,152.934 373.828,152.267 374.5,151.5 Z"/></g>
<g><path style="opacity:1" fill="#f4f4f4" d="M 375.5,153.5 C 378.83,153.163 380.496,154.663 380.5,158C 380.604,162.249 378.771,163.749 375,162.5C 372.88,159.303 373.047,156.303 375.5,153.5 Z"/></g>
<g><path style="opacity:1" fill="#b5b4b4" d="M 83.5,145.5 C 85.8333,145.5 88.1667,145.5 90.5,145.5C 90.3339,151.176 90.5006,156.843 91,162.5C 92.8254,163.103 94.6587,163.77 96.5,164.5C 93.3884,165.983 90.5551,165.65 88,163.5C 87.5006,158.177 87.334,152.844 87.5,147.5C 85.5168,147.843 84.1834,147.176 83.5,145.5 Z"/></g>
<g><path style="opacity:1" fill="#b2b1b2" d="M 115.5,151.5 C 116.376,151.369 117.043,151.702 117.5,152.5C 118.917,155.67 120.584,158.67 122.5,161.5C 123.59,158.122 124.59,154.789 125.5,151.5C 126.675,151.281 127.675,151.614 128.5,152.5C 126.654,158.538 124.321,164.372 121.5,170C 119.55,171.496 117.55,171.663 115.5,170.5C 117.872,169.653 119.872,168.319 121.5,166.5C 118.474,161.842 116.474,156.842 115.5,151.5 Z"/></g>
<g><path style="opacity:1" fill="#aeacae" d="M 148.5,146.5 C 152.555,146.176 156.555,146.509 160.5,147.5C 157.232,148.487 153.898,148.82 150.5,148.5C 150.5,150.833 150.5,153.167 150.5,155.5C 159.833,155.833 159.833,156.167 150.5,156.5C 150.5,158.833 150.5,161.167 150.5,163.5C 153.898,163.18 157.232,163.513 160.5,164.5C 156.555,165.491 152.555,165.824 148.5,165.5C 148.5,159.167 148.5,152.833 148.5,146.5 Z"/></g>
<g><path style="opacity:1" fill="#aeaeaf" d="M 230.5,151.5 C 233.247,151.187 235.914,151.52 238.5,152.5C 235.816,152.976 233.483,153.976 231.5,155.5C 233.793,157.052 236.293,158.385 239,159.5C 239.76,164.074 237.76,166.074 233,165.5C 231.5,165.167 230,164.833 228.5,164.5C 239.158,162.484 239.158,160.484 228.5,158.5C 228.166,155.812 228.832,153.479 230.5,151.5 Z"/></g>
<g><path style="opacity:1" fill="#b4b3b4" d="M 339.5,151.5 C 340.376,151.369 341.043,151.702 341.5,152.5C 342.535,155.998 343.869,159.331 345.5,162.5C 346.751,159.244 347.751,155.91 348.5,152.5C 349.5,151.167 350.5,151.167 351.5,152.5C 350.368,156.563 349.035,160.563 347.5,164.5C 345.955,165.452 344.288,165.785 342.5,165.5C 341.915,160.745 340.915,156.078 339.5,151.5 Z"/></g>
<g><path style="opacity:1" fill="#b8b6b6" d="M 422.5,162.5 C 423.833,162.5 425.167,162.5 426.5,162.5C 426.037,165.482 425.704,168.482 425.5,171.5C 424.5,171.5 423.5,171.5 422.5,171.5C 422.5,168.5 422.5,165.5 422.5,162.5 Z"/></g>
<g><path style="opacity:1" fill="#d4d5e6" d="M 22.5,151.5 C 25.9141,152.247 29.2475,152.247 32.5,151.5C 32.666,156.844 32.4994,162.177 32,167.5C 29.437,171.378 25.937,172.378 21.5,170.5C 23.4233,169.692 25.4233,169.192 27.5,169C 29.4206,167.759 29.754,166.259 28.5,164.5C 25.2195,166.283 22.7195,165.617 21,162.5C 20.013,158.525 20.513,154.859 22.5,151.5 Z"/></g>
<g><path style="opacity:1" fill="#2f262e" d="M 93.5,224.5 C 93.7135,222.856 93.3802,221.356 92.5,220C 89.7234,219.949 87.0567,219.782 84.5,219.5C 87.6034,217.296 90.9367,216.963 94.5,218.5C 95.949,220.912 95.6157,222.912 93.5,224.5 Z"/></g>
<g><path style="opacity:1" fill="#97c7c4" d="M 408.5,216.5 C 410.289,221.407 411.122,226.74 411,232.5C 412.356,233.38 413.856,233.714 415.5,233.5C 415.5,234.5 415.5,235.5 415.5,236.5C 412.941,236.802 410.607,236.468 408.5,235.5C 410.527,235.662 412.527,235.495 414.5,235C 412.273,234.879 410.44,234.046 409,232.5C 408.501,227.177 408.334,221.844 408.5,216.5 Z"/></g>
<g><path style="opacity:1" fill="#301423" d="M 155.5,217.5 C 155.5,223.167 155.5,228.833 155.5,234.5C 156.833,234.5 158.167,234.5 159.5,234.5C 155.833,235.833 152.167,235.833 148.5,234.5C 150.144,234.714 151.644,234.38 153,233.5C 153.499,229.179 153.666,224.846 153.5,220.5C 151.712,220.785 150.045,220.452 148.5,219.5C 150.51,217.829 152.843,217.162 155.5,217.5 Z"/></g>
<g><path style="opacity:1" fill="#327e25" d="M 291.5,217.5 C 294.187,217.336 296.854,217.503 299.5,218C 300.416,218.278 301.082,218.778 301.5,219.5C 303.803,223.586 304.136,227.919 302.5,232.5C 301.694,233.728 300.694,234.728 299.5,235.5C 296.833,235.5 294.167,235.5 291.5,235.5C 291.5,229.5 291.5,223.5 291.5,217.5 Z"/></g>
<g><path style="opacity:1" fill="#4a7e21" d="M 408.5,216.5 C 408.334,221.844 408.501,227.177 409,232.5C 410.44,234.046 412.273,234.879 414.5,235C 412.527,235.495 410.527,235.662 408.5,235.5C 407.883,235.389 407.383,235.056 407,234.5C 406.501,228.843 406.334,223.176 406.5,217.5C 405.127,217.657 403.793,217.49 402.5,217C 404.473,216.505 406.473,216.338 408.5,216.5 Z"/></g>
<g><path style="opacity:1" fill="#8098bf" d="M 155.5,217.5 C 156.488,222.64 156.821,227.974 156.5,233.5C 157.791,233.263 158.791,233.596 159.5,234.5C 158.167,234.5 156.833,234.5 155.5,234.5C 155.5,228.833 155.5,223.167 155.5,217.5 Z"/></g>
<g><path style="opacity:1" fill="#70b9bd" d="M 221.5,215.5 C 222.209,214.596 223.209,214.263 224.5,214.5C 224.498,218.165 223.165,221.165 220.5,223.5C 221.009,220.808 222.009,218.308 223.5,216C 222.906,215.536 222.239,215.369 221.5,215.5 Z"/></g>
<g><path style="opacity:1" fill="#cabe75" d="M 263.5,219.5 C 264.167,224.833 264.833,230.167 265.5,235.5C 265.5,235.833 265.5,236.167 265.5,236.5C 263.55,231.265 262.883,225.598 263.5,219.5 Z"/></g>
<g><path style="opacity:1" fill="#527b13" d="M 267.5,219.5 C 265.554,224.396 264.887,229.729 265.5,235.5C 264.833,230.167 264.167,224.833 263.5,219.5C 261.712,219.785 260.045,219.452 258.5,218.5C 262.833,217.167 267.167,217.167 271.5,218.5C 270.311,219.429 268.978,219.762 267.5,219.5 Z"/></g>
<g><path style="opacity:1" fill="#54aeb5" d="M 267.5,219.5 C 268.117,225.598 267.45,231.265 265.5,236.5C 265.5,236.167 265.5,235.833 265.5,235.5C 264.887,229.729 265.554,224.396 267.5,219.5 Z"/></g>
<g><path style="opacity:1" fill="#ebf0eb" d="M 293.5,219.5 C 299.172,218.643 301.839,220.976 301.5,226.5C 301.358,231.639 298.692,233.972 293.5,233.5C 293.5,228.833 293.5,224.167 293.5,219.5 Z"/></g>
<g><path style="opacity:1" fill="#f4f3e7" d="M 312.5,219.5 C 316.911,219.965 318.578,222.465 317.5,227C 318.004,231.103 316.337,233.603 312.5,234.5C 311.287,234.253 310.62,233.586 310.5,232.5C 309.975,227.86 310.642,223.527 312.5,219.5 Z"/></g>
<g><path style="opacity:1" fill="#757476" d="M 51.5,221.5 C 56.1667,221.5 60.8333,221.5 65.5,221.5C 65.5,222.5 65.5,223.5 65.5,224.5C 60.8333,224.5 56.1667,224.5 51.5,224.5C 51.5,223.5 51.5,222.5 51.5,221.5 Z"/></g>
<g><path style="opacity:1" fill="#7ec4cf" d="M 316.5,217.5 C 318.888,218.219 320.388,219.885 321,222.5C 321.167,223.833 321.333,225.167 321.5,226.5C 321.415,228.333 320.748,229.666 319.5,230.5C 320.037,225.728 319.037,221.395 316.5,217.5 Z"/></g>
<g><path style="opacity:1" fill="#382d41" d="M 184.5,222.5 C 185.5,222.5 186.5,222.5 187.5,222.5C 187.5,223.5 187.5,224.5 187.5,225.5C 186.5,225.5 185.5,225.5 184.5,225.5C 184.5,224.5 184.5,223.5 184.5,222.5 Z"/></g>
<g><path style="opacity:1" fill="#46801d" d="M 327.5,222.5 C 328.5,222.5 329.5,222.5 330.5,222.5C 330.5,223.5 330.5,224.5 330.5,225.5C 329.5,225.5 328.5,225.5 327.5,225.5C 327.5,224.5 327.5,223.5 327.5,222.5 Z"/></g>
<g><path style="opacity:1" fill="#4c8734" d="M 437.5,222.5 C 440.807,222.063 443.807,222.73 446.5,224.5C 444.269,224.887 441.936,225.053 439.5,225C 436.366,231.59 438.7,234.924 446.5,235C 437.152,237.315 433.319,233.815 435,224.5C 435.995,223.934 436.828,223.267 437.5,222.5 Z"/></g>
<g><path style="opacity:1" fill="#2419ff" d="M -0.5,222.5 C 2.02195,224.002 2.02195,225.335 -0.5,226.5C -0.5,225.167 -0.5,223.833 -0.5,222.5 Z"/></g>
<g><path style="opacity:1" fill="#793e1b" d="M 134.5,218.5 C 134.59,221.152 133.924,223.485 132.5,225.5C 132.41,222.848 133.076,220.515 134.5,218.5 Z"/></g>
<g><path style="opacity:1" fill="#473232" d="M 174.5,225.5 C 174.5,228.5 174.5,231.5 174.5,234.5C 171.728,235.767 169.061,235.767 166.5,234.5C 165.89,233.609 165.557,232.609 165.5,231.5C 171.413,235.971 174.08,234.305 173.5,226.5C 170.5,226.5 167.5,226.5 164.5,226.5C 164.5,223.5 164.5,220.5 164.5,217.5C 168.226,217.177 171.893,217.511 175.5,218.5C 173.257,219.474 170.924,219.808 168.5,219.5C 168.5,220.833 168.5,222.167 168.5,223.5C 170.898,223.259 172.898,223.926 174.5,225.5 Z"/></g>
<g><path style="opacity:1" fill="#c9c587" d="M 291.5,217.5 C 291.5,223.5 291.5,229.5 291.5,235.5C 294.167,235.5 296.833,235.5 299.5,235.5C 296.713,236.477 293.713,236.81 290.5,236.5C 290.177,229.978 290.51,223.645 291.5,217.5 Z"/></g>
<g><path style="opacity:1" fill="#85ccd3" d="M 312.5,219.5 C 310.642,223.527 309.975,227.86 310.5,232.5C 309.833,232.167 309.167,231.833 308.5,231.5C 308.5,228.167 308.5,224.833 308.5,221.5C 309.605,220.4 310.938,219.733 312.5,219.5 Z"/></g>
<g><path style="opacity:1" fill="#407d1d" d="M 381.5,223.5 C 381.833,225.5 382.167,227.5 382.5,229.5C 379.5,229.5 376.5,229.5 373.5,229.5C 373.263,230.791 373.596,231.791 374.5,232.5C 374.611,233.117 374.944,233.617 375.5,234C 377.5,234.333 379.5,234.667 381.5,235C 379.19,235.497 376.857,235.663 374.5,235.5C 373.542,234.038 372.376,232.705 371,231.5C 369.987,223.238 373.487,220.571 381.5,223.5 Z"/></g>
<g><path style="opacity:1" fill="#966382" d="M 21.5,224.5 C 21.8746,228.442 22.8746,232.109 24.5,235.5C 23.791,236.404 22.791,236.737 21.5,236.5C 21.5,232.5 21.5,228.5 21.5,224.5 Z"/></g>
<g><path style="opacity:1" fill="#4e8525" d="M 277.5,217.5 C 281.287,216.814 284.454,217.814 287,220.5C 287.667,224.5 287.667,228.5 287,232.5C 283,236.5 279,236.5 275,232.5C 274.333,228.5 274.333,224.5 275,220.5C 276.045,219.627 276.878,218.627 277.5,217.5 Z"/></g>
<g><path style="opacity:1" fill="#7fc2cc" d="M 279.5,220.5 C 278.489,224.112 278.322,227.779 279,231.5C 279.816,232.823 280.983,233.489 282.5,233.5C 280.243,234.803 278.41,234.136 277,231.5C 276.333,228.5 276.333,225.5 277,222.5C 277.417,221.244 278.25,220.577 279.5,220.5 Z"/></g>
<g><path style="opacity:1" fill="#f9f8f0" d="M 282.5,233.5 C 280.983,233.489 279.816,232.823 279,231.5C 278.322,227.779 278.489,224.112 279.5,220.5C 281.017,219.265 282.684,219.265 284.5,220.5C 285.657,223.784 285.824,227.118 285,230.5C 284.623,231.942 283.79,232.942 282.5,233.5 Z"/></g>
<g><path style="opacity:1" fill="#4aa59a" d="M 301.5,219.5 C 302.496,219.414 303.329,219.748 304,220.5C 304.167,222.5 304.333,224.5 304.5,226.5C 304.461,228.952 303.794,230.952 302.5,232.5C 304.136,227.919 303.803,223.586 301.5,219.5 Z"/></g>
<g><path style="opacity:1" fill="#3a7a20" d="M 359.5,222.5 C 359.369,223.239 359.536,223.906 360,224.5C 362.853,221.682 365.353,221.848 367.5,225C 367.167,225.5 366.833,226 366.5,226.5C 364.326,223.919 362.16,223.919 360,226.5C 359.333,228.833 359.333,231.167 360,233.5C 361.067,234.191 362.234,234.691 363.5,235C 363.272,235.399 362.938,235.565 362.5,235.5C 359.813,235.664 357.146,235.497 354.5,235C 355.448,234.517 356.448,234.351 357.5,234.5C 358.044,230.327 357.377,226.494 355.5,223C 356.793,222.51 358.127,222.343 359.5,222.5 Z"/></g>
<g><path style="opacity:1" fill="#d6e3d9" d="M 374.5,224.5 C 378.241,223.599 380.241,224.932 380.5,228.5C 377.753,228.813 375.086,228.48 372.5,227.5C 373.193,226.482 373.859,225.482 374.5,224.5 Z"/></g>
<g><path style="opacity:1" fill="#36459c" d="M 19.5,223.5 C 22.7131,223.19 25.7131,223.523 28.5,224.5C 27.1667,224.5 25.8333,224.5 24.5,224.5C 24.5,228.167 24.5,231.833 24.5,235.5C 22.8746,232.109 21.8746,228.442 21.5,224.5C 20.5084,224.672 19.8417,224.338 19.5,223.5 Z"/></g>
<g><path style="opacity:1" fill="#35344f" d="M 93.5,224.5 C 93.3893,225.117 93.056,225.617 92.5,226C 94.448,227.439 95.7814,229.272 96.5,231.5C 96.2528,232.713 95.5862,233.38 94.5,233.5C 94.7678,231.901 94.4345,230.568 93.5,229.5C 91.7451,228.208 89.7451,227.208 87.5,226.5C 89.4109,225.523 91.4109,224.857 93.5,224.5 Z"/></g>
<g><path style="opacity:1" fill="#7b9227" d="M 308.5,219.5 C 308.5,220.167 308.5,220.833 308.5,221.5C 308.5,224.833 308.5,228.167 308.5,231.5C 308.5,232.167 308.5,232.833 308.5,233.5C 307.195,231.603 306.529,229.269 306.5,226.5C 306.529,223.731 307.195,221.397 308.5,219.5 Z"/></g>
<g><path style="opacity:1" fill="#b7c18d" d="M 359.5,222.5 C 358.127,222.343 356.793,222.51 355.5,223C 357.377,226.494 358.044,230.327 357.5,234.5C 356.448,234.351 355.448,234.517 354.5,235C 357.146,235.497 359.813,235.664 362.5,235.5C 359.713,236.477 356.713,236.81 353.5,236.5C 353.5,235.5 353.5,234.5 353.5,233.5C 354.5,233.5 355.5,233.5 356.5,233.5C 356.68,229.318 356.013,225.318 354.5,221.5C 356.415,221.216 358.081,221.549 359.5,222.5 Z"/></g>
<g><path style="opacity:1" fill="#62aba7" d="M 396.5,222.5 C 398.017,222.511 399.184,223.177 400,224.5C 400.667,227.5 400.667,230.5 400,233.5C 397.586,236.48 394.752,237.147 391.5,235.5C 394.044,235.896 396.211,235.229 398,233.5C 398.987,229.525 398.487,225.859 396.5,222.5 Z"/></g>
<g><path style="opacity:1" fill="#1b2288" d="M 19.5,223.5 C 19.5,223.167 19.5,222.833 19.5,222.5C 23.8461,222.334 28.1794,222.501 32.5,223C 31.267,224.698 30.6004,226.698 30.5,229C 30.6004,231.302 31.267,233.302 32.5,235C 31.0715,235.579 29.7382,235.412 28.5,234.5C 28.5,231.167 28.5,227.833 28.5,224.5C 25.7131,223.523 22.7131,223.19 19.5,223.5 Z"/></g>
<g><path style="opacity:1" fill="#478329" d="M 428.5,223.5 C 428.741,227.632 429.741,231.466 431.5,235C 430.072,235.579 428.738,235.412 427.5,234.5C 427.565,234.062 427.399,233.728 427,233.5C 425.484,236.006 423.318,236.84 420.5,236C 417.833,233.333 417.833,230.667 420.5,228C 428.207,227.159 428.207,225.659 420.5,223.5C 423.156,222.386 425.823,222.386 428.5,223.5 Z"/></g>
<g><path style="opacity:1" fill="#2e2624" d="M 132.5,225.5 C 133.924,223.485 134.59,221.152 134.5,218.5C 135.335,221.994 135.335,225.66 134.5,229.5C 136.5,229.5 138.5,229.5 140.5,229.5C 140.176,225.445 140.509,221.445 141.5,217.5C 141.972,222.028 142.972,226.361 144.5,230.5C 143.248,232.001 142.248,233.668 141.5,235.5C 140.571,234.311 140.238,232.978 140.5,231.5C 137.5,231.5 134.5,231.5 131.5,231.5C 131.325,229.379 131.659,227.379 132.5,225.5 Z"/></g>
<g><path style="opacity:1" fill="#2b3f65" d="M 174.5,225.5 C 176.026,226.492 176.693,227.992 176.5,230C 176.693,232.008 176.026,233.508 174.5,234.5C 174.5,231.5 174.5,228.5 174.5,225.5 Z"/></g>
<g><path style="opacity:1" fill="#7a9637" d="M 221.5,215.5 C 222.239,215.369 222.906,215.536 223.5,216C 222.009,218.308 221.009,220.808 220.5,223.5C 217.931,227.946 215.764,232.612 214,237.5C 213.107,238.711 212.274,238.711 211.5,237.5C 214.653,229.932 217.987,222.599 221.5,215.5 Z"/></g>
<g><path style="opacity:1" fill="#5b882a" d="M 236.5,215.5 C 237.552,215.351 238.552,215.517 239.5,216C 235.961,223.577 232.295,231.077 228.5,238.5C 228.167,238.167 227.833,237.833 227.5,237.5C 229.656,233.533 231.323,229.366 232.5,225C 235.497,222.512 236.83,219.346 236.5,215.5 Z"/></g>
<g><path style="opacity:1" fill="#73ae92" d="M 381.5,223.5 C 382.117,223.611 382.617,223.944 383,224.5C 383.495,226.473 383.662,228.473 383.5,230.5C 379.988,229.945 376.988,230.612 374.5,232.5C 373.596,231.791 373.263,230.791 373.5,229.5C 376.5,229.5 379.5,229.5 382.5,229.5C 382.167,227.5 381.833,225.5 381.5,223.5 Z"/></g>
<g><path style="opacity:1" fill="#337f31" d="M 388.5,222.5 C 391.167,222.5 393.833,222.5 396.5,222.5C 398.487,225.859 398.987,229.525 398,233.5C 396.211,235.229 394.044,235.896 391.5,235.5C 390.883,235.389 390.383,235.056 390,234.5C 389.297,236.929 389.463,239.262 390.5,241.5C 388.544,235.588 387.877,229.255 388.5,222.5 Z"/></g>
<g><path style="opacity:1" fill="#e5efeb" d="M 391.5,224.5 C 393.167,224.5 394.833,224.5 396.5,224.5C 396.664,227.187 396.497,229.854 396,232.5C 391.907,235.448 389.74,234.281 389.5,229C 389.759,227.213 390.425,225.713 391.5,224.5 Z"/></g>
<g><path style="opacity:1" fill="#444245" d="M 51.5,229.5 C 56.2137,229.173 60.8804,229.507 65.5,230.5C 63.1667,230.833 60.8333,231.167 58.5,231.5C 55.7305,231.471 53.3972,230.805 51.5,229.5 Z"/></g>
<g><path style="opacity:1" fill="#714825" d="M 165.5,231.5 C 165.557,232.609 165.89,233.609 166.5,234.5C 163.725,234.166 163.059,232.833 164.5,230.5C 165.107,230.624 165.44,230.957 165.5,231.5 Z"/></g>
<g><path style="opacity:1" fill="#c6e0e2" d="M 420.5,230.5 C 422.604,230.201 424.604,230.534 426.5,231.5C 423.54,235.727 421.54,235.394 420.5,230.5 Z"/></g>
<g><path style="opacity:1" fill="#8ab499" d="M 374.5,232.5 C 377.096,233.265 379.763,233.599 382.5,233.5C 382.5,234.5 382.5,235.5 382.5,236.5C 379.615,236.806 376.948,236.473 374.5,235.5C 376.857,235.663 379.19,235.497 381.5,235C 379.5,234.667 377.5,234.333 375.5,234C 374.944,233.617 374.611,233.117 374.5,232.5 Z"/></g>
<g><path style="opacity:1" fill="#23120a" d="M 93.5,229.5 C 94.4345,230.568 94.7678,231.901 94.5,233.5C 94.0825,234.222 93.4158,234.722 92.5,235C 89.8333,235.667 87.1667,235.667 84.5,235C 86.8333,234.667 89.1667,234.333 91.5,234C 93.0368,232.89 93.7035,231.39 93.5,229.5 Z"/></g>
<g><path style="opacity:1" fill="#292d5b" d="M 105.5,232.5 C 106.5,232.5 107.5,232.5 108.5,232.5C 108.5,233.5 108.5,234.5 108.5,235.5C 107.5,235.5 106.5,235.5 105.5,235.5C 105.5,234.5 105.5,233.5 105.5,232.5 Z"/></g>
<g><path style="opacity:1" fill="#1d160e" d="M 123.5,217.5 C 123.5,223.167 123.5,228.833 123.5,234.5C 124.873,234.343 126.207,234.51 127.5,235C 123.848,235.499 120.182,235.665 116.5,235.5C 117.919,234.549 119.585,234.216 121.5,234.5C 121.5,229.833 121.5,225.167 121.5,220.5C 120.022,220.762 118.689,220.429 117.5,219.5C 119.173,217.914 121.173,217.247 123.5,217.5 Z"/></g>
<g><path style="opacity:1" fill="#397e28" d="M 316.5,217.5 C 319.037,221.395 320.037,225.728 319.5,230.5C 318.358,235.38 315.358,237.214 310.5,236C 309.619,235.292 308.953,234.458 308.5,233.5C 308.5,232.833 308.5,232.167 308.5,231.5C 309.167,231.833 309.833,232.167 310.5,232.5C 310.62,233.586 311.287,234.253 312.5,234.5C 316.337,233.603 318.004,231.103 317.5,227C 318.578,222.465 316.911,219.965 312.5,219.5C 310.938,219.733 309.605,220.4 308.5,221.5C 308.5,220.833 308.5,220.167 308.5,219.5C 308.611,218.883 308.944,218.383 309.5,218C 311.81,217.503 314.143,217.337 316.5,217.5 Z"/></g>
<g><path style="opacity:1" fill="#798109" d="M 388.5,222.5 C 387.877,229.255 388.544,235.588 390.5,241.5C 389.791,242.404 388.791,242.737 387.5,242.5C 387.176,235.646 387.509,228.979 388.5,222.5 Z"/></g>
<g><path style="opacity:1" fill="#a6bbd6" d="M 19.5,222.5 C 23.97,221.514 28.6367,221.181 33.5,221.5C 31.987,225.318 31.3204,229.318 31.5,233.5C 32.5,233.5 33.5,233.5 34.5,233.5C 34.5,234.5 34.5,235.5 34.5,236.5C 31.9179,236.975 29.9179,236.308 28.5,234.5C 29.7382,235.412 31.0715,235.579 32.5,235C 31.267,233.302 30.6004,231.302 30.5,229C 30.6004,226.698 31.267,224.698 32.5,223C 28.1794,222.501 23.8461,222.334 19.5,222.5 Z"/></g>
<g><path style="opacity:1" fill="#7b8e9d" d="M 123.5,217.5 C 124.488,222.64 124.821,227.974 124.5,233.5C 125.833,233.5 127.167,233.5 128.5,233.5C 128.5,234.5 128.5,235.5 128.5,236.5C 124.298,236.817 120.298,236.483 116.5,235.5C 120.182,235.665 123.848,235.499 127.5,235C 126.207,234.51 124.873,234.343 123.5,234.5C 123.5,228.833 123.5,223.167 123.5,217.5 Z"/></g>
<g><path style="opacity:1" fill="#858384" d="M 148.5,234.5 C 152.167,235.833 155.833,235.833 159.5,234.5C 160.043,234.56 160.376,234.893 160.5,235.5C 156.167,236.833 151.833,236.833 147.5,235.5C 147.624,234.893 147.957,234.56 148.5,234.5 Z"/></g>
<g><path style="opacity:1" fill="#779a55" d="M 327.5,232.5 C 328.5,232.5 329.5,232.5 330.5,232.5C 330.5,233.833 330.5,235.167 330.5,236.5C 329.5,236.5 328.5,236.5 327.5,236.5C 327.5,235.167 327.5,233.833 327.5,232.5 Z"/></g>
<g><path style="opacity:1" fill="#96cac3" d="M 428.5,223.5 C 429.117,223.611 429.617,223.944 430,224.5C 430.498,227.482 430.665,230.482 430.5,233.5C 431.5,233.5 432.5,233.5 433.5,233.5C 433.5,234.5 433.5,235.5 433.5,236.5C 430.918,236.975 428.918,236.308 427.5,234.5C 428.738,235.412 430.072,235.579 431.5,235C 429.741,231.466 428.741,227.632 428.5,223.5 Z"/></g>
<g><path style="opacity:1" fill="#6583b0" d="M 184.5,232.5 C 185.5,232.5 186.5,232.5 187.5,232.5C 187.663,234.857 187.497,237.19 187,239.5C 186.764,241.119 185.931,242.119 184.5,242.5C 185.833,239.167 185.833,235.833 184.5,232.5 Z"/></g>
<g><path style="opacity:1" fill="#8f5e3e" d="M 184.5,232.5 C 185.833,235.833 185.833,239.167 184.5,242.5C 183.167,239.167 183.167,235.833 184.5,232.5 Z"/></g>
<g><path style="opacity:1" fill="#ff4942" d="M 387.5,242.5 C 388.791,242.737 389.791,242.404 390.5,241.5C 392.736,242.389 394.736,243.722 396.5,245.5C 398.309,243.512 400.476,242.178 403,241.5C 405.217,242.047 407.217,243.047 409,244.5C 410.999,243.502 412.999,242.502 415,241.5C 417.271,242.271 419.438,243.271 421.5,244.5C 423.562,243.271 425.729,242.271 428,241.5C 430.271,242.271 432.438,243.271 434.5,244.5C 436.5,243.5 438.5,242.5 440.5,241.5C 442.765,242.432 444.765,243.765 446.5,245.5C 446.5,245.833 446.5,246.167 446.5,246.5C 444.264,245.611 442.264,244.278 440.5,242.5C 438.691,244.488 436.524,245.822 434,246.5C 431.783,245.953 429.783,244.953 428,243.5C 426.217,244.953 424.217,245.953 422,246.5C 419.729,245.729 417.562,244.729 415.5,243.5C 413.438,244.729 411.271,245.729 409,246.5C 406.783,245.953 404.783,244.953 403,243.5C 401.217,244.953 399.217,245.953 397,246.5C 394.729,245.729 392.562,244.729 390.5,243.5C 388.438,244.729 386.271,245.729 384,246.5C 381.783,245.953 379.783,244.953 378,243.5C 376.001,244.498 374.001,245.498 372,246.5C 369.694,245.551 367.361,244.551 365,243.5C 363.217,244.953 361.217,245.953 359,246.5C 356.476,245.822 354.309,244.488 352.5,242.5C 350.691,244.488 348.524,245.822 346,246.5C 343.783,245.953 341.783,244.953 340,243.5C 338.217,244.953 336.217,245.953 334,246.5C 331.729,245.729 329.562,244.729 327.5,243.5C 325.438,244.729 323.271,245.729 321,246.5C 318.476,245.822 316.309,244.488 314.5,242.5C 312.877,246.058 310.21,247.224 306.5,246C 305.541,244.536 304.208,243.703 302.5,243.5C 300.438,244.729 298.271,245.729 296,246.5C 293.476,245.822 291.309,244.488 289.5,242.5C 287.857,244.154 286.024,245.487 284,246.5C 281.729,245.729 279.562,244.729 277.5,243.5C 275.438,244.729 273.271,245.729 271,246.5C 268.476,245.822 266.309,244.488 264.5,242.5C 262.747,244.261 260.747,245.594 258.5,246.5C 256.5,245.5 254.5,244.5 252.5,243.5C 250.438,244.729 248.271,245.729 246,246.5C 243.476,245.822 241.309,244.488 239.5,242.5C 238.019,243.48 236.685,244.647 235.5,246C 233.833,246.667 232.167,246.667 230.5,246C 229.601,244.764 228.434,243.93 227,243.5C 225.217,244.953 223.217,245.953 221,246.5C 218.476,245.822 216.309,244.488 214.5,242.5C 213.522,242.977 212.689,243.643 212,244.5C 211.462,242.527 212.296,241.527 214.5,241.5C 216.5,242.5 218.5,243.5 220.5,244.5C 222.208,244.297 223.541,243.464 224.5,242C 226.167,241.333 227.833,241.333 229.5,242C 230.685,243.353 232.019,244.52 233.5,245.5C 235.253,243.739 237.253,242.406 239.5,241.5C 241.571,242.618 243.738,243.618 246,244.5C 247.434,244.07 248.601,243.236 249.5,242C 251.167,241.333 252.833,241.333 254.5,242C 255.685,243.353 257.019,244.52 258.5,245.5C 260.253,243.739 262.253,242.406 264.5,241.5C 266.571,242.618 268.738,243.618 271,244.5C 272.434,244.07 273.601,243.236 274.5,242C 276.167,241.333 277.833,241.333 279.5,242C 280.685,243.353 282.019,244.52 283.5,245.5C 285.309,243.512 287.476,242.178 290,241.5C 292.217,242.047 294.217,243.047 296,244.5C 297.434,244.07 298.601,243.236 299.5,242C 301.167,241.333 302.833,241.333 304.5,242C 305.685,243.353 307.019,244.52 308.5,245.5C 312.833,240.167 317.167,240.167 321.5,245.5C 323.253,243.739 325.253,242.406 327.5,241.5C 329.747,242.406 331.747,243.739 333.5,245.5C 335.309,243.512 337.476,242.178 340,241.5C 342.271,242.271 344.438,243.271 346.5,244.5C 348.5,243.5 350.5,242.5 352.5,241.5C 354.711,242.685 357.045,243.685 359.5,244.5C 363.802,240.355 367.802,240.688 371.5,245.5C 373.253,243.739 375.253,242.406 377.5,241.5C 379.571,242.618 381.738,243.618 384,244.5C 385.303,244.022 386.469,243.355 387.5,242.5 Z"/></g>
<g><path style="opacity:1" fill="#d3d1cf" d="M 220.5,287.5 C 221.5,287.5 222.5,287.5 223.5,287.5C 223.5,294.5 223.5,301.5 223.5,308.5C 221.876,308.64 220.71,307.973 220,306.5C 217.084,308.013 214.418,307.68 212,305.5C 211.333,302.167 211.333,298.833 212,295.5C 214.667,292.833 217.333,292.833 220,295.5C 220.497,292.854 220.664,290.187 220.5,287.5 Z"/></g>
<g><path style="opacity:1" fill="#bbbbc4" d="M 36.5,289.5 C 40.5546,289.176 44.5546,289.509 48.5,290.5C 46.9547,291.452 45.288,291.785 43.5,291.5C 43.5,296.167 43.5,300.833 43.5,305.5C 45.288,305.215 46.9547,305.548 48.5,306.5C 44.5,307.833 40.5,307.833 36.5,306.5C 38.0453,305.548 39.712,305.215 41.5,305.5C 41.5,300.833 41.5,296.167 41.5,291.5C 39.2188,291.923 37.5521,291.256 36.5,289.5 Z"/></g>
<g><path style="opacity:1" fill="#c5ced2" d="M 100.5,289.5 C 102.369,291.635 103.036,294.302 102.5,297.5C 104.833,297.5 107.167,297.5 109.5,297.5C 109.5,294.833 109.5,292.167 109.5,289.5C 110.5,289.5 111.5,289.5 112.5,289.5C 112.5,295.5 112.5,301.5 112.5,307.5C 111.5,307.5 110.5,307.5 109.5,307.5C 109.5,304.833 109.5,302.167 109.5,299.5C 107.167,299.5 104.833,299.5 102.5,299.5C 102.813,302.247 102.48,304.914 101.5,307.5C 100.504,301.537 100.171,295.537 100.5,289.5 Z"/></g>
<g><path style="opacity:1" fill="#cec3c2" d="M 322.5,287.5 C 324.833,287.5 327.167,287.5 329.5,287.5C 329.334,293.176 329.501,298.843 330,304.5C 331.825,305.103 333.659,305.77 335.5,306.5C 332.388,307.983 329.555,307.65 327,305.5C 326.501,300.511 326.334,295.511 326.5,290.5C 325.167,290.5 323.833,290.5 322.5,290.5C 322.5,289.5 322.5,288.5 322.5,287.5 Z"/></g>
<g><path style="opacity:1" fill="#d7d3d0" d="M 178.5,288.5 C 183.167,288.5 187.833,288.5 192.5,288.5C 192.5,289.5 192.5,290.5 192.5,291.5C 190.5,291.5 188.5,291.5 186.5,291.5C 186.5,296.833 186.5,302.167 186.5,307.5C 185.5,307.5 184.5,307.5 183.5,307.5C 183.5,302.167 183.5,296.833 183.5,291.5C 181.833,291.5 180.167,291.5 178.5,291.5C 178.5,290.5 178.5,289.5 178.5,288.5 Z"/></g>
<g><path style="opacity:1" fill="#c9bcbd" d="M 403.5,289.5 C 407.584,289.043 411.417,289.71 415,291.5C 417.157,299.696 413.99,303.029 405.5,301.5C 405.799,303.604 405.466,305.604 404.5,307.5C 403.504,301.537 403.171,295.537 403.5,289.5 Z"/></g>
<g><path style="opacity:1" fill="#f7f6f6" d="M 405.5,291.5 C 409.367,290.775 412.034,292.108 413.5,295.5C 412.034,298.892 409.367,300.225 405.5,299.5C 405.5,296.833 405.5,294.167 405.5,291.5 Z"/></g>
<g><path style="opacity:1" fill="#d4cbcb" d="M 294.5,293.5 C 300.429,293.103 303.429,295.77 303.5,301.5C 290.598,301.332 290.265,302.999 302.5,306.5C 293.686,308.854 290.186,305.521 292,296.5C 292.698,295.309 293.531,294.309 294.5,293.5 Z"/></g>
<g><path style="opacity:1" fill="#d2d9dc" d="M 151.5,293.5 C 157.957,293.204 160.957,296.204 160.5,302.5C 148.912,302.446 148.578,303.779 159.5,306.5C 156.423,307.799 153.423,307.632 150.5,306C 147.772,301.594 148.105,297.428 151.5,293.5 Z"/></g>
<g><path style="opacity:1" fill="#d8cfcf" d="M 373.5,293.5 C 380.063,292.984 383.396,295.984 383.5,302.5C 380.428,302.183 377.428,302.516 374.5,303.5C 374.709,304.086 375.043,304.586 375.5,305C 377.81,305.497 380.143,305.663 382.5,305.5C 382.5,306.5 382.5,307.5 382.5,308.5C 371.053,308.608 368.053,303.608 373.5,293.5 Z"/></g>
<g><path style="opacity:1" fill="#c4c0bc" d="M 230.5,293.5 C 238.381,293.218 241.214,296.884 239,304.5C 235.818,308.057 232.318,308.391 228.5,305.5C 226.774,300.98 227.441,296.98 230.5,293.5 Z"/></g>
<g><path style="opacity:1" fill="#f8f8f8" d="M 232.5,296.5 C 235.734,296.237 237.068,297.737 236.5,301C 236.623,305.26 234.79,306.426 231,304.5C 230.133,301.479 230.633,298.812 232.5,296.5 Z"/></g>
<g><path style="opacity:1" fill="#ccc0c0" d="M 307.5,293.5 C 309.823,294.815 312.157,294.815 314.5,293.5C 316.58,293.686 318.08,294.686 319,296.5C 319.667,299.5 319.667,302.5 319,305.5C 316.582,307.68 313.916,308.013 311,306.5C 310.503,308.81 310.337,311.143 310.5,313.5C 309.5,313.5 308.5,313.5 307.5,313.5C 307.5,306.833 307.5,300.167 307.5,293.5 Z"/></g>
<g><path style="opacity:1" fill="#f8f8f7" d="M 311.5,296.5 C 317.067,295.753 318.9,298.087 317,303.5C 315.267,305.602 313.267,305.935 311,304.5C 310.278,301.739 310.445,299.073 311.5,296.5 Z"/></g>
<g><path style="opacity:1" fill="#d2d9dc" d="M 119.5,293.5 C 126.756,293.19 129.589,296.524 128,303.5C 125.947,307.292 122.781,308.458 118.5,307C 115.64,302.246 115.973,297.746 119.5,293.5 Z"/></g>
<g><path style="opacity:1" fill="#cec2c2" d="M 358.5,293.5 C 360.857,293.337 363.19,293.503 365.5,294C 366.973,294.71 367.64,295.876 367.5,297.5C 359.996,293.997 357.329,296.331 359.5,304.5C 361.854,305.06 364.187,305.727 366.5,306.5C 357.917,309.179 354.084,306.179 355,297.5C 356.376,296.295 357.542,294.962 358.5,293.5 Z"/></g>
<g><path style="opacity:1" fill="#c1c1c8" d="M 20.5,288.5 C 23.8984,288.18 27.2317,288.513 30.5,289.5C 35.5008,297.487 33.1675,301.487 23.5,301.5C 23.5,303.5 23.5,305.5 23.5,307.5C 22.5,307.5 21.5,307.5 20.5,307.5C 20.5,301.167 20.5,294.833 20.5,288.5 Z"/></g>
<g><path style="opacity:1" fill="#f8f9f9" d="M 23.5,291.5 C 29.5011,290.561 31.5011,292.895 29.5,298.5C 27.5914,299.348 25.5914,299.682 23.5,299.5C 23.5,296.833 23.5,294.167 23.5,291.5 Z"/></g>
<g><path style="opacity:1" fill="#b5b4b6" d="M 250.5,286.5 C 251.978,286.238 253.311,286.571 254.5,287.5C 249.89,289.61 247.89,293.277 248.5,298.5C 247.89,303.723 249.89,307.39 254.5,309.5C 251.772,310.94 249.605,310.274 248,307.5C 244.98,301.228 244.98,294.895 248,288.5C 248.995,287.934 249.828,287.267 250.5,286.5 Z"/></g>
<g><path style="opacity:1" fill="#c7d0d3" d="M 131.5,287.5 C 133.833,287.5 136.167,287.5 138.5,287.5C 138.334,293.176 138.501,298.843 139,304.5C 140.825,305.103 142.659,305.77 144.5,306.5C 141.388,307.983 138.555,307.65 136,305.5C 135.501,300.511 135.334,295.511 135.5,290.5C 134.167,290.5 132.833,290.5 131.5,290.5C 131.5,289.5 131.5,288.5 131.5,287.5 Z"/></g>
<g><path style="opacity:1" fill="#c1bdb9" d="M 198.5,293.5 C 206.322,293.166 209.156,296.833 207,304.5C 203.38,308.487 199.713,308.487 196,304.5C 194.812,300.259 195.645,296.592 198.5,293.5 Z"/></g>
<g><path style="opacity:1" fill="#f5f5f4" d="M 199.5,296.5 C 205.643,297.026 206.976,299.86 203.5,305C 201.888,305.72 200.388,305.554 199,304.5C 198.278,301.739 198.445,299.073 199.5,296.5 Z"/></g>
<g><path style="opacity:1" fill="#cec3c2" d="M 274.5,293.5 C 277.079,293.083 279.246,293.75 281,295.5C 282.884,293.424 285.051,293.09 287.5,294.5C 288.246,295.736 288.579,297.07 288.5,298.5C 286.519,297.652 284.519,297.152 282.5,297C 280.66,299.826 279.994,302.993 280.5,306.5C 281.227,307.908 279.227,307.908 274.5,306.5C 275.325,305.614 276.325,305.281 277.5,305.5C 277.5,302.167 277.5,298.833 277.5,295.5C 275.821,295.715 274.821,295.048 274.5,293.5 Z"/></g>
<g><path style="opacity:1" fill="#d4caca" d="M 340.5,293.5 C 344.287,292.814 347.454,293.814 350,296.5C 350.037,300.089 350.87,303.422 352.5,306.5C 348.621,306.927 344.288,306.927 339.5,306.5C 338.369,304.926 338.202,303.259 339,301.5C 341.574,299.998 344.407,298.998 347.5,298.5C 345.284,296.498 342.951,294.831 340.5,293.5 Z"/></g>
<g><path style="opacity:1" fill="#cabebe" d="M 431.5,306.5 C 431.5,306.833 431.5,307.167 431.5,307.5C 425.247,308.23 422.581,307.896 423.5,306.5C 423.5,301.167 423.5,295.833 423.5,290.5C 424.5,289.167 425.5,289.167 426.5,290.5C 426.5,295.5 426.5,300.5 426.5,305.5C 428.415,305.216 430.081,305.549 431.5,306.5 Z"/></g>
<g><path style="opacity:1" fill="#c9bcbc" d="M 227.5,358.5 C 229.5,358.5 231.5,358.5 233.5,358.5C 233.334,364.176 233.501,369.843 234,375.5C 235.825,376.103 237.659,376.77 239.5,377.5C 236.718,378.952 234.218,378.619 232,376.5C 231.501,371.177 231.334,365.844 231.5,360.5C 229.517,360.843 228.183,360.176 227.5,358.5 Z"/></g>
<g><path style="opacity:1" fill="#cdc9c7" d="M 70.5,364.5 C 77.1755,363.186 80.5088,365.853 80.5,372.5C 67.5981,372.332 67.2648,373.999 79.5,377.5C 70.8497,379.682 67.0164,376.349 68,367.5C 69.045,366.627 69.8783,365.627 70.5,364.5 Z"/></g>
<g><path style="opacity:1" fill="#d4caca" d="M 294.5,364.5 C 300.706,363.711 303.706,366.378 303.5,372.5C 300.5,372.5 297.5,372.5 294.5,372.5C 294.281,373.675 294.614,374.675 295.5,375.5C 297.854,376.06 300.187,376.727 302.5,377.5C 293.179,379.677 289.679,376.011 292,366.5C 292.995,365.934 293.828,365.267 294.5,364.5 Z"/></g>
<g><path style="opacity:1" fill="#d5cacc" d="M 396.5,365.5 C 393.871,369.463 390.871,373.129 387.5,376.5C 387.5,372.5 387.5,368.5 387.5,364.5C 390.536,364.687 393.536,365.02 396.5,365.5 Z"/></g>
<g><path style="opacity:1" fill="#cabdbd" d="M 260.5,364.5 C 262.833,364.5 265.167,364.5 267.5,364.5C 267.5,368.5 267.5,372.5 267.5,376.5C 269.288,376.215 270.955,376.548 272.5,377.5C 268.167,378.833 263.833,378.833 259.5,377.5C 261.396,376.534 263.396,376.201 265.5,376.5C 265.5,373.167 265.5,369.833 265.5,366.5C 263.219,366.923 261.552,366.256 260.5,364.5 Z"/></g>
<g><path style="opacity:1" fill="#cec3c2" d="M 358.5,364.5 C 361.807,364.063 364.807,364.73 367.5,366.5C 364.833,366.833 362.167,367.167 359.5,367.5C 357.056,374.067 359.389,377.4 366.5,377.5C 357.85,379.682 354.016,376.349 355,367.5C 356.145,366.364 357.312,365.364 358.5,364.5 Z"/></g>
<g><path style="opacity:0.909" fill="#f9f9f9" d="M 59.5,376.5 C 57.3674,374.909 55.7007,372.909 54.5,370.5C 54.7007,366.65 56.5341,365.65 60,367.5C 60.7358,370.592 60.5691,373.592 59.5,376.5 Z"/></g>
<g><path style="opacity:1" fill="#ccbfbf" d="M 163.5,364.5 C 167.132,364.72 170.799,365.053 174.5,365.5C 175.492,369.783 175.826,374.116 175.5,378.5C 174.5,378.5 173.5,378.5 172.5,378.5C 172.665,374.818 172.499,371.152 172,367.5C 170.062,366.14 168.396,366.473 167,368.5C 166.502,371.817 166.335,375.15 166.5,378.5C 165.5,378.5 164.5,378.5 163.5,378.5C 163.5,373.833 163.5,369.167 163.5,364.5 Z"/></g>
<g><path style="opacity:1" fill="#cabdbe" d="M 195.5,364.5 C 199.709,365.268 203.875,365.602 208,365.5C 208.749,366.635 208.583,367.635 207.5,368.5C 205.564,366.022 203.564,366.022 201.5,368.5C 200.607,371.084 200.274,373.751 200.5,376.5C 201.978,376.238 203.311,376.571 204.5,377.5C 201.167,378.833 197.833,378.833 194.5,377.5C 195.689,376.571 197.022,376.238 198.5,376.5C 198.5,373.167 198.5,369.833 198.5,366.5C 196.821,366.715 195.821,366.048 195.5,364.5 Z"/></g>
<g><path style="opacity:1" fill="#c4bfba" d="M 61.5,378.5 C 60.5,378.167 59.8333,377.5 59.5,376.5C 60.5691,373.592 60.7358,370.592 60,367.5C 56.5341,365.65 54.7007,366.65 54.5,370.5C 53.5,370.167 52.8333,369.5 52.5,368.5C 53.8073,364.546 56.4739,363.546 60.5,365.5C 61.1667,363.167 61.8333,360.833 62.5,358.5C 62.8333,361.833 63.1667,365.167 63.5,368.5C 63.4864,372.239 62.8197,375.572 61.5,378.5 Z"/></g>
<g><path style="opacity:1" fill="#d3c8c9" d="M 150.5,364.5 C 157.33,363 160.33,365.667 159.5,372.5C 147.887,372.991 147.887,374.657 159.5,377.5C 148.447,379.089 145.447,374.756 150.5,364.5 Z"/></g>
<g><path style="opacity:1" fill="#d2c7c7" d="M 182.5,364.5 C 189.278,362.945 192.278,365.612 191.5,372.5C 179.936,372.348 179.603,374.014 190.5,377.5C 184.001,379.922 180.334,377.755 179.5,371C 179.84,368.489 180.84,366.322 182.5,364.5 Z"/></g>
<g><path style="opacity:1" fill="#d4caca" d="M 372.5,364.5 C 376.192,363.971 379.358,364.971 382,367.5C 382.037,371.089 382.87,374.422 384.5,377.5C 380.209,377.791 375.876,377.791 371.5,377.5C 370.09,375.051 370.424,372.884 372.5,371C 374.81,370.503 377.143,370.337 379.5,370.5C 379.719,369.325 379.386,368.325 378.5,367.5C 375.953,367.229 373.953,366.229 372.5,364.5 Z"/></g>
<g><path style="opacity:1" fill="#c8c4c1" d="M 85.5,364.5 C 89.1916,363.971 92.3583,364.971 95,367.5C 95.0368,371.089 95.8701,374.422 97.5,377.5C 93.2094,377.791 88.876,377.791 84.5,377.5C 83.0903,375.051 83.4237,372.884 85.5,371C 87.8098,370.503 90.1432,370.337 92.5,370.5C 92.719,369.325 92.3857,368.325 91.5,367.5C 88.9527,367.229 86.9527,366.229 85.5,364.5 Z"/></g>
<g><path style="opacity:1" fill="#b3b1b2" d="M 106.5,357.5 C 108.288,357.215 109.955,357.548 111.5,358.5C 108.834,359.039 106.667,360.372 105,362.5C 104.19,367.257 104.524,371.924 106,376.5C 107.6,377.866 109.433,378.866 111.5,379.5C 107.805,381.186 104.971,380.186 103,376.5C 101.079,371.484 101.079,366.484 103,361.5C 103.69,359.65 104.856,358.316 106.5,357.5 Z"/></g>
<g><path style="opacity:1" fill="#cfc4c4" d="M 212.5,364.5 C 221.883,363.253 225.216,367.253 222.5,376.5C 225.988,376.899 226.154,377.566 223,378.5C 221.674,378.245 220.674,377.578 220,376.5C 217.582,378.68 214.916,379.013 212,377.5C 210.393,371.082 212.893,368.749 219.5,370.5C 219.719,369.325 219.386,368.325 218.5,367.5C 215.953,367.229 213.953,366.229 212.5,364.5 Z"/></g>
<g><path style="opacity:1" fill="#d1c6c8" d="M 284.5,358.5 C 285.5,358.5 286.5,358.5 287.5,358.5C 287.5,365.167 287.5,371.833 287.5,378.5C 284.242,377.932 280.909,377.766 277.5,378C 274.467,374.611 273.801,370.778 275.5,366.5C 277.922,364.35 280.589,364.017 283.5,365.5C 284.474,363.257 284.808,360.924 284.5,358.5 Z"/></g>
<g><path style="opacity:1" fill="#d0c5c5" d="M 308.5,364.5 C 317.162,363.84 320.496,367.84 318.5,376.5C 322.422,377.117 322.422,377.784 318.5,378.5C 314.918,378.458 311.251,378.124 307.5,377.5C 306.167,375.5 306.167,373.5 307.5,371.5C 310.084,370.607 312.751,370.274 315.5,370.5C 315.719,369.325 315.386,368.325 314.5,367.5C 311.953,367.229 309.953,366.229 308.5,364.5 Z"/></g>
<g><path style="opacity:1" fill="#ccbfc0" d="M 325.5,364.5 C 328.572,364.183 331.572,364.516 334.5,365.5C 323.881,367.445 323.881,369.612 334.5,372C 335.885,374.585 335.218,376.585 332.5,378C 329.518,378.498 326.518,378.665 323.5,378.5C 323.281,377.325 323.614,376.325 324.5,375.5C 326.432,376.52 328.432,376.687 330.5,376C 331.337,374.989 331.67,373.822 331.5,372.5C 324.187,373.227 322.187,370.56 325.5,364.5 Z"/></g>
<g><path style="opacity:1" fill="#cbbebf" d="M 134.5,364.5 C 137.654,365.095 140.654,365.095 143.5,364.5C 143.666,369.844 143.499,375.177 143,380.5C 140.437,384.378 136.937,385.378 132.5,383.5C 134.423,382.692 136.423,382.192 138.5,382C 140.211,380.867 140.711,379.367 140,377.5C 136.769,379.09 134.103,378.423 132,375.5C 131.333,372.5 131.333,369.5 132,366.5C 132.995,365.934 133.828,365.267 134.5,364.5 Z"/></g>
<g><path style="opacity:1" fill="#f9f9f9" d="M 135.5,366.5 C 137.144,366.286 138.644,366.62 140,367.5C 140.777,370.429 140.61,373.263 139.5,376C 137.888,376.72 136.388,376.554 135,375.5C 134.264,372.408 134.431,369.408 135.5,366.5 Z"/></g>
<g><path style="opacity:1" fill="#beb9b7" d="M 186.5,444.5 C 185.833,444.5 185.167,444.5 184.5,444.5C 184.5,440.833 184.5,437.167 184.5,433.5C 183.022,433.762 181.689,433.429 180.5,432.5C 182.333,432.167 184.167,431.833 186,431.5C 192.902,432.088 193.068,432.755 186.5,433.5C 186.5,437.167 186.5,440.833 186.5,444.5 Z"/></g>
<g><path style="opacity:1" fill="#bdb7b5" d="M 233.5,447.5 C 232.833,447.5 232.167,447.5 231.5,447.5C 231.5,442.5 231.5,437.5 231.5,432.5C 230.022,432.762 228.689,432.429 227.5,431.5C 229.396,430.534 231.396,430.201 233.5,430.5C 233.5,436.167 233.5,441.833 233.5,447.5 Z"/></g>
<g><path style="opacity:1" fill="#c1bdba" d="M 169.5,441.5 C 168.609,440.89 167.609,440.557 166.5,440.5C 165.993,439.141 164.993,438.141 163.5,437.5C 164.325,436.614 165.325,436.281 166.5,436.5C 167.167,431.167 167.833,431.167 168.5,436.5C 170.924,436.192 173.257,436.526 175.5,437.5C 173.604,438.466 171.604,438.799 169.5,438.5C 169.5,439.5 169.5,440.5 169.5,441.5 Z"/></g>
<g><path style="opacity:1" fill="#cfccca" d="M 246.5,446.5 C 245.5,446.5 244.5,446.5 243.5,446.5C 242.994,442.993 243.66,439.826 245.5,437C 252.538,434.991 255.871,437.491 255.5,444.5C 251.988,443.945 248.988,444.612 246.5,446.5 Z"/></g>
<g><path style="opacity:1" fill="#c5c1bd" d="M 224.5,447.5 C 223.167,447.5 221.833,447.5 220.5,447.5C 221.555,444.927 221.722,442.261 221,439.5C 219.204,438.233 217.371,438.233 215.5,439.5C 214.271,442.199 214.271,444.865 215.5,447.5C 214.167,447.5 212.833,447.5 211.5,447.5C 211.5,443.833 211.5,440.167 211.5,436.5C 215.529,436.408 219.529,436.908 223.5,438C 224.451,441.057 224.784,444.223 224.5,447.5 Z"/></g>
<g><path style="opacity:0.983" fill="#f8f8f8" d="M 220.5,447.5 C 218.833,447.5 217.167,447.5 215.5,447.5C 214.271,444.865 214.271,442.199 215.5,439.5C 217.371,438.233 219.204,438.233 221,439.5C 221.722,442.261 221.555,444.927 220.5,447.5 Z"/></g>
<g><path style="opacity:0.958" fill="#d3d0cd" d="M 208.5,447.5 C 207.167,447.5 205.833,447.5 204.5,447.5C 201.713,446.523 198.713,446.19 195.5,446.5C 195.5,443.167 195.5,439.833 195.5,436.5C 199.833,436.5 204.167,436.5 208.5,436.5C 208.5,440.167 208.5,443.833 208.5,447.5 Z"/></g>
<g><path style="opacity:1" fill="#d2d0ce" d="M 271.5,442.5 C 267.64,443.804 263.64,444.471 259.5,444.5C 259.5,441.833 259.5,439.167 259.5,436.5C 263.5,436.5 267.5,436.5 271.5,436.5C 271.5,438.5 271.5,440.5 271.5,442.5 Z"/></g>
</svg>
