<?xml version="1.0" encoding="UTF-8"?>
<!DOCTYPE svg PUBLIC "-//W3C//DTD SVG 1.1//EN" "http://www.w3.org/Graphics/SVG/1.1/DTD/svg11.dtd">
<svg xmlns="http://www.w3.org/2000/svg" version="1.1" width="396px" height="397px" viewBox="0 0 396 397" style="shape-rendering:geometricPrecision; text-rendering:geometricPrecision; image-rendering:optimizeQuality; fill-rule:evenodd; clip-rule:evenodd" xmlns:xlink="http://www.w3.org/1999/xlink">
<g><path style="opacity:0.995" fill="#fdfdfd" d="M 185.5,-0.5 C 193.5,-0.5 201.5,-0.5 209.5,-0.5C 279.858,6.08056 333.358,39.4139 370,99.5C 374.726,108.282 378.892,117.282 382.5,126.5C 378.757,123.572 375.424,123.905 372.5,127.5C 371.007,128.312 370.34,129.645 370.5,131.5C 370.436,133.557 371.102,135.223 372.5,136.5C 379.346,140.513 383.013,138.513 383.5,130.5C 386.128,136.549 388.295,142.882 390,149.5C 392.178,159.58 394.011,169.58 395.5,179.5C 395.5,191.833 395.5,204.167 395.5,216.5C 393.16,237.522 387.827,257.855 379.5,277.5C 378.833,272.167 378.167,266.833 377.5,261.5C 375.265,261.205 373.265,261.539 371.5,262.5C 372.568,263.434 373.901,263.768 375.5,263.5C 375.334,268.844 375.501,274.177 376,279.5C 376.383,280.056 376.883,280.389 377.5,280.5C 377.107,282.284 376.441,283.95 375.5,285.5C 373.226,286.597 371.059,287.93 369,289.5C 366.924,287.767 364.591,286.434 362,285.5C 360.697,285.978 359.531,286.645 358.5,287.5C 358.134,288.695 357.301,289.361 356,289.5C 354,288.167 352,286.833 350,285.5C 347.447,286.223 345.28,287.556 343.5,289.5C 341.72,287.556 339.553,286.223 337,285.5C 335,286.833 333,288.167 331,289.5C 329,288.167 327,286.833 325,285.5C 322.409,286.434 320.076,287.767 318,289.5C 316,288.167 314,286.833 312,285.5C 310,286.833 308,288.167 306,289.5C 304,288.167 302,286.833 300,285.5C 297.409,286.434 295.076,287.767 293,289.5C 291,288.167 289,286.833 287,285.5C 285,286.833 283,288.167 281,289.5C 278.952,287.947 276.785,286.614 274.5,285.5C 272.215,286.614 270.048,287.947 268,289.5C 266,288.167 264,286.833 262,285.5C 260,286.833 258,288.167 256,289.5C 253.924,287.767 251.591,286.434 249,285.5C 247,286.833 245,288.167 243,289.5C 241,288.167 239,286.833 237,285.5C 234.47,286.094 232.47,287.428 231,289.5C 228.924,287.767 226.591,286.434 224,285.5C 222,286.833 220,288.167 218,289.5C 216,288.167 214,286.833 212,285.5C 209.447,286.223 207.28,287.556 205.5,289.5C 203.72,287.556 201.553,286.223 199,285.5C 196.8,285.893 196.3,286.893 197.5,288.5C 198.167,288.167 198.833,287.833 199.5,287.5C 201.253,289.261 203.253,290.594 205.5,291.5C 207.785,290.386 209.952,289.053 212,287.5C 214,288.833 216,290.167 218,291.5C 220.553,290.777 222.72,289.444 224.5,287.5C 226.28,289.444 228.447,290.777 231,291.5C 233,290.167 235,288.833 237,287.5C 239.048,289.053 241.215,290.386 243.5,291.5C 245.747,290.594 247.747,289.261 249.5,287.5C 251.253,289.261 253.253,290.594 255.5,291.5C 257.785,290.386 259.952,289.053 262,287.5C 264,288.833 266,290.167 268,291.5C 270.553,290.777 272.72,289.444 274.5,287.5C 276.28,289.444 278.447,290.777 281,291.5C 283,290.167 285,288.833 287,287.5C 289,288.833 291,290.167 293,291.5C 295.553,290.777 297.72,289.444 299.5,287.5C 301.28,289.444 303.447,290.777 306,291.5C 308,290.167 310,288.833 312,287.5C 314.048,289.053 316.215,290.386 318.5,291.5C 320.785,290.386 322.952,289.053 325,287.5C 327,288.833 329,290.167 331,291.5C 333.295,290.525 335.295,289.192 337,287.5C 339.048,289.053 341.215,290.386 343.5,291.5C 345.785,290.386 347.952,289.053 350,287.5C 352,288.833 354,290.167 356,291.5C 358.553,290.777 360.72,289.444 362.5,287.5C 364.253,289.261 366.253,290.594 368.5,291.5C 370.423,290.908 372.089,289.908 373.5,288.5C 363.967,308.702 350.967,326.369 334.5,341.5C 333.073,337.134 330.573,336.468 327,339.5C 326.692,338.692 326.192,338.025 325.5,337.5C 324.508,341.783 324.174,346.116 324.5,350.5C 320.094,354.246 315.427,357.58 310.5,360.5C 308.223,359.551 306.223,358.218 304.5,356.5C 302.215,357.614 300.048,358.947 298,360.5C 295.952,358.947 293.785,357.614 291.5,356.5C 289.471,357.551 287.637,358.885 286,360.5C 283.424,359.742 281.257,358.409 279.5,356.5C 277.215,357.614 275.048,358.947 273,360.5C 270.952,358.947 268.785,357.614 266.5,356.5C 264.229,357.439 262.229,358.772 260.5,360.5C 258.229,359.561 256.229,358.228 254.5,356.5C 252.215,357.614 250.048,358.947 248,360.5C 245.952,358.947 243.785,357.614 241.5,356.5C 239.229,357.439 237.229,358.772 235.5,360.5C 233.215,359.386 231.048,358.053 229,356.5C 227,357.833 225,359.167 223,360.5C 220.952,358.947 218.785,357.614 216.5,356.5C 214.215,357.614 212.048,358.947 210,360.5C 208,359.167 206,357.833 204,356.5C 202,357.833 200,359.167 198,360.5C 195.952,358.947 193.785,357.614 191.5,356.5C 189.215,357.614 187.048,358.947 185,360.5C 182.952,358.947 180.785,357.614 178.5,356.5C 176.771,358.228 174.771,359.561 172.5,360.5C 170.229,359.561 168.229,358.228 166.5,356.5C 164.215,357.614 162.048,358.947 160,360.5C 157.952,358.947 155.785,357.614 153.5,356.5C 151.771,358.228 149.771,359.561 147.5,360.5C 145.229,359.561 143.229,358.228 141.5,356.5C 139.215,357.614 137.048,358.947 135,360.5C 132.952,358.947 130.785,357.614 128.5,356.5C 126.5,357.833 124.5,359.167 122.5,360.5C 120.167,359.167 117.833,357.833 115.5,356.5C 113.82,358.009 111.986,359.343 110,360.5C 108.225,359.73 106.725,358.563 105.5,357C 101.889,355.746 100.389,356.912 101,360.5C 101.689,359.643 102.522,358.977 103.5,358.5C 105.253,360.261 107.253,361.594 109.5,362.5C 111.785,361.386 113.952,360.053 116,358.5C 118.048,360.053 120.215,361.386 122.5,362.5C 124.747,361.594 126.747,360.261 128.5,358.5C 132.747,363.792 136.914,363.792 141,358.5C 143.048,360.053 145.215,361.386 147.5,362.5C 149.785,361.386 151.952,360.053 154,358.5C 158,363.833 162,363.833 166,358.5C 168.048,360.053 170.215,361.386 172.5,362.5C 174.785,361.386 176.952,360.053 179,358.5C 181.048,360.053 183.215,361.386 185.5,362.5C 187.747,361.594 189.747,360.261 191.5,358.5C 193.253,360.261 195.253,361.594 197.5,362.5C 199.785,361.386 201.952,360.053 204,358.5C 206.048,360.053 208.215,361.386 210.5,362.5C 212.747,361.594 214.747,360.261 216.5,358.5C 218.253,360.261 220.253,361.594 222.5,362.5C 224.785,361.386 226.952,360.053 229,358.5C 231.048,360.053 233.215,361.386 235.5,362.5C 237.747,361.594 239.747,360.261 241.5,358.5C 245.747,363.792 249.914,363.792 254,358.5C 256.048,360.053 258.215,361.386 260.5,362.5C 262.785,361.386 264.952,360.053 267,358.5C 271.086,363.792 275.253,363.792 279.5,358.5C 281.253,360.261 283.253,361.594 285.5,362.5C 287.785,361.386 289.952,360.053 292,358.5C 294.048,360.053 296.215,361.386 298.5,362.5C 300.747,361.594 302.747,360.261 304.5,358.5C 306.188,359.521 307.521,360.855 308.5,362.5C 278.498,382.612 245.498,393.945 209.5,396.5C 201.5,396.5 193.5,396.5 185.5,396.5C 106.128,388.407 49.2948,348.407 15,276.5C 6.98565,257.105 1.81899,237.105 -0.5,216.5C -0.5,204.167 -0.5,191.833 -0.5,179.5C 9.32312,105.658 47.3231,51.825 113.5,18C 136.573,7.7325 160.573,1.56583 185.5,-0.5 Z"/></g>
<g><path style="opacity:1" fill="#757574" d="M 267.5,48.5 C 267.5,54.1667 267.5,59.8333 267.5,65.5C 268.873,65.3433 270.207,65.51 271.5,66C 267.848,66.4986 264.182,66.6653 260.5,66.5C 260.5,66.1667 260.5,65.8333 260.5,65.5C 262.167,65.5 263.833,65.5 265.5,65.5C 265.819,60.6367 265.486,55.97 264.5,51.5C 263.022,51.762 261.689,51.4287 260.5,50.5C 262.608,49.0562 264.941,48.3896 267.5,48.5 Z"/></g>
<g><path style="opacity:1" fill="#c8c1b5" d="M 264.5,51.5 C 265.486,55.97 265.819,60.6367 265.5,65.5C 263.833,65.5 262.167,65.5 260.5,65.5C 261.568,64.5655 262.901,64.2322 264.5,64.5C 264.5,60.1667 264.5,55.8333 264.5,51.5 Z"/></g>
<g><path style="opacity:1" fill="#7f7a7d" d="M 299.5,48.5 C 299.5,54.1667 299.5,59.8333 299.5,65.5C 300.787,66.9617 298.453,66.9617 292.5,65.5C 294.144,65.7135 295.644,65.3802 297,64.5C 297.499,60.1794 297.666,55.8461 297.5,51.5C 295.712,51.7852 294.045,51.4519 292.5,50.5C 294.51,48.8287 296.843,48.162 299.5,48.5 Z"/></g>
<g><path style="opacity:1" fill="#9899a6" d="M 163.5,53.5 C 167.884,53.1744 172.217,53.5078 176.5,54.5C 173.719,58.7986 174.052,62.7986 177.5,66.5C 175.994,67.7472 174.494,67.7472 173,66.5C 172.501,62.8484 172.335,59.1817 172.5,55.5C 171.167,55.5 169.833,55.5 168.5,55.5C 168.5,59.5 168.5,63.5 168.5,67.5C 167.5,67.5 166.5,67.5 165.5,67.5C 165.904,62.6007 165.237,57.934 163.5,53.5 Z"/></g>
<g><path style="opacity:1" fill="#999898" d="M 195.5,53.5 C 199.884,53.1744 204.217,53.5078 208.5,54.5C 206.333,54.8333 204.167,55.1667 202,55.5C 199.39,55.4668 197.223,54.8001 195.5,53.5 Z"/></g>
<g><path style="opacity:1" fill="#b2b0d1" d="M 100.5,53.5 C 101.5,53.5 102.5,53.5 103.5,53.5C 104.537,56.8273 105.704,60.1606 107,63.5C 107.911,60.0251 109.078,56.6918 110.5,53.5C 111.5,53.5 112.5,53.5 113.5,53.5C 112.63,57.5774 111.463,61.5774 110,65.5C 108.556,67.1554 106.722,67.822 104.5,67.5C 103.737,62.649 102.404,57.9824 100.5,53.5 Z"/></g>
<g><path style="opacity:1" fill="#b4b3d4" d="M 132.5,53.5 C 134.766,53.1412 136.599,53.8078 138,55.5C 140.075,53.3517 142.408,53.0183 145,54.5C 145.749,55.635 145.583,56.635 144.5,57.5C 142.326,54.9194 140.16,54.9194 138,57.5C 137.503,60.146 137.336,62.8127 137.5,65.5C 138.978,65.238 140.311,65.5713 141.5,66.5C 138.232,67.487 134.898,67.8204 131.5,67.5C 131.5,66.5 131.5,65.5 131.5,64.5C 132.5,64.5 133.5,64.5 134.5,64.5C 134.813,60.5874 134.147,56.9207 132.5,53.5 Z"/></g>
<g><path style="opacity:1" fill="#848284" d="M 328.5,53.5 C 329.5,53.5 330.5,53.5 331.5,53.5C 331.5,54.5 331.5,55.5 331.5,56.5C 330.5,56.5 329.5,56.5 328.5,56.5C 328.5,55.5 328.5,54.5 328.5,53.5 Z"/></g>
<g><path style="opacity:1" fill="#878688" d="M 230.5,48.5 C 239.249,47.5411 241.249,50.5411 236.5,57.5C 241.786,60.7667 241.786,63.9333 236.5,67C 233.773,67.8184 231.106,67.6517 228.5,66.5C 230.766,65.6858 233.1,65.1858 235.5,65C 238.306,60.7424 236.973,58.409 231.5,58C 233.448,57.0168 235.282,55.8502 237,54.5C 237.667,53.5 237.667,52.5 237,51.5C 234.717,50.2808 232.384,50.2808 230,51.5C 229.5,51.1667 229,50.8333 228.5,50.5C 229.243,49.8182 229.909,49.1515 230.5,48.5 Z"/></g>
<g><path style="opacity:1" fill="#898889" d="M 309.5,48.5 C 312.898,48.1796 316.232,48.513 319.5,49.5C 316.914,50.48 314.247,50.8134 311.5,50.5C 311.5,52.1667 311.5,53.8333 311.5,55.5C 319,54.1657 321.833,57.1657 320,64.5C 316.007,68.3907 312.007,68.3907 308,64.5C 307.517,63.552 307.351,62.552 307.5,61.5C 309.359,61.4609 310.692,62.2942 311.5,64C 316.921,65.2799 318.921,63.1132 317.5,57.5C 314.833,57.5 312.167,57.5 309.5,57.5C 309.5,54.5 309.5,51.5 309.5,48.5 Z"/></g>
<g><path style="opacity:1" fill="#7f7d7c" d="M 284.5,48.5 C 285.932,52.6127 287.266,56.946 288.5,61.5C 287.248,63.0009 286.248,64.6675 285.5,66.5C 284.571,65.3112 284.238,63.9778 284.5,62.5C 281.5,62.5 278.5,62.5 275.5,62.5C 275.401,57.8986 276.401,53.5653 278.5,49.5C 278.909,53.0698 278.909,56.7365 278.5,60.5C 280.5,60.5 282.5,60.5 284.5,60.5C 284.5,56.5 284.5,52.5 284.5,48.5 Z"/></g>
<g><path style="opacity:1" fill="#8f8e8d" d="M 195.5,60.5 C 199.884,60.1744 204.217,60.5078 208.5,61.5C 206.333,61.8333 204.167,62.1667 202,62.5C 199.39,62.4668 197.223,61.8001 195.5,60.5 Z"/></g>
<g><path style="opacity:1" fill="#b6b4d4" d="M 118.5,54.5 C 121.393,53.1144 124.226,53.4477 127,55.5C 127.498,58.8168 127.665,62.1501 127.5,65.5C 130.988,65.8991 131.154,66.5658 128,67.5C 126.674,67.2451 125.674,66.5784 125,65.5C 122.782,67.6187 120.282,67.952 117.5,66.5C 115.555,60.4254 117.889,57.4254 124.5,57.5C 123.278,55.0217 121.278,54.0217 118.5,54.5 Z"/></g>
<g><path style="opacity:1" fill="#f4f6f8" d="M 118.5,61.5 C 120.604,61.2011 122.604,61.5344 124.5,62.5C 122.977,64.2825 120.977,64.9492 118.5,64.5C 118.5,63.5 118.5,62.5 118.5,61.5 Z"/></g>
<g><path style="opacity:1" fill="#9d9b9b" d="M 248.5,63.5 C 249.833,63.5 251.167,63.5 252.5,63.5C 252.833,66.5 251.5,67.8333 248.5,67.5C 248.5,66.1667 248.5,64.8333 248.5,63.5 Z"/></g>
<g><path style="opacity:1" fill="#b7babd" d="M 267.5,48.5 C 268.488,53.6405 268.821,58.9738 268.5,64.5C 269.833,64.5 271.167,64.5 272.5,64.5C 272.5,65.5 272.5,66.5 272.5,67.5C 268.298,67.8168 264.298,67.4834 260.5,66.5C 264.182,66.6653 267.848,66.4986 271.5,66C 270.207,65.51 268.873,65.3433 267.5,65.5C 267.5,59.8333 267.5,54.1667 267.5,48.5 Z"/></g>
<g><path style="opacity:1" fill="#bcbdbf" d="M 299.5,48.5 C 300.488,53.6405 300.821,58.9738 300.5,64.5C 301.833,64.5 303.167,64.5 304.5,64.5C 304.5,65.5 304.5,66.5 304.5,67.5C 300.116,67.8256 295.783,67.4922 291.5,66.5C 291.624,65.8933 291.957,65.56 292.5,65.5C 298.453,66.9617 300.787,66.9617 299.5,65.5C 299.5,59.8333 299.5,54.1667 299.5,48.5 Z"/></g>
<g><path style="opacity:1" fill="#9a9797" d="M 327.5,63.5 C 328.833,63.5 330.167,63.5 331.5,63.5C 329.378,76.5694 328.045,76.5694 327.5,63.5 Z"/></g>
<g><path style="opacity:1" fill="#926e61" d="M 322.5,119.5 C 327.167,119.5 331.833,119.5 336.5,119.5C 336.5,120.5 336.5,121.5 336.5,122.5C 334.833,122.5 333.167,122.5 331.5,122.5C 331.5,127.833 331.5,133.167 331.5,138.5C 330.5,138.5 329.5,138.5 328.5,138.5C 328.5,133.167 328.5,127.833 328.5,122.5C 326.5,122.5 324.5,122.5 322.5,122.5C 322.5,121.5 322.5,120.5 322.5,119.5 Z"/></g>
<g><path style="opacity:1" fill="#9394a2" d="M 180.5,121.5 C 184.351,120.191 188.351,120.191 192.5,121.5C 190.955,122.452 189.288,122.785 187.5,122.5C 187.5,127.167 187.5,131.833 187.5,136.5C 189.288,136.215 190.955,136.548 192.5,137.5C 188.5,138.833 184.5,138.833 180.5,137.5C 182.045,136.548 183.712,136.215 185.5,136.5C 185.5,131.5 185.5,126.5 185.5,121.5C 183.833,121.5 182.167,121.5 180.5,121.5 Z"/></g>
<g><path style="opacity:1" fill="#9898a6" d="M 164.5,120.5 C 167.85,120.335 171.183,120.502 174.5,121C 178.141,123.915 178.474,127.249 175.5,131C 172.986,132.252 170.32,132.752 167.5,132.5C 167.5,134.5 167.5,136.5 167.5,138.5C 166.5,138.5 165.5,138.5 164.5,138.5C 164.5,132.5 164.5,126.5 164.5,120.5 Z"/></g>
<g><path style="opacity:1" fill="#f5f6f5" d="M 167.5,122.5 C 173.501,121.561 175.501,123.895 173.5,129.5C 171.591,130.348 169.591,130.682 167.5,130.5C 167.5,127.833 167.5,125.167 167.5,122.5 Z"/></g>
<g><path style="opacity:1" fill="#cecee2" d="M 132.5,126.5 C 131.957,126.44 131.624,126.107 131.5,125.5C 135.795,124.339 140.129,124.172 144.5,125C 146.037,126.11 146.703,127.61 146.5,129.5C 144.092,128.939 141.759,128.439 139.5,128C 138.556,130.719 138.223,133.552 138.5,136.5C 139.5,136.5 140.5,136.5 141.5,136.5C 141.5,137.5 141.5,138.5 141.5,139.5C 138.167,139.5 134.833,139.5 131.5,139.5C 131.5,138.5 131.5,137.5 131.5,136.5C 132.5,136.5 133.5,136.5 134.5,136.5C 134.94,132.821 134.273,129.488 132.5,126.5 Z"/></g>
<g><path style="opacity:1" fill="#99afba" d="M 282.5,119.5 C 280.473,119.338 278.473,119.505 276.5,120C 277.793,120.49 279.127,120.657 280.5,120.5C 280.5,125.833 280.5,131.167 280.5,136.5C 279.513,131.695 279.179,126.695 279.5,121.5C 278.167,121.5 276.833,121.5 275.5,121.5C 275.5,120.5 275.5,119.5 275.5,118.5C 278.059,118.198 280.393,118.532 282.5,119.5 Z"/></g>
<g><path style="opacity:1" fill="#9b847a" d="M 342.5,125.5 C 343.274,124.853 344.274,124.52 345.5,124.5C 347.355,124.34 348.688,125.007 349.5,126.5C 347.236,125.781 344.903,125.448 342.5,125.5 Z"/></g>
<g><path style="opacity:1" fill="#88582b" d="M 342.5,125.5 C 344.903,125.448 347.236,125.781 349.5,126.5C 352.071,129.82 352.071,133.32 349.5,137C 340.512,140.013 337.345,136.846 340,127.5C 340.708,126.619 341.542,125.953 342.5,125.5 Z"/></g>
<g><path style="opacity:1" fill="#b3b1d2" d="M 99.5,124.5 C 100.822,124.33 101.989,124.663 103,125.5C 104.502,128.756 105.835,132.089 107,135.5C 107.679,132.45 108.512,129.45 109.5,126.5C 110.723,125.386 112.056,125.219 113.5,126C 112.278,130.259 110.944,134.426 109.5,138.5C 107.833,138.5 106.167,138.5 104.5,138.5C 103.369,133.638 101.702,128.971 99.5,124.5 Z"/></g>
<g><path style="opacity:1" fill="#a5a5cb" d="M 132.5,126.5 C 133.919,125.549 135.585,125.216 137.5,125.5C 137.5,129.5 137.5,133.5 137.5,137.5C 136.833,138.833 136.167,138.833 135.5,137.5C 135.5,133.833 135.5,130.167 135.5,126.5C 134.5,126.5 133.5,126.5 132.5,126.5 Z"/></g>
<g><path style="opacity:1" fill="#4795b4" d="M 303.5,127.5 C 303.5,129.167 303.5,130.833 303.5,132.5C 300.5,132.5 297.5,132.5 294.5,132.5C 294.263,133.791 294.596,134.791 295.5,135.5C 306.021,137.28 306.021,138.113 295.5,138C 291.842,134.195 291.508,130.028 294.5,125.5C 298.186,123.719 301.186,124.386 303.5,127.5 Z"/></g>
<g><path style="opacity:1" fill="#eef4f5" d="M 295.5,127.5 C 297.977,127.051 299.977,127.717 301.5,129.5C 299.167,130.833 296.833,130.833 294.5,129.5C 294.863,128.817 295.196,128.15 295.5,127.5 Z"/></g>
<g><path style="opacity:1" fill="#9babd0" d="M 366.5,118.5 C 367.82,121.428 368.486,124.761 368.5,128.5C 368.486,132.239 367.82,135.572 366.5,138.5C 366.5,131.833 366.5,125.167 366.5,118.5 Z"/></g>
<g><path style="opacity:1" fill="#f5f5f1" d="M 346.5,127.5 C 348.026,128.492 348.693,129.992 348.5,132C 348.276,135.759 346.61,136.925 343.5,135.5C 343.337,133.143 343.503,130.81 344,128.5C 344.671,127.748 345.504,127.414 346.5,127.5 Z"/></g>
<g><path style="opacity:1" fill="#4fa0c1" d="M 244.5,119.5 C 245.5,119.5 246.5,119.5 247.5,119.5C 247.5,122.5 247.5,125.5 247.5,128.5C 249.5,128.5 251.5,128.5 253.5,128.5C 253.5,125.5 253.5,122.5 253.5,119.5C 254.5,119.5 255.5,119.5 256.5,119.5C 256.5,126.167 256.5,132.833 256.5,139.5C 255.5,139.5 254.5,139.5 253.5,139.5C 253.5,136.5 253.5,133.5 253.5,130.5C 251.5,130.5 249.5,130.5 247.5,130.5C 247.5,133.5 247.5,136.5 247.5,139.5C 246.5,139.5 245.5,139.5 244.5,139.5C 244.5,132.833 244.5,126.167 244.5,119.5 Z"/></g>
<g><path style="opacity:1" fill="#84552e" d="M 382.5,126.5 C 383.234,127.708 383.567,129.041 383.5,130.5C 383.013,138.513 379.346,140.513 372.5,136.5C 372.5,133.5 372.5,130.5 372.5,127.5C 375.424,123.905 378.757,123.572 382.5,126.5 Z"/></g>
<g><path style="opacity:1" fill="#ebeded" d="M 378.5,136.5 C 376.983,136.489 375.816,135.823 375,134.5C 374.505,132.527 374.338,130.527 374.5,128.5C 376.198,125.876 378.031,125.876 380,128.5C 380.867,131.521 380.367,134.188 378.5,136.5 Z"/></g>
<g><path style="opacity:1" fill="#d0a565" d="M 372.5,127.5 C 372.5,130.5 372.5,133.5 372.5,136.5C 371.102,135.223 370.436,133.557 370.5,131.5C 370.34,129.645 371.007,128.312 372.5,127.5 Z"/></g>
<g><path style="opacity:1" fill="#969fb8" d="M 346.5,127.5 C 345.504,127.414 344.671,127.748 344,128.5C 343.503,130.81 343.337,133.143 343.5,135.5C 342.883,135.389 342.383,135.056 342,134.5C 340.703,130.825 341.703,128.158 345,126.5C 345.765,126.57 346.265,126.903 346.5,127.5 Z"/></g>
<g><path style="opacity:1" fill="#7d7179" d="M 374.5,128.5 C 374.338,130.527 374.505,132.527 375,134.5C 375.816,135.823 376.983,136.489 378.5,136.5C 376.847,137.799 375.347,137.466 374,135.5C 373.204,132.961 373.371,130.628 374.5,128.5 Z"/></g>
<g><path style="opacity:1" fill="#9ccce0" d="M 303.5,127.5 C 304.461,129.265 304.795,131.265 304.5,133.5C 300.988,132.945 297.988,133.612 295.5,135.5C 294.596,134.791 294.263,133.791 294.5,132.5C 297.5,132.5 300.5,132.5 303.5,132.5C 303.5,130.833 303.5,129.167 303.5,127.5 Z"/></g>
<g><path style="opacity:1" fill="#9fa0a0" d="M 211.5,132.5 C 216.214,132.173 220.88,132.507 225.5,133.5C 223.167,133.833 220.833,134.167 218.5,134.5C 215.731,134.471 213.397,133.805 211.5,132.5 Z"/></g>
<g><path style="opacity:1" fill="#b0aed1" d="M 117.5,124.5 C 121.716,124.036 125.216,125.369 128,128.5C 128.372,132.318 129.206,135.985 130.5,139.5C 128.179,139.771 126.179,139.104 124.5,137.5C 118.707,140.072 116.207,138.405 117,132.5C 119.243,131.029 121.743,130.029 124.5,129.5C 122.392,128.056 120.059,127.39 117.5,127.5C 117.5,126.5 117.5,125.5 117.5,124.5 Z"/></g>
<g><path style="opacity:1" fill="#ebedf3" d="M 119.5,132.5 C 121.604,132.201 123.604,132.534 125.5,133.5C 123.929,136.093 121.596,137.093 118.5,136.5C 118.433,135.041 118.766,133.708 119.5,132.5 Z"/></g>
<g><path style="opacity:1" fill="#4998b7" d="M 263.5,124.5 C 271.381,124.218 274.214,127.884 272,135.5C 268.728,139.096 265.062,139.429 261,136.5C 259.773,131.938 260.607,127.938 263.5,124.5 Z"/></g>
<g><path style="opacity:1" fill="#f0f2f0" d="M 264.5,127.5 C 266.144,127.286 267.644,127.62 269,128.5C 269.769,131.099 269.602,133.599 268.5,136C 266.633,136.711 265.133,136.211 264,134.5C 263.297,132.071 263.463,129.738 264.5,127.5 Z"/></g>
<g><path style="opacity:1" fill="#261c22" d="M 312.5,135.5 C 313.5,135.5 314.5,135.5 315.5,135.5C 315.5,136.5 315.5,137.5 315.5,138.5C 314.5,138.5 313.5,138.5 312.5,138.5C 312.5,137.5 312.5,136.5 312.5,135.5 Z"/></g>
<g><path style="opacity:1" fill="#865428" d="M 366.5,118.5 C 366.5,125.167 366.5,131.833 366.5,138.5C 363.597,138.093 360.597,137.926 357.5,138C 355.955,136.178 355.288,134.011 355.5,131.5C 355.049,125.281 357.715,123.281 363.5,125.5C 363.938,122.705 364.938,120.372 366.5,118.5 Z"/></g>
<g><path style="opacity:1" fill="#8ea0c3" d="M 360.5,127.5 C 359.883,127.611 359.383,127.944 359,128.5C 358.503,130.81 358.337,133.143 358.5,135.5C 357.366,133.034 357.199,130.367 358,127.5C 358.977,126.226 359.811,126.226 360.5,127.5 Z"/></g>
<g><path style="opacity:1" fill="#f7f7f4" d="M 360.5,127.5 C 361.822,127.33 362.989,127.663 364,128.5C 365.673,134.299 363.839,136.632 358.5,135.5C 358.337,133.143 358.503,130.81 359,128.5C 359.383,127.944 359.883,127.611 360.5,127.5 Z"/></g>
<g><path style="opacity:1" fill="#3191b6" d="M 282.5,119.5 C 282.334,124.844 282.501,130.177 283,135.5C 284.825,136.103 286.659,136.77 288.5,137.5C 287.333,137.833 286.167,138.167 285,138.5C 282.992,138.693 281.492,138.026 280.5,136.5C 280.5,131.167 280.5,125.833 280.5,120.5C 279.127,120.657 277.793,120.49 276.5,120C 278.473,119.505 280.473,119.338 282.5,119.5 Z"/></g>
<g><path style="opacity:1" fill="#22233d" d="M 248.5,194.5 C 248.392,192.486 249.058,190.82 250.5,189.5C 252.166,188.334 253.833,188.334 255.5,189.5C 252.288,190.06 249.955,191.727 248.5,194.5 Z"/></g>
<g><path style="opacity:1" fill="#6b3935" d="M 191.5,190.5 C 190.817,192.176 189.483,192.843 187.5,192.5C 187.5,197.5 187.5,202.5 187.5,207.5C 187.141,202.251 186.141,197.251 184.5,192.5C 183.022,192.762 181.689,192.429 180.5,191.5C 184.107,190.511 187.774,190.177 191.5,190.5 Z"/></g>
<g><path style="opacity:1" fill="#bbabc7" d="M 377.5,189.5 C 378.327,194.651 378.827,199.984 379,205.5C 380.699,206.406 382.533,206.739 384.5,206.5C 384.737,207.791 384.404,208.791 383.5,209.5C 382.159,207.88 380.326,206.88 378,206.5C 377.501,200.843 377.334,195.176 377.5,189.5 Z"/></g>
<g><path style="opacity:1" fill="#4198ba" d="M 132.5,189.5 C 134.833,189.5 137.167,189.5 139.5,189.5C 139.334,195.176 139.501,200.843 140,206.5C 141.509,207.09 143.009,207.756 144.5,208.5C 141.23,210.214 138.73,209.548 137,206.5C 136.501,201.511 136.334,196.511 136.5,191.5C 134.517,191.843 133.183,191.176 132.5,189.5 Z"/></g>
<g><path style="opacity:1" fill="#a92d21" d="M 377.5,189.5 C 377.334,195.176 377.501,200.843 378,206.5C 380.326,206.88 382.159,207.88 383.5,209.5C 380.635,209.945 378.135,209.278 376,207.5C 375.501,202.177 375.334,196.844 375.5,191.5C 373.712,191.785 372.045,191.452 370.5,190.5C 372.743,189.526 375.076,189.192 377.5,189.5 Z"/></g>
<g><path style="opacity:1" fill="#3694b5" d="M 120.5,195.5 C 128.156,195.315 130.656,198.982 128,206.5C 124.667,210.5 121.333,210.5 118,206.5C 116.813,202.217 117.647,198.55 120.5,195.5 Z"/></g>
<g><path style="opacity:1" fill="#a5304a" d="M 262.5,190.5 C 263.748,191.334 264.415,192.667 264.5,194.5C 264.167,195.833 263.833,197.167 263.5,198.5C 262.52,195.914 262.187,193.247 262.5,190.5 Z"/></g>
<g><path style="opacity:1" fill="#9c6d33" d="M 203.5,208.5 C 203.5,208.167 203.5,207.833 203.5,207.5C 204.833,204.167 204.833,200.833 203.5,197.5C 204.167,197.5 204.5,197.167 204.5,196.5C 204.5,194.167 204.5,191.833 204.5,189.5C 205.5,189.5 206.5,189.5 207.5,189.5C 207.83,196.2 207.497,202.866 206.5,209.5C 205.787,207.565 204.787,207.232 203.5,208.5 Z"/></g>
<g><path style="opacity:1" fill="#a8311e" d="M 267.5,190.5 C 268.748,191.334 269.415,192.667 269.5,194.5C 269.167,195.833 268.833,197.167 268.5,198.5C 267.52,195.914 267.187,193.247 267.5,190.5 Z"/></g>
<g><path style="opacity:1" fill="#ae3534" d="M 287.5,195.5 C 287.687,201.212 287.354,206.879 286.5,212.5C 285.29,212.932 284.29,213.599 283.5,214.5C 281.307,215.797 278.973,215.797 276.5,214.5C 278.423,213.692 280.423,213.192 282.5,213C 284.211,211.867 284.711,210.367 284,208.5C 280.214,210.348 277.548,209.348 276,205.5C 275.333,203.167 275.333,200.833 276,198.5C 276.5,197.333 277.333,196.5 278.5,196C 281.644,196.095 284.644,195.928 287.5,195.5 Z"/></g>
<g><path style="opacity:1" fill="#ebf0f1" d="M 121.5,197.5 C 125.976,197.822 127.476,200.156 126,204.5C 124.084,207.033 122.084,207.033 120,204.5C 119.167,201.829 119.667,199.496 121.5,197.5 Z"/></g>
<g><path style="opacity:1" fill="#f9f9f4" d="M 201.5,197.5 C 202.167,197.5 202.833,197.5 203.5,197.5C 204.833,200.833 204.833,204.167 203.5,207.5C 202.833,207.5 202.167,207.5 201.5,207.5C 198.833,204.167 198.833,200.833 201.5,197.5 Z"/></g>
<g><path style="opacity:1" fill="#f4f0ee" d="M 279.5,197.5 C 281.144,197.286 282.644,197.62 284,198.5C 284.777,201.429 284.61,204.263 283.5,207C 281.888,207.72 280.388,207.554 279,206.5C 278.264,203.408 278.431,200.408 279.5,197.5 Z"/></g>
<g><path style="opacity:1" fill="#ae3b30" d="M 339.5,195.5 C 341.766,195.141 343.599,195.808 345,197.5C 347.075,195.352 349.408,195.018 352,196.5C 352.749,197.635 352.583,198.635 351.5,199.5C 349.44,197.108 347.273,197.108 345,199.5C 344.503,202.146 344.336,204.813 344.5,207.5C 345.675,207.281 346.675,207.614 347.5,208.5C 344.5,209.833 341.5,209.833 338.5,208.5C 339.325,207.614 340.325,207.281 341.5,207.5C 341.849,203.258 341.183,199.258 339.5,195.5 Z"/></g>
<g><path style="opacity:1" fill="#4e9bbb" d="M 100.5,190.5 C 101.5,190.5 102.5,190.5 103.5,190.5C 103.5,193.167 103.5,195.833 103.5,198.5C 105.833,198.5 108.167,198.5 110.5,198.5C 110.5,195.833 110.5,193.167 110.5,190.5C 111.5,190.5 112.5,190.5 113.5,190.5C 113.5,196.833 113.5,203.167 113.5,209.5C 112.5,209.5 111.5,209.5 110.5,209.5C 110.5,206.833 110.5,204.167 110.5,201.5C 108.167,201.5 105.833,201.5 103.5,201.5C 103.5,204.167 103.5,206.833 103.5,209.5C 102.5,209.5 101.5,209.5 100.5,209.5C 100.5,203.167 100.5,196.833 100.5,190.5 Z"/></g>
<g><path style="opacity:1" fill="#afbbd2" d="M 220.5,195.5 C 223.279,196.056 224.946,197.722 225.5,200.5C 225.36,202.03 224.693,203.03 223.5,203.5C 223.984,200.212 222.984,197.545 220.5,195.5 Z"/></g>
<g><path style="opacity:1" fill="#482b2f" d="M 250.5,189.5 C 249.058,190.82 248.392,192.486 248.5,194.5C 248.335,198.182 248.501,201.848 249,205.5C 249.66,207.324 250.827,208.657 252.5,209.5C 255.258,210.967 254.925,211.633 251.5,211.5C 249.81,211.144 248.81,210.144 248.5,208.5C 248.573,206.973 247.906,205.973 246.5,205.5C 244.94,200.313 245.44,195.313 248,190.5C 248.671,189.748 249.504,189.414 250.5,189.5 Z"/></g>
<g><path style="opacity:1" fill="#a24a74" d="M 317.5,196.5 C 318.8,198.223 319.467,200.39 319.5,203C 319.496,205.361 319.163,207.527 318.5,209.5C 318.769,205.069 318.436,200.735 317.5,196.5 Z"/></g>
<g><path style="opacity:1" fill="#a6b9d0" d="M 201.5,197.5 C 198.833,200.833 198.833,204.167 201.5,207.5C 197.429,205.565 196.596,202.565 199,198.5C 199.671,197.748 200.504,197.414 201.5,197.5 Z"/></g>
<g><path style="opacity:1" fill="#7c4c24" d="M 220.5,195.5 C 222.984,197.545 223.984,200.212 223.5,203.5C 220.5,203.5 217.5,203.5 214.5,203.5C 214.468,205.619 215.468,206.952 217.5,207.5C 217.5,208.167 217.5,208.833 217.5,209.5C 215.629,209.141 214.129,208.141 213,206.5C 210.344,198.982 212.844,195.315 220.5,195.5 Z"/></g>
<g><path style="opacity:1" fill="#eae6dc" d="M 217.5,197.5 C 220.5,197.167 221.833,198.5 221.5,201.5C 219.5,201.5 217.5,201.5 215.5,201.5C 215.733,199.938 216.4,198.605 217.5,197.5 Z"/></g>
<g><path style="opacity:1" fill="#929bb3" d="M 217.5,197.5 C 216.4,198.605 215.733,199.938 215.5,201.5C 214.624,201.631 213.957,201.298 213.5,200.5C 214.283,198.712 215.616,197.712 217.5,197.5 Z"/></g>
<g><path style="opacity:1" fill="#ba97c7" d="M 287.5,195.5 C 288.651,200.65 288.817,205.984 288,211.5C 287.617,212.056 287.117,212.389 286.5,212.5C 287.354,206.879 287.687,201.212 287.5,195.5 Z"/></g>
<g><path style="opacity:1" fill="#d6865e" d="M 293.5,197.5 C 292.612,200.054 292.279,202.721 292.5,205.5C 291.844,204.378 291.511,203.045 291.5,201.5C 291.585,199.667 292.252,198.334 293.5,197.5 Z"/></g>
<g><path style="opacity:1" fill="#afc3d4" d="M 191.5,190.5 C 192.404,191.209 192.737,192.209 192.5,193.5C 191.167,193.5 189.833,193.5 188.5,193.5C 188.5,197.833 188.5,202.167 188.5,206.5C 189.833,206.5 191.167,206.5 192.5,206.5C 192.737,207.791 192.404,208.791 191.5,209.5C 190.817,207.824 189.483,207.157 187.5,207.5C 187.5,202.5 187.5,197.5 187.5,192.5C 189.483,192.843 190.817,192.176 191.5,190.5 Z"/></g>
<g><path style="opacity:1" fill="#825129" d="M 204.5,196.5 C 204.5,197.167 204.167,197.5 203.5,197.5C 202.833,197.5 202.167,197.5 201.5,197.5C 200.504,197.414 199.671,197.748 199,198.5C 196.596,202.565 197.429,205.565 201.5,207.5C 202.167,207.5 202.833,207.5 203.5,207.5C 203.5,207.833 203.5,208.167 203.5,208.5C 198.273,210.145 195.606,207.978 195.5,202C 195.752,195.73 198.752,193.897 204.5,196.5 Z"/></g>
<g><path style="opacity:1" fill="#b6482b" d="M 317.5,196.5 C 318.436,200.735 318.769,205.069 318.5,209.5C 316.74,206.299 315.906,202.633 316,198.5C 314.708,197.209 313.542,197.209 312.5,198.5C 310.586,201.684 309.92,205.351 310.5,209.5C 309.5,209.5 308.5,209.5 307.5,209.5C 307.5,204.833 307.5,200.167 307.5,195.5C 310.928,195.788 314.262,196.121 317.5,196.5 Z"/></g>
<g><path style="opacity:1" fill="#b4a3c6" d="M 312.5,198.5 C 311.897,202.273 311.23,205.939 310.5,209.5C 309.92,205.351 310.586,201.684 312.5,198.5 Z"/></g>
<g><path style="opacity:1" fill="#3f95b4" d="M 151.5,195.5 C 158.181,194.31 161.181,196.977 160.5,203.5C 148.936,203.348 148.603,205.014 159.5,208.5C 153.463,210.79 149.796,208.79 148.5,202.5C 148.695,199.782 149.695,197.449 151.5,195.5 Z"/></g>
<g><path style="opacity:1" fill="#dde6e9" d="M 153.5,197.5 C 156.95,196.756 158.616,198.09 158.5,201.5C 156.167,201.5 153.833,201.5 151.5,201.5C 151.527,199.801 152.194,198.467 153.5,197.5 Z"/></g>
<g><path style="opacity:1" fill="#828597" d="M 237.5,197.5 C 238.117,197.611 238.617,197.944 239,198.5C 239.498,201.482 239.665,204.482 239.5,207.5C 238.677,204.316 238.01,200.983 237.5,197.5 Z"/></g>
<g><path style="opacity:1" fill="#85562e" d="M 237.5,197.5 C 238.01,200.983 238.677,204.316 239.5,207.5C 242.152,208.294 241.985,208.96 239,209.5C 237.674,209.245 236.674,208.578 236,207.5C 233.791,209.706 231.291,210.04 228.5,208.5C 227.167,206.5 227.167,204.5 228.5,202.5C 231.084,201.607 233.751,201.274 236.5,201.5C 236.719,200.325 236.386,199.325 235.5,198.5C 233.465,197.959 231.465,197.292 229.5,196.5C 232.476,195.11 235.143,195.443 237.5,197.5 Z"/></g>
<g><path style="opacity:1" fill="#e0dedb" d="M 229.5,203.5 C 231.924,203.192 234.257,203.526 236.5,204.5C 234.929,207.093 232.596,208.093 229.5,207.5C 229.5,206.167 229.5,204.833 229.5,203.5 Z"/></g>
<g><path style="opacity:1" fill="#cbafc6" d="M 295.5,203.5 C 295.577,204.75 296.244,205.583 297.5,206C 299.473,206.495 301.473,206.662 303.5,206.5C 303.737,207.791 303.404,208.791 302.5,209.5C 300.268,207.805 297.601,206.638 294.5,206C 293.117,204.539 293.451,203.706 295.5,203.5 Z"/></g>
<g><path style="opacity:1" fill="#916445" d="M 169.5,206.5 C 169.557,207.609 169.89,208.609 170.5,209.5C 168.448,208.947 168.115,207.947 169.5,206.5 Z"/></g>
<g><path style="opacity:1" fill="#111017" d="M 169.5,206.5 C 171.552,207.053 171.885,208.053 170.5,209.5C 169.89,208.609 169.557,207.609 169.5,206.5 Z"/></g>
<g><path style="opacity:1" fill="#885429" d="M 184.5,192.5 C 186.141,197.251 187.141,202.251 187.5,207.5C 189.483,207.157 190.817,207.824 191.5,209.5C 187.774,209.823 184.107,209.489 180.5,208.5C 181.689,207.571 183.022,207.238 184.5,207.5C 184.5,202.5 184.5,197.5 184.5,192.5 Z"/></g>
<g><path style="opacity:1" fill="#804c22" d="M 246.5,205.5 C 247.906,205.973 248.573,206.973 248.5,208.5C 247.094,208.027 246.427,207.027 246.5,205.5 Z"/></g>
<g><path style="opacity:1" fill="#a32a2b" d="M 295.5,203.5 C 293.451,203.706 293.117,204.539 294.5,206C 297.601,206.638 300.268,207.805 302.5,209.5C 298.116,210.424 294.782,209.091 292.5,205.5C 292.279,202.721 292.612,200.054 293.5,197.5C 296.187,195.026 299.187,194.859 302.5,197C 303.423,199.041 303.756,201.208 303.5,203.5C 300.833,203.5 298.167,203.5 295.5,203.5 Z"/></g>
<g><path style="opacity:1" fill="#ede2de" d="M 295.5,197.5 C 299.241,196.599 301.241,197.932 301.5,201.5C 299.076,201.808 296.743,201.474 294.5,200.5C 295.127,199.583 295.461,198.583 295.5,197.5 Z"/></g>
<g><path style="opacity:1" fill="#a8312b" d="M 326.5,195.5 C 332.675,194.677 335.675,197.344 335.5,203.5C 332.5,203.5 329.5,203.5 326.5,203.5C 326.33,204.822 326.663,205.989 327.5,207C 329.9,207.186 332.234,207.686 334.5,208.5C 328.087,210.961 324.42,208.794 323.5,202C 323.84,199.489 324.84,197.322 326.5,195.5 Z"/></g>
<g><path style="opacity:1" fill="#e7dbdb" d="M 327.5,197.5 C 330.288,197.077 332.288,198.077 333.5,200.5C 331.257,201.474 328.924,201.808 326.5,201.5C 326.433,200.041 326.766,198.708 327.5,197.5 Z"/></g>
<g><path style="opacity:1" fill="#a83032" d="M 356.5,195.5 C 365.218,194.891 368.552,198.891 366.5,207.5C 369.988,207.899 370.154,208.566 367,209.5C 365.674,209.245 364.674,208.578 364,207.5C 361.582,209.68 358.916,210.013 356,208.5C 354.801,202.487 357.301,200.153 363.5,201.5C 363.67,200.178 363.337,199.011 362.5,198C 359.949,197.998 357.949,197.164 356.5,195.5 Z"/></g>
<g><path style="opacity:1" fill="#e0cfd4" d="M 357.5,203.5 C 359.5,203.5 361.5,203.5 363.5,203.5C 363.241,207.068 361.241,208.401 357.5,207.5C 357.5,206.167 357.5,204.833 357.5,203.5 Z"/></g>
<g><path style="opacity:1" fill="#6b3e3d" d="M 217.5,207.5 C 225.5,208.167 225.5,208.833 217.5,209.5C 217.5,208.833 217.5,208.167 217.5,207.5 Z"/></g>
<g><path style="opacity:1" fill="#999eae" d="M 252.5,209.5 C 253.833,209.5 255.167,209.5 256.5,209.5C 256.5,210.5 256.5,211.5 256.5,212.5C 254.585,212.784 252.919,212.451 251.5,211.5C 254.925,211.633 255.258,210.967 252.5,209.5 Z"/></g>
<g><path style="opacity:1" fill="#ba86a7" d="M 286.5,212.5 C 286.179,214.048 285.179,214.715 283.5,214.5C 284.29,213.599 285.29,212.932 286.5,212.5 Z"/></g>
<g><path style="opacity:1" fill="#a6a6a6" d="M 101.5,214.5 C 102.5,214.5 103.5,214.5 104.5,214.5C 104.5,215.5 104.5,216.5 104.5,217.5C 103.5,217.5 102.5,217.5 101.5,217.5C 101.5,216.5 101.5,215.5 101.5,214.5 Z"/></g>
<g><path style="opacity:1" fill="#a3a3a3" d="M 118.5,214.5 C 119.5,214.5 120.5,214.5 121.5,214.5C 121.5,215.5 121.5,216.5 121.5,217.5C 120.5,217.5 119.5,217.5 118.5,217.5C 118.5,216.5 118.5,215.5 118.5,214.5 Z"/></g>
<g><path style="opacity:1" fill="#632d27" d="M 331.5,264.5 C 330.513,269.305 330.179,274.305 330.5,279.5C 331.873,279.343 333.207,279.51 334.5,280C 331.183,280.498 327.85,280.665 324.5,280.5C 325.209,279.596 326.209,279.263 327.5,279.5C 328.809,277.429 329.475,274.929 329.5,272C 329.497,269.31 329.164,266.81 328.5,264.5C 327.022,264.762 325.689,264.429 324.5,263.5C 328.167,262.167 331.833,262.167 335.5,263.5C 334.311,264.429 332.978,264.762 331.5,264.5 Z"/></g>
<g><path style="opacity:1" fill="#98b6cf" d="M 377.5,261.5 C 378.167,266.833 378.833,272.167 379.5,277.5C 379.5,278.167 379.167,278.5 378.5,278.5C 377.833,278.5 377.5,278.167 377.5,277.5C 377.5,272.167 377.5,266.833 377.5,261.5 Z"/></g>
<g><path style="opacity:1" fill="#3b97bb" d="M 228.5,261.5 C 230.5,261.5 232.5,261.5 234.5,261.5C 234.334,266.844 234.501,272.177 235,277.5C 236.699,278.406 238.533,278.739 240.5,278.5C 240.5,279.5 240.5,280.5 240.5,281.5C 237.635,281.945 235.135,281.278 233,279.5C 232.501,274.177 232.334,268.844 232.5,263.5C 230.517,263.843 229.183,263.176 228.5,261.5 Z"/></g>
<g><path style="opacity:1" fill="#9397af" d="M 279.5,262.5 C 281.946,266.169 283.612,270.169 284.5,274.5C 284.591,276.698 283.925,277.031 282.5,275.5C 282.59,272.848 281.924,270.515 280.5,268.5C 280.167,266.5 279.833,264.5 279.5,262.5 Z"/></g>
<g><path style="opacity:1" fill="#611918" d="M 371.5,262.5 C 373.265,261.539 375.265,261.205 377.5,261.5C 377.5,266.833 377.5,272.167 377.5,277.5C 376.513,272.695 376.179,267.695 376.5,262.5C 374.833,262.5 373.167,262.5 371.5,262.5 Z"/></g>
<g><path style="opacity:1" fill="#94612e" d="M 279.5,262.5 C 279.833,264.5 280.167,266.5 280.5,268.5C 279.833,268.167 279.167,267.833 278.5,267.5C 277.739,271.486 277.072,276.153 276.5,281.5C 275.51,275.355 275.177,269.022 275.5,262.5C 276.833,262.5 278.167,262.5 279.5,262.5 Z"/></g>
<g><path style="opacity:1" fill="#5f2e35" d="M 286.5,262.5 C 286.833,262.5 287.167,262.5 287.5,262.5C 288.12,268.926 287.453,274.926 285.5,280.5C 286.455,274.591 286.789,268.591 286.5,262.5 Z"/></g>
<g><path style="opacity:1" fill="#8e5121" d="M 371.5,262.5 C 373.167,262.5 374.833,262.5 376.5,262.5C 376.179,267.695 376.513,272.695 377.5,277.5C 377.5,278.167 377.833,278.5 378.5,278.5C 378.672,279.492 378.338,280.158 377.5,280.5C 376.883,280.389 376.383,280.056 376,279.5C 375.501,274.177 375.334,268.844 375.5,263.5C 373.901,263.768 372.568,263.434 371.5,262.5 Z"/></g>
<g><path style="opacity:1" fill="#c8a7e1" d="M 112.5,267.5 C 110.167,267.5 107.833,267.5 105.5,267.5C 104.833,262.167 104.167,262.167 103.5,267.5C 102.167,267.5 100.833,267.5 99.5,267.5C 100.209,266.596 101.209,266.263 102.5,266.5C 102.5,265.167 102.5,263.833 102.5,262.5C 103.833,262.5 105.167,262.5 106.5,262.5C 106.5,263.833 106.5,265.167 106.5,266.5C 108.735,266.205 110.735,266.539 112.5,267.5 Z"/></g>
<g><path style="opacity:1" fill="#a57517" d="M 328.5,264.5 C 329.164,266.81 329.497,269.31 329.5,272C 329.475,274.929 328.809,277.429 327.5,279.5C 328.445,274.595 328.779,269.595 328.5,264.5 Z"/></g>
<g><path style="opacity:1" fill="#9535c7" d="M 112.5,267.5 C 111.082,269.308 109.082,269.975 106.5,269.5C 106.335,272.518 106.502,275.518 107,278.5C 108.699,279.406 110.533,279.739 112.5,279.5C 110.393,280.468 108.059,280.802 105.5,280.5C 103.676,277.154 103.01,273.487 103.5,269.5C 101.517,269.843 100.183,269.176 99.5,267.5C 100.833,267.5 102.167,267.5 103.5,267.5C 104.167,262.167 104.833,262.167 105.5,267.5C 107.833,267.5 110.167,267.5 112.5,267.5 Z"/></g>
<g><path style="opacity:1" fill="#9739c8" d="M 117.5,261.5 C 119.197,263.305 120.03,265.639 120,268.5C 122.916,266.987 125.582,267.32 128,269.5C 128.499,273.486 128.666,277.486 128.5,281.5C 127.5,281.5 126.5,281.5 125.5,281.5C 125.665,277.818 125.499,274.152 125,270.5C 123.51,269.272 122.01,269.272 120.5,270.5C 119.834,273.689 119.167,277.023 118.5,280.5C 117.504,274.202 117.17,267.868 117.5,261.5 Z"/></g>
<g><path style="opacity:1" fill="#6e3f22" d="M 311.5,263.5 C 312.434,264.568 312.768,265.901 312.5,267.5C 320.5,267.833 320.5,268.167 312.5,268.5C 312.19,271.713 312.523,274.713 313.5,277.5C 313.5,278.167 313.833,278.5 314.5,278.5C 315.952,279.302 317.618,279.802 319.5,280C 316.779,280.602 314.113,280.435 311.5,279.5C 312.069,275.671 311.402,272.337 309.5,269.5C 308.325,269.719 307.325,269.386 306.5,268.5C 307.689,267.571 309.022,267.238 310.5,267.5C 310.232,265.901 310.566,264.568 311.5,263.5 Z"/></g>
<g><path style="opacity:1" fill="#94878c" d="M 311.5,263.5 C 311.56,262.957 311.893,262.624 312.5,262.5C 313.429,263.689 313.762,265.022 313.5,266.5C 315.5,266.5 317.5,266.5 319.5,266.5C 319.5,267.5 319.5,268.5 319.5,269.5C 317.5,269.5 315.5,269.5 313.5,269.5C 313.5,272.167 313.5,274.833 313.5,277.5C 312.523,274.713 312.19,271.713 312.5,268.5C 320.5,268.167 320.5,267.833 312.5,267.5C 312.768,265.901 312.434,264.568 311.5,263.5 Z"/></g>
<g><path style="opacity:1" fill="#854e2a" d="M 342.5,269.5 C 342.125,273.442 341.125,277.109 339.5,280.5C 339.5,276.167 339.5,271.833 339.5,267.5C 343.601,268.366 347.601,268.366 351.5,267.5C 351.827,272.214 351.493,276.88 350.5,281.5C 349.509,277.555 349.176,273.555 349.5,269.5C 348.5,269.5 347.5,269.5 346.5,269.5C 346.824,273.555 346.491,277.555 345.5,281.5C 345.118,277.084 344.118,273.084 342.5,269.5 Z"/></g>
<g><path style="opacity:1" fill="#cd95d2" d="M 137.5,267.5 C 135.801,267.34 134.134,267.506 132.5,268C 133.448,268.483 134.448,268.649 135.5,268.5C 135.5,272.167 135.5,275.833 135.5,279.5C 134.167,279.5 132.833,279.5 131.5,279.5C 132.209,278.596 133.209,278.263 134.5,278.5C 134.5,275.5 134.5,272.5 134.5,269.5C 133.5,269.5 132.5,269.5 131.5,269.5C 131.5,268.5 131.5,267.5 131.5,266.5C 133.735,266.205 135.735,266.539 137.5,267.5 Z"/></g>
<g><path style="opacity:1" fill="#9133c8" d="M 137.5,267.5 C 137.511,270.001 138.178,270.168 139.5,268C 143.22,266.608 145.22,267.775 145.5,271.5C 143.8,271.374 142.3,270.707 141,269.5C 139.699,269.639 138.866,270.305 138.5,271.5C 137.527,273.948 137.194,276.615 137.5,279.5C 139.179,279.285 140.179,279.952 140.5,281.5C 136.988,282.055 133.988,281.388 131.5,279.5C 132.833,279.5 134.167,279.5 135.5,279.5C 135.5,275.833 135.5,272.167 135.5,268.5C 134.448,268.649 133.448,268.483 132.5,268C 134.134,267.506 135.801,267.34 137.5,267.5 Z"/></g>
<g><path style="opacity:1" fill="#919fb8" d="M 342.5,269.5 C 342.5,273.5 342.5,277.5 342.5,281.5C 341.209,281.737 340.209,281.404 339.5,280.5C 341.125,277.109 342.125,273.442 342.5,269.5 Z"/></g>
<g><path style="opacity:1" fill="#eaecea" d="M 363.5,269.5 C 366.167,272.833 366.167,276.167 363.5,279.5C 359.938,279.436 358.271,277.603 358.5,274C 358.093,270.241 359.76,268.741 363.5,269.5 Z"/></g>
<g><path style="opacity:1" fill="#cc9ed5" d="M 117.5,261.5 C 117.17,267.868 117.504,274.202 118.5,280.5C 119.167,277.023 119.834,273.689 120.5,270.5C 120.5,274.167 120.5,277.833 120.5,281.5C 119.167,281.5 117.833,281.5 116.5,281.5C 116.176,274.646 116.509,267.979 117.5,261.5 Z"/></g>
<g><path style="opacity:1" fill="#66a9c6" d="M 196.5,262.5 C 197.5,262.5 198.5,262.5 199.5,262.5C 199.5,265.167 199.5,267.833 199.5,270.5C 201.5,270.5 203.5,270.5 205.5,270.5C 205.5,267.833 205.5,265.167 205.5,262.5C 206.833,262.5 208.167,262.5 209.5,262.5C 209.5,268.833 209.5,275.167 209.5,281.5C 208.167,281.5 206.833,281.5 205.5,281.5C 205.5,278.833 205.5,276.167 205.5,273.5C 203.5,273.5 201.5,273.5 199.5,273.5C 199.5,276.167 199.5,278.833 199.5,281.5C 198.5,281.5 197.5,281.5 196.5,281.5C 196.5,275.167 196.5,268.833 196.5,262.5 Z"/></g>
<g><path style="opacity:1" fill="#be7f38" d="M 280.5,268.5 C 281.924,270.515 282.59,272.848 282.5,275.5C 281.076,273.485 280.41,271.152 280.5,268.5 Z"/></g>
<g><path style="opacity:1" fill="#ddb373" d="M 309.5,269.5 C 311.402,272.337 312.069,275.671 311.5,279.5C 310.883,279.389 310.383,279.056 310,278.5C 309.502,275.518 309.335,272.518 309.5,269.5 Z"/></g>
<g><path style="opacity:1" fill="#71424b" d="M 278.5,267.5 C 279.103,272.619 278.436,277.285 276.5,281.5C 277.072,276.153 277.739,271.486 278.5,267.5 Z"/></g>
<g><path style="opacity:1" fill="#97631d" d="M 357.5,267.5 C 357.793,274.255 357.46,280.922 356.5,287.5C 355.835,284.351 355.502,281.018 355.5,277.5C 355.514,273.761 356.18,270.428 357.5,267.5 Z"/></g>
<g><path style="opacity:1" fill="#837f93" d="M 366.5,268.5 C 367.117,268.611 367.617,268.944 368,269.5C 368.703,272.713 368.536,275.879 367.5,279C 367.164,280.03 366.497,280.53 365.5,280.5C 367.416,277.277 367.749,273.943 366.5,270.5C 366.5,269.833 366.5,269.167 366.5,268.5 Z"/></g>
<g><path style="opacity:1" fill="#9b6427" d="M 363.5,269.5 C 364.609,269.557 365.609,269.89 366.5,270.5C 367.749,273.943 367.416,277.277 365.5,280.5C 364.833,280.167 364.167,279.833 363.5,279.5C 366.167,276.167 366.167,272.833 363.5,269.5 Z"/></g>
<g><path style="opacity:1" fill="#4497b6" d="M 246.5,267.5 C 253.544,265.984 256.877,268.651 256.5,275.5C 244.936,275.348 244.603,277.014 255.5,280.5C 244.98,281.846 241.98,277.512 246.5,267.5 Z"/></g>
<g><path style="opacity:1" fill="#e1eaec" d="M 248.5,269.5 C 251.278,269.022 253.278,270.022 254.5,272.5C 251.833,273.833 249.167,273.833 246.5,272.5C 247.193,271.482 247.859,270.482 248.5,269.5 Z"/></g>
<g><path style="opacity:1" fill="#9397ab" d="M 287.5,262.5 C 288.49,268.645 288.823,274.978 288.5,281.5C 286.901,281.768 285.568,281.434 284.5,280.5C 284.833,280.5 285.167,280.5 285.5,280.5C 287.453,274.926 288.12,268.926 287.5,262.5 Z"/></g>
<g><path style="opacity:1" fill="#9a39c8" d="M 177.5,268.5 C 176.437,272.639 175.77,276.972 175.5,281.5C 174.209,281.737 173.209,281.404 172.5,280.5C 173.72,278.718 174.386,276.718 174.5,274.5C 174.5,272.167 174.5,269.833 174.5,267.5C 175.791,267.263 176.791,267.596 177.5,268.5 Z"/></g>
<g><path style="opacity:1" fill="#bec0f1" d="M 177.5,268.5 C 177.844,273.122 177.177,277.455 175.5,281.5C 175.77,276.972 176.437,272.639 177.5,268.5 Z"/></g>
<g><path style="opacity:1" fill="#b570d3" d="M 169.5,267.5 C 170.167,272.833 170.833,272.833 171.5,267.5C 171.98,270.078 172.98,272.412 174.5,274.5C 174.386,276.718 173.72,278.718 172.5,280.5C 171.834,277.972 171.168,275.306 170.5,272.5C 169.831,274.631 169.165,276.631 168.5,278.5C 168.19,277.262 167.69,277.262 167,278.5C 166.506,276.866 166.34,275.199 166.5,273.5C 168.06,271.844 169.06,269.844 169.5,267.5 Z"/></g>
<g><path style="opacity:1" fill="#8e19c7" d="M 169.5,267.5 C 170.167,267.5 170.833,267.5 171.5,267.5C 170.833,272.833 170.167,272.833 169.5,267.5 Z"/></g>
<g><path style="opacity:1" fill="#a87f3b" d="M 286.5,262.5 C 286.789,268.591 286.455,274.591 285.5,280.5C 285.167,280.5 284.833,280.5 284.5,280.5C 283.463,279.07 282.796,277.403 282.5,275.5C 283.925,277.031 284.591,276.698 284.5,274.5C 283.911,270.029 284.577,266.029 286.5,262.5 Z"/></g>
<g><path style="opacity:1" fill="#8a5d37" d="M 294.5,267.5 C 302.563,266.396 305.397,269.73 303,277.5C 299.845,282.285 296.345,282.618 292.5,278.5C 290.919,274.297 291.586,270.63 294.5,267.5 Z"/></g>
<g><path style="opacity:1" fill="#8d94b2" d="M 295.5,270.5 C 295.5,272.833 295.5,275.167 295.5,277.5C 294.007,276.688 293.34,275.355 293.5,273.5C 293.64,271.97 294.307,270.97 295.5,270.5 Z"/></g>
<g><path style="opacity:1" fill="#f2f0ea" d="M 295.5,277.5 C 295.5,275.167 295.5,272.833 295.5,270.5C 298.682,268.812 300.682,269.812 301.5,273.5C 301.195,277.844 299.195,279.177 295.5,277.5 Z"/></g>
<g><path style="opacity:1" fill="#9e48ca" d="M 166.5,273.5 C 166.34,275.199 166.506,276.866 167,278.5C 167.69,277.262 168.19,277.262 168.5,278.5C 168.5,279.5 168.5,280.5 168.5,281.5C 167.167,281.5 165.833,281.5 164.5,281.5C 164.173,276.786 164.507,272.12 165.5,267.5C 166.466,269.396 166.799,271.396 166.5,273.5 Z"/></g>
<g><path style="opacity:1" fill="#529ab8" d="M 215.5,267.5 C 223.563,266.396 226.397,269.73 224,277.5C 220.829,282.414 217.163,282.747 213,278.5C 212.333,275.5 212.333,272.5 213,269.5C 213.995,268.934 214.828,268.267 215.5,267.5 Z"/></g>
<g><path style="opacity:1" fill="#f1f4f2" d="M 217.5,269.5 C 218.822,269.33 219.989,269.663 221,270.5C 221.667,272.833 221.667,275.167 221,277.5C 217.474,278.832 215.641,277.499 215.5,273.5C 215.803,271.886 216.47,270.552 217.5,269.5 Z"/></g>
<g><path style="opacity:1" fill="#79533d" d="M 357.5,267.5 C 360.394,267.339 363.394,267.672 366.5,268.5C 366.5,269.167 366.5,269.833 366.5,270.5C 365.609,269.89 364.609,269.557 363.5,269.5C 359.76,268.741 358.093,270.241 358.5,274C 358.271,277.603 359.938,279.436 363.5,279.5C 364.167,279.833 364.833,280.167 365.5,280.5C 363.643,281.754 361.643,281.754 359.5,280.5C 358.526,282.743 358.192,285.076 358.5,287.5C 357.833,287.5 357.167,287.5 356.5,287.5C 357.46,280.922 357.793,274.255 357.5,267.5 Z"/></g>
<g><path style="opacity:1" fill="#bab2eb" d="M 138.5,271.5 C 138.5,273.833 138.5,276.167 138.5,278.5C 139.5,278.5 140.5,278.5 141.5,278.5C 141.737,279.791 141.404,280.791 140.5,281.5C 140.179,279.952 139.179,279.285 137.5,279.5C 137.194,276.615 137.527,273.948 138.5,271.5 Z"/></g>
<g><path style="opacity:1" fill="#403336" d="M 264.5,277.5 C 265.5,277.5 266.5,277.5 267.5,277.5C 267.5,278.833 267.5,280.167 267.5,281.5C 266.5,281.5 265.5,281.5 264.5,281.5C 264.5,280.167 264.5,278.833 264.5,277.5 Z"/></g>
<g><path style="opacity:1" fill="#9a3ec8" d="M 151.5,267.5 C 159.475,266.944 162.308,270.61 160,278.5C 155.837,282.747 152.171,282.414 149,277.5C 147.863,273.537 148.697,270.204 151.5,267.5 Z"/></g>
<g><path style="opacity:1" fill="#f2eef6" d="M 152.5,269.5 C 154.144,269.286 155.644,269.62 157,270.5C 157.769,273.099 157.602,275.599 156.5,278C 154.888,278.72 153.388,278.554 152,277.5C 151.278,274.739 151.445,272.073 152.5,269.5 Z"/></g>
<g><path style="opacity:1" fill="#b17ed8" d="M 112.5,279.5 C 113.043,279.56 113.376,279.893 113.5,280.5C 110.691,281.8 108.024,281.8 105.5,280.5C 108.059,280.802 110.393,280.468 112.5,279.5 Z"/></g>
<g><path style="opacity:1" fill="#a0897f" d="M 314.5,278.5 C 316.5,278.5 318.5,278.5 320.5,278.5C 320.5,279.5 320.5,280.5 320.5,281.5C 317.813,281.664 315.146,281.497 312.5,281C 311.944,280.617 311.611,280.117 311.5,279.5C 311.611,280.117 311.944,280.617 312.5,281C 315.146,281.497 317.813,281.664 320.5,281.5C 320.5,280.5 320.5,279.5 320.5,278.5C 318.5,278.5 316.5,278.5 314.5,278.5 Z"/></g>
<g><path style="opacity:1" fill="#93848b" d="M 331.5,264.5 C 331.5,269.167 331.5,273.833 331.5,278.5C 332.833,278.5 334.167,278.5 335.5,278.5C 335.5,279.5 335.5,280.5 335.5,281.5C 331.629,281.815 327.962,281.482 324.5,280.5C 327.85,280.665 331.183,280.498 334.5,280C 333.207,279.51 331.873,279.343 330.5,279.5C 330.179,274.305 330.513,269.305 331.5,264.5 Z"/></g>
<g><path style="opacity:1" fill="#48a445" d="M 358.5,287.5 C 359.531,286.645 360.697,285.978 362,285.5C 364.591,286.434 366.924,287.767 369,289.5C 371.059,287.93 373.226,286.597 375.5,285.5C 375.068,286.71 374.401,287.71 373.5,288.5C 372.089,289.908 370.423,290.908 368.5,291.5C 366.253,290.594 364.253,289.261 362.5,287.5C 360.72,289.444 358.553,290.777 356,291.5C 354,290.167 352,288.833 350,287.5C 347.952,289.053 345.785,290.386 343.5,291.5C 341.215,290.386 339.048,289.053 337,287.5C 335.295,289.192 333.295,290.525 331,291.5C 329,290.167 327,288.833 325,287.5C 322.952,289.053 320.785,290.386 318.5,291.5C 316.215,290.386 314.048,289.053 312,287.5C 310,288.833 308,290.167 306,291.5C 303.447,290.777 301.28,289.444 299.5,287.5C 297.72,289.444 295.553,290.777 293,291.5C 291,290.167 289,288.833 287,287.5C 285,288.833 283,290.167 281,291.5C 278.447,290.777 276.28,289.444 274.5,287.5C 272.72,289.444 270.553,290.777 268,291.5C 266,290.167 264,288.833 262,287.5C 259.952,289.053 257.785,290.386 255.5,291.5C 253.253,290.594 251.253,289.261 249.5,287.5C 247.747,289.261 245.747,290.594 243.5,291.5C 241.215,290.386 239.048,289.053 237,287.5C 235,288.833 233,290.167 231,291.5C 228.447,290.777 226.28,289.444 224.5,287.5C 222.72,289.444 220.553,290.777 218,291.5C 216,290.167 214,288.833 212,287.5C 209.952,289.053 207.785,290.386 205.5,291.5C 203.253,290.594 201.253,289.261 199.5,287.5C 198.833,287.833 198.167,288.167 197.5,288.5C 196.3,286.893 196.8,285.893 199,285.5C 201.553,286.223 203.72,287.556 205.5,289.5C 207.28,287.556 209.447,286.223 212,285.5C 214,286.833 216,288.167 218,289.5C 220,288.167 222,286.833 224,285.5C 226.591,286.434 228.924,287.767 231,289.5C 232.47,287.428 234.47,286.094 237,285.5C 239,286.833 241,288.167 243,289.5C 245,288.167 247,286.833 249,285.5C 251.591,286.434 253.924,287.767 256,289.5C 258,288.167 260,286.833 262,285.5C 264,286.833 266,288.167 268,289.5C 270.048,287.947 272.215,286.614 274.5,285.5C 276.785,286.614 278.952,287.947 281,289.5C 283,288.167 285,286.833 287,285.5C 289,286.833 291,288.167 293,289.5C 295.076,287.767 297.409,286.434 300,285.5C 302,286.833 304,288.167 306,289.5C 308,288.167 310,286.833 312,285.5C 314,286.833 316,288.167 318,289.5C 320.076,287.767 322.409,286.434 325,285.5C 327,286.833 329,288.167 331,289.5C 333,288.167 335,286.833 337,285.5C 339.553,286.223 341.72,287.556 343.5,289.5C 345.28,287.556 347.447,286.223 350,285.5C 352,286.833 354,288.167 356,289.5C 357.301,289.361 358.134,288.695 358.5,287.5 Z"/></g>
<g><path style="opacity:1" fill="#2e2b3d" d="M 249.5,335.5 C 249.5,334.5 249.5,333.5 249.5,332.5C 251.201,330.577 253.201,330.243 255.5,331.5C 253.216,332.458 251.216,333.792 249.5,335.5 Z"/></g>
<g><path style="opacity:1" fill="#a18f8a" d="M 187.5,335.5 C 188.609,334.71 189.942,334.21 191.5,334C 188.167,333.333 184.833,333.333 181.5,334C 182.737,334.232 183.737,334.732 184.5,335.5C 183.167,335.5 181.833,335.5 180.5,335.5C 180.5,334.5 180.5,333.5 180.5,332.5C 184.5,332.5 188.5,332.5 192.5,332.5C 192.5,333.5 192.5,334.5 192.5,335.5C 190.833,335.5 189.167,335.5 187.5,335.5 Z"/></g>
<g><path style="opacity:1" fill="#7c4c1d" d="M 249.5,332.5 C 249.5,333.5 249.5,334.5 249.5,335.5C 247.824,336.183 247.157,337.517 247.5,339.5C 246.539,341.265 246.205,343.265 246.5,345.5C 245.366,343.034 245.199,340.367 246,337.5C 246.223,335.119 247.39,333.453 249.5,332.5 Z"/></g>
<g><path style="opacity:1" fill="#c0a9d8" d="M 262.5,333.5 C 263.209,332.596 264.209,332.263 265.5,332.5C 266.055,336.012 265.388,339.012 263.5,341.5C 263.5,341.167 263.5,340.833 263.5,340.5C 264.152,339.551 264.486,338.385 264.5,337C 264.392,335.319 263.725,334.152 262.5,333.5 Z"/></g>
<g><path style="opacity:1" fill="#a53a69" d="M 292.5,332.5 C 293.209,331.596 294.209,331.263 295.5,331.5C 295.5,333.833 295.5,336.167 295.5,338.5C 295.5,339.167 295.833,339.5 296.5,339.5C 296.167,340.167 295.833,340.833 295.5,341.5C 295.167,341.5 294.833,341.5 294.5,341.5C 293.912,338.39 293.245,335.39 292.5,332.5 Z"/></g>
<g><path style="opacity:1" fill="#4299ba" d="M 132.5,331.5 C 134.833,331.5 137.167,331.5 139.5,331.5C 139.334,337.176 139.501,342.843 140,348.5C 141.509,349.09 143.009,349.756 144.5,350.5C 141.23,352.214 138.73,351.548 137,348.5C 136.501,343.511 136.334,338.511 136.5,333.5C 134.517,333.843 133.183,333.176 132.5,331.5 Z"/></g>
<g><path style="opacity:1" fill="#dc9e7b" d="M 262.5,333.5 C 262.198,336.059 262.532,338.393 263.5,340.5C 263.5,340.833 263.5,341.167 263.5,341.5C 262.252,340.666 261.585,339.333 261.5,337.5C 261.511,335.955 261.844,334.622 262.5,333.5 Z"/></g>
<g><path style="opacity:1" fill="#7e4c2e" d="M 187.5,335.5 C 187.5,340.167 187.5,344.833 187.5,349.5C 189.288,349.215 190.955,349.548 192.5,350.5C 188.5,351.833 184.5,351.833 180.5,350.5C 181.689,349.571 183.022,349.238 184.5,349.5C 184.5,344.833 184.5,340.167 184.5,335.5C 183.737,334.732 182.737,334.232 181.5,334C 184.833,333.333 188.167,333.333 191.5,334C 189.942,334.21 188.609,334.71 187.5,335.5 Z"/></g>
<g><path style="opacity:1" fill="#a42d46" d="M 262.5,333.5 C 263.725,334.152 264.392,335.319 264.5,337C 264.486,338.385 264.152,339.551 263.5,340.5C 262.532,338.393 262.198,336.059 262.5,333.5 Z"/></g>
<g><path style="opacity:1" fill="#b64812" d="M 267.5,333.5 C 268.725,334.152 269.392,335.319 269.5,337C 269.486,338.385 269.152,339.551 268.5,340.5C 267.532,338.393 267.198,336.059 267.5,333.5 Z"/></g>
<g><path style="opacity:1" fill="#b27da0" d="M 267.5,333.5 C 268.209,332.596 269.209,332.263 270.5,332.5C 271.055,336.012 270.388,339.012 268.5,341.5C 268.5,341.167 268.5,340.833 268.5,340.5C 269.152,339.551 269.486,338.385 269.5,337C 269.392,335.319 268.725,334.152 267.5,333.5 Z"/></g>
<g><path style="opacity:1" fill="#aa2f2c" d="M 334.5,341.5 C 334.167,342.5 333.5,343.167 332.5,343.5C 332.737,342.209 332.404,341.209 331.5,340.5C 329.847,339.201 328.347,339.534 327,341.5C 326.503,343.81 326.337,346.143 326.5,348.5C 326.167,349.5 325.5,350.167 324.5,350.5C 324.174,346.116 324.508,341.783 325.5,337.5C 326.192,338.025 326.692,338.692 327,339.5C 330.573,336.468 333.073,337.134 334.5,341.5 Z"/></g>
<g><path style="opacity:1" fill="#a89182" d="M 235.5,338.5 C 233.801,338.34 232.134,338.506 230.5,339C 232.058,339.21 233.391,339.71 234.5,340.5C 232.833,340.5 231.167,340.5 229.5,340.5C 229.5,339.5 229.5,338.5 229.5,337.5C 231.735,337.205 233.735,337.539 235.5,338.5 Z"/></g>
<g><path style="opacity:1" fill="#f7d5a0" d="M 267.5,333.5 C 267.198,336.059 267.532,338.393 268.5,340.5C 268.5,340.833 268.5,341.167 268.5,341.5C 267.252,340.666 266.585,339.333 266.5,337.5C 266.511,335.955 266.844,334.622 267.5,333.5 Z"/></g>
<g><path style="opacity:1" fill="#fbfbf7" d="M 203.5,340.5 C 204.775,343.396 204.775,346.396 203.5,349.5C 202.833,349.5 202.167,349.5 201.5,349.5C 199.609,347.164 199.109,344.498 200,341.5C 201.011,340.663 202.178,340.33 203.5,340.5 Z"/></g>
<g><path style="opacity:1" fill="#8894aa" d="M 205.5,331.5 C 206.5,331.5 207.5,331.5 208.5,331.5C 208.824,338.354 208.491,345.021 207.5,351.5C 207.823,344.978 207.49,338.645 206.5,332.5C 205.833,332.5 205.5,332.167 205.5,331.5 Z"/></g>
<g><path style="opacity:1" fill="#7b4820" d="M 223.5,340.5 C 223.5,342.167 223.5,343.833 223.5,345.5C 220.102,345.18 216.768,345.513 213.5,346.5C 214.188,347.855 215.188,348.855 216.5,349.5C 216.833,350.167 217.167,350.833 217.5,351.5C 215.589,350.925 213.922,349.925 212.5,348.5C 212.198,345.941 212.532,343.607 213.5,341.5C 213.5,340.833 213.5,340.167 213.5,339.5C 214.312,338.007 215.645,337.34 217.5,337.5C 219.955,337.628 221.955,338.628 223.5,340.5 Z"/></g>
<g><path style="opacity:1" fill="#efece5" d="M 217.5,339.5 C 220.5,339.167 221.833,340.5 221.5,343.5C 219.396,343.799 217.396,343.466 215.5,342.5C 216.193,341.482 216.859,340.482 217.5,339.5 Z"/></g>
<g><path style="opacity:1" fill="#22276f" d="M 249.5,335.5 C 248.676,338.764 248.342,342.098 248.5,345.5C 247.539,343.735 247.205,341.735 247.5,339.5C 247.157,337.517 247.824,336.183 249.5,335.5 Z"/></g>
<g><path style="opacity:1" fill="#c06564" d="M 284.5,348.5 C 284.5,349.167 284.167,349.5 283.5,349.5C 283.04,346.757 282.374,344.757 281.5,343.5C 280.833,344.5 280.167,345.5 279.5,346.5C 279.5,343.5 279.5,340.5 279.5,337.5C 280.833,337.5 282.167,337.5 283.5,337.5C 284.244,341.119 284.577,344.785 284.5,348.5 Z"/></g>
<g><path style="opacity:0.885" fill="#fcf7f2" d="M 331.5,340.5 C 332.404,341.209 332.737,342.209 332.5,343.5C 331.167,344.5 329.833,345.5 328.5,346.5C 328.34,344.801 328.506,343.134 329,341.5C 329.671,340.748 330.504,340.414 331.5,340.5 Z"/></g>
<g><path style="opacity:1" fill="#302230" d="M 247.5,339.5 C 247.205,341.735 247.539,343.735 248.5,345.5C 249.391,349.393 251.725,352.06 255.5,353.5C 254.667,353.833 253.833,354.167 253,354.5C 251.107,353.992 249.607,352.992 248.5,351.5C 248.771,349.62 248.104,348.287 246.5,347.5C 246.5,346.833 246.5,346.167 246.5,345.5C 246.205,343.265 246.539,341.265 247.5,339.5 Z"/></g>
<g><path style="opacity:1" fill="#b31901" d="M 292.5,332.5 C 293.245,335.39 293.912,338.39 294.5,341.5C 293.586,344.728 293.253,348.061 293.5,351.5C 292.51,345.355 292.177,339.022 292.5,332.5 Z"/></g>
<g><path style="opacity:1" fill="#b03e23" d="M 296.5,339.5 C 295.833,339.5 295.5,339.167 295.5,338.5C 298.074,336.923 300.407,337.257 302.5,339.5C 303.491,343.445 303.824,347.445 303.5,351.5C 302.5,351.5 301.5,351.5 300.5,351.5C 300.5,347.5 300.5,343.5 300.5,339.5C 299.167,339.5 297.833,339.5 296.5,339.5 Z"/></g>
<g><path style="opacity:0.875" fill="#d6c8e5" d="M 331.5,340.5 C 330.504,340.414 329.671,340.748 329,341.5C 328.506,343.134 328.34,344.801 328.5,346.5C 328.167,347.5 327.5,348.167 326.5,348.5C 326.337,346.143 326.503,343.81 327,341.5C 328.347,339.534 329.847,339.201 331.5,340.5 Z"/></g>
<g><path style="opacity:1" fill="#489dc0" d="M 100.5,332.5 C 101.5,332.5 102.5,332.5 103.5,332.5C 103.5,335.5 103.5,338.5 103.5,341.5C 105.833,341.5 108.167,341.5 110.5,341.5C 110.5,338.5 110.5,335.5 110.5,332.5C 111.5,332.5 112.5,332.5 113.5,332.5C 113.5,338.833 113.5,345.167 113.5,351.5C 112.5,351.5 111.5,351.5 110.5,351.5C 110.5,348.833 110.5,346.167 110.5,343.5C 108.167,343.5 105.833,343.5 103.5,343.5C 103.5,346.167 103.5,348.833 103.5,351.5C 102.5,351.5 101.5,351.5 100.5,351.5C 100.5,345.167 100.5,338.833 100.5,332.5 Z"/></g>
<g><path style="opacity:1" fill="#a5b0c1" d="M 203.5,339.5 C 203.5,339.833 203.5,340.167 203.5,340.5C 202.178,340.33 201.011,340.663 200,341.5C 199.109,344.498 199.609,347.164 201.5,349.5C 197.746,348.172 196.579,345.506 198,341.5C 199.444,339.845 201.278,339.178 203.5,339.5 Z"/></g>
<g><path style="opacity:1" fill="#662a04" d="M 206.5,332.5 C 207.49,338.645 207.823,344.978 207.5,351.5C 207.167,351.5 206.833,351.5 206.5,351.5C 206.3,345.334 206.3,339.001 206.5,332.5 Z"/></g>
<g><path style="opacity:1" fill="#887171" d="M 217.5,339.5 C 216.859,340.482 216.193,341.482 215.5,342.5C 217.396,343.466 219.396,343.799 221.5,343.5C 219.052,344.473 216.385,344.806 213.5,344.5C 213.5,343.5 213.5,342.5 213.5,341.5C 214.605,340.4 215.938,339.733 217.5,339.5 Z"/></g>
<g><path style="opacity:1" fill="#7f4c21" d="M 198.5,338.5 C 200.415,338.216 202.081,338.549 203.5,339.5C 201.278,339.178 199.444,339.845 198,341.5C 196.579,345.506 197.746,348.172 201.5,349.5C 202.167,349.5 202.833,349.5 203.5,349.5C 203.833,349.5 204.167,349.5 204.5,349.5C 203.866,350.947 202.699,351.613 201,351.5C 198.966,351.568 197.466,350.734 196.5,349C 194.762,344.912 195.428,341.412 198.5,338.5 Z"/></g>
<g><path style="opacity:1" fill="#ddb679" d="M 213.5,339.5 C 213.5,340.167 213.5,340.833 213.5,341.5C 212.532,343.607 212.198,345.941 212.5,348.5C 211.366,346.034 211.199,343.367 212,340.5C 212.383,339.944 212.883,339.611 213.5,339.5 Z"/></g>
<g><path style="opacity:1" fill="#ab5993" d="M 294.5,341.5 C 294.833,341.5 295.167,341.5 295.5,341.5C 296.069,345.329 295.402,348.663 293.5,351.5C 293.253,348.061 293.586,344.728 294.5,341.5 Z"/></g>
<g><path style="opacity:1" fill="#a8332a" d="M 319.5,341.5 C 319.5,342.833 319.5,344.167 319.5,345.5C 316.102,345.18 312.768,345.513 309.5,346.5C 309.855,347.522 310.522,348.189 311.5,348.5C 313.698,349.165 316.031,349.832 318.5,350.5C 309.69,352.858 306.19,349.525 308,340.5C 312.269,336.297 316.103,336.63 319.5,341.5 Z"/></g>
<g><path style="opacity:1" fill="#ebdfdf" d="M 311.5,339.5 C 314.278,339.022 316.278,340.022 317.5,342.5C 315.257,343.474 312.924,343.808 310.5,343.5C 310.433,342.041 310.766,340.708 311.5,339.5 Z"/></g>
<g><path style="opacity:1" fill="#4496b5" d="M 151.5,337.5 C 157.675,336.677 160.675,339.344 160.5,345.5C 157.5,345.5 154.5,345.5 151.5,345.5C 151.281,346.675 151.614,347.675 152.5,348.5C 155.177,349.074 157.843,349.741 160.5,350.5C 151.246,353.298 147.413,349.965 149,340.5C 150.045,339.627 150.878,338.627 151.5,337.5 Z"/></g>
<g><path style="opacity:1" fill="#eaedec" d="M 153.5,339.5 C 155.912,339.244 157.579,340.244 158.5,342.5C 156.167,343.833 153.833,343.833 151.5,342.5C 152.193,341.482 152.859,340.482 153.5,339.5 Z"/></g>
<g><path style="opacity:1" fill="#b9b9c0" d="M 223.5,340.5 C 225.28,341.99 225.946,343.99 225.5,346.5C 222.15,346.335 218.817,346.502 215.5,347C 216.381,347.708 217.047,348.542 217.5,349.5C 217.167,349.5 216.833,349.5 216.5,349.5C 215.188,348.855 214.188,347.855 213.5,346.5C 216.768,345.513 220.102,345.18 223.5,345.5C 223.5,343.833 223.5,342.167 223.5,340.5 Z"/></g>
<g><path style="opacity:1" fill="#aa2b40" d="M 279.5,346.5 C 279.5,348.167 279.5,349.833 279.5,351.5C 278.5,351.5 277.5,351.5 276.5,351.5C 276.112,346.754 276.112,342.087 276.5,337.5C 277.042,340.786 278.042,343.786 279.5,346.5 Z"/></g>
<g><path style="opacity:1" fill="#bf5d35" d="M 287.5,337.5 C 287.331,342.181 286.998,346.848 286.5,351.5C 284.821,351.715 283.821,351.048 283.5,349.5C 284.167,349.5 284.5,349.167 284.5,348.5C 284.875,344.558 285.875,340.891 287.5,337.5 Z"/></g>
<g><path style="opacity:1" fill="#af78a6" d="M 287.5,337.5 C 288.586,337.62 289.253,338.287 289.5,339.5C 288.916,343.732 287.916,347.732 286.5,351.5C 286.998,346.848 287.331,342.181 287.5,337.5 Z"/></g>
<g><path style="opacity:1" fill="#cfb0c4" d="M 319.5,341.5 C 320.451,342.919 320.784,344.585 320.5,346.5C 316.988,345.945 313.988,346.612 311.5,348.5C 310.522,348.189 309.855,347.522 309.5,346.5C 312.768,345.513 316.102,345.18 319.5,345.5C 319.5,344.167 319.5,342.833 319.5,341.5 Z"/></g>
<g><path style="opacity:1" fill="#807c8c" d="M 237.5,339.5 C 238.117,339.611 238.617,339.944 239,340.5C 239.037,344.089 239.87,347.422 241.5,350.5C 241.376,351.107 241.043,351.44 240.5,351.5C 238.777,347.789 237.777,343.789 237.5,339.5 Z"/></g>
<g><path style="opacity:1" fill="#87572c" d="M 235.5,338.5 C 235.842,339.338 236.508,339.672 237.5,339.5C 237.777,343.789 238.777,347.789 240.5,351.5C 238.549,351.773 237.049,351.107 236,349.5C 233.582,351.68 230.916,352.013 228,350.5C 227.104,347.975 227.604,345.808 229.5,344C 231.9,343.814 234.234,343.314 236.5,342.5C 236.145,341.478 235.478,340.811 234.5,340.5C 233.391,339.71 232.058,339.21 230.5,339C 232.134,338.506 233.801,338.34 235.5,338.5 Z"/></g>
<g><path style="opacity:1" fill="#e2e2e3" d="M 229.5,345.5 C 231.5,345.5 233.5,345.5 235.5,345.5C 235.241,349.068 233.241,350.401 229.5,349.5C 229.5,348.167 229.5,346.833 229.5,345.5 Z"/></g>
<g><path style="opacity:1" fill="#4098b8" d="M 120.5,337.5 C 128.379,337.216 131.212,340.883 129,348.5C 125.61,352.032 121.943,352.366 118,349.5C 117.333,346.5 117.333,343.5 118,340.5C 118.698,339.309 119.531,338.309 120.5,337.5 Z"/></g>
<g><path style="opacity:1" fill="#e5edee" d="M 121.5,339.5 C 125.687,340.511 127.187,343.178 126,347.5C 121.96,350.513 119.793,349.346 119.5,344C 119.519,342.167 120.185,340.667 121.5,339.5 Z"/></g>
<g><path style="opacity:1" fill="#191016" d="M 169.5,348.5 C 171.465,348.948 171.798,349.948 170.5,351.5C 169.614,350.675 169.281,349.675 169.5,348.5 Z"/></g>
<g><path style="opacity:1" fill="#ab8348" d="M 205.5,331.5 C 205.5,332.167 205.833,332.5 206.5,332.5C 206.3,339.001 206.3,345.334 206.5,351.5C 205.833,350.833 205.167,350.167 204.5,349.5C 204.167,349.5 203.833,349.5 203.5,349.5C 204.775,346.396 204.775,343.396 203.5,340.5C 203.5,340.167 203.5,339.833 203.5,339.5C 202.081,338.549 200.415,338.216 198.5,338.5C 200.265,337.539 202.265,337.205 204.5,337.5C 204.205,335.265 204.539,333.265 205.5,331.5 Z"/></g>
<g><path style="opacity:1" fill="#704645" d="M 216.5,349.5 C 216.833,349.5 217.167,349.5 217.5,349.5C 225.5,350.167 225.5,350.833 217.5,351.5C 217.167,350.833 216.833,350.167 216.5,349.5 Z"/></g>
<g><path style="opacity:1" fill="#7b4621" d="M 246.5,347.5 C 248.104,348.287 248.771,349.62 248.5,351.5C 247.326,350.486 246.66,349.153 246.5,347.5 Z"/></g>
<g><path style="opacity:1" fill="#c2a4cf" d="M 281.5,343.5 C 282.036,346.698 281.369,349.365 279.5,351.5C 279.5,349.833 279.5,348.167 279.5,346.5C 280.167,345.5 280.833,344.5 281.5,343.5 Z"/></g>
<g><path style="opacity:1" fill="#ff4e48" d="M 310.5,360.5 C 310.167,361.5 309.5,362.167 308.5,362.5C 307.521,360.855 306.188,359.521 304.5,358.5C 302.747,360.261 300.747,361.594 298.5,362.5C 296.215,361.386 294.048,360.053 292,358.5C 289.952,360.053 287.785,361.386 285.5,362.5C 283.253,361.594 281.253,360.261 279.5,358.5C 275.253,363.792 271.086,363.792 267,358.5C 264.952,360.053 262.785,361.386 260.5,362.5C 258.215,361.386 256.048,360.053 254,358.5C 249.914,363.792 245.747,363.792 241.5,358.5C 239.747,360.261 237.747,361.594 235.5,362.5C 233.215,361.386 231.048,360.053 229,358.5C 226.952,360.053 224.785,361.386 222.5,362.5C 220.253,361.594 218.253,360.261 216.5,358.5C 214.747,360.261 212.747,361.594 210.5,362.5C 208.215,361.386 206.048,360.053 204,358.5C 201.952,360.053 199.785,361.386 197.5,362.5C 195.253,361.594 193.253,360.261 191.5,358.5C 189.747,360.261 187.747,361.594 185.5,362.5C 183.215,361.386 181.048,360.053 179,358.5C 176.952,360.053 174.785,361.386 172.5,362.5C 170.215,361.386 168.048,360.053 166,358.5C 162,363.833 158,363.833 154,358.5C 151.952,360.053 149.785,361.386 147.5,362.5C 145.215,361.386 143.048,360.053 141,358.5C 136.914,363.792 132.747,363.792 128.5,358.5C 126.747,360.261 124.747,361.594 122.5,362.5C 120.215,361.386 118.048,360.053 116,358.5C 113.952,360.053 111.785,361.386 109.5,362.5C 107.253,361.594 105.253,360.261 103.5,358.5C 102.522,358.977 101.689,359.643 101,360.5C 100.389,356.912 101.889,355.746 105.5,357C 106.725,358.563 108.225,359.73 110,360.5C 111.986,359.343 113.82,358.009 115.5,356.5C 117.833,357.833 120.167,359.167 122.5,360.5C 124.5,359.167 126.5,357.833 128.5,356.5C 130.785,357.614 132.952,358.947 135,360.5C 137.048,358.947 139.215,357.614 141.5,356.5C 143.229,358.228 145.229,359.561 147.5,360.5C 149.771,359.561 151.771,358.228 153.5,356.5C 155.785,357.614 157.952,358.947 160,360.5C 162.048,358.947 164.215,357.614 166.5,356.5C 168.229,358.228 170.229,359.561 172.5,360.5C 174.771,359.561 176.771,358.228 178.5,356.5C 180.785,357.614 182.952,358.947 185,360.5C 187.048,358.947 189.215,357.614 191.5,356.5C 193.785,357.614 195.952,358.947 198,360.5C 200,359.167 202,357.833 204,356.5C 206,357.833 208,359.167 210,360.5C 212.048,358.947 214.215,357.614 216.5,356.5C 218.785,357.614 220.952,358.947 223,360.5C 225,359.167 227,357.833 229,356.5C 231.048,358.053 233.215,359.386 235.5,360.5C 237.229,358.772 239.229,357.439 241.5,356.5C 243.785,357.614 245.952,358.947 248,360.5C 250.048,358.947 252.215,357.614 254.5,356.5C 256.229,358.228 258.229,359.561 260.5,360.5C 262.229,358.772 264.229,357.439 266.5,356.5C 268.785,357.614 270.952,358.947 273,360.5C 275.048,358.947 277.215,357.614 279.5,356.5C 281.257,358.409 283.424,359.742 286,360.5C 287.637,358.885 289.471,357.551 291.5,356.5C 293.785,357.614 295.952,358.947 298,360.5C 300.048,358.947 302.215,357.614 304.5,356.5C 306.223,358.218 308.223,359.551 310.5,360.5 Z"/></g>
</svg>
