<svg id="svg" version="1.1" xmlns="http://www.w3.org/2000/svg" xmlns:xlink="http://www.w3.org/1999/xlink" width="400" height="400" viewBox="0, 0, 400,400"><g id="svgg"><path id="path0" d="M332.256 68.709 C 332.151 68.879,332.590 70.089,333.232 71.399 C 341.882 89.038,335.817 112.013,319.826 122.180 C 317.556 123.623,311.842 126.400,311.141 126.400 C 310.760 126.400,310.336 126.580,310.200 126.800 C 310.064 127.020,309.524 127.200,309.000 127.200 C 308.476 127.200,307.936 127.380,307.800 127.600 C 307.664 127.820,306.944 128.000,306.200 128.000 C 305.456 128.000,304.736 128.180,304.600 128.400 C 304.452 128.639,301.804 128.800,298.000 128.800 C 294.196 128.800,291.548 128.639,291.400 128.400 C 291.094 127.905,289.822 127.882,288.895 128.353 C 288.513 128.548,287.730 128.925,287.156 129.191 C 286.061 129.699,284.800 131.862,284.800 133.233 C 284.800 134.829,286.178 136.623,291.432 141.868 C 297.147 147.573,298.000 148.082,298.000 145.787 C 298.000 144.714,298.326 144.047,299.354 143.019 L 300.709 141.664 310.254 141.488 C 319.676 141.314,320.908 141.225,321.455 140.678 C 321.608 140.525,322.143 140.400,322.643 140.400 C 323.143 140.400,323.664 140.220,323.800 140.000 C 323.936 139.780,324.487 139.600,325.024 139.600 C 325.561 139.600,326.000 139.420,326.000 139.200 C 326.000 138.980,326.360 138.800,326.800 138.800 C 327.240 138.800,327.600 138.620,327.600 138.400 C 327.600 138.180,327.960 138.000,328.400 138.000 C 328.840 138.000,329.200 137.820,329.200 137.600 C 329.200 137.380,329.560 137.200,330.000 137.200 C 330.440 137.200,330.800 137.020,330.800 136.800 C 330.800 136.580,331.120 136.400,331.512 136.400 C 331.903 136.400,332.483 136.040,332.800 135.600 C 333.117 135.160,333.595 134.800,333.861 134.800 C 334.766 134.800,342.400 126.838,342.400 125.893 C 342.400 125.618,342.760 125.168,343.200 124.893 C 343.640 124.618,344.000 124.125,344.000 123.797 C 344.000 123.468,344.180 123.200,344.400 123.200 C 344.620 123.200,344.800 122.930,344.800 122.600 C 344.800 122.270,344.980 122.000,345.200 122.000 C 345.420 122.000,345.600 121.730,345.600 121.400 C 345.600 121.070,345.780 120.800,346.000 120.800 C 346.220 120.800,346.400 120.339,346.400 119.776 C 346.400 119.196,346.573 118.860,346.800 119.000 C 347.033 119.144,347.200 118.737,347.200 118.024 C 347.200 117.351,347.380 116.800,347.600 116.800 C 347.820 116.800,348.000 116.260,348.000 115.600 C 348.000 114.940,348.180 114.400,348.400 114.400 C 348.620 114.400,348.800 113.860,348.800 113.200 C 348.800 112.540,348.952 112.000,349.137 112.000 C 349.322 112.000,349.513 110.785,349.560 109.300 C 349.607 107.815,349.816 106.429,350.023 106.220 C 350.535 105.704,350.514 98.800,350.000 98.800 C 349.775 98.800,349.600 97.675,349.600 96.224 C 349.600 94.807,349.420 93.536,349.200 93.400 C 348.980 93.264,348.800 92.353,348.800 91.376 C 348.800 90.399,348.620 89.600,348.400 89.600 C 348.180 89.600,348.000 89.240,348.000 88.800 C 348.000 88.360,347.820 88.000,347.600 88.000 C 347.380 88.000,347.200 87.550,347.200 87.000 C 347.200 86.450,347.020 86.000,346.800 86.000 C 346.580 86.000,346.400 85.590,346.400 85.088 C 346.400 84.587,346.040 83.917,345.600 83.600 C 345.160 83.283,344.800 82.703,344.800 82.312 C 344.800 81.920,344.620 81.600,344.400 81.600 C 344.180 81.600,344.000 81.312,344.000 80.960 C 344.000 80.609,343.460 79.817,342.800 79.200 C 342.140 78.583,341.600 77.889,341.600 77.657 C 341.600 77.425,340.610 76.237,339.400 75.017 C 338.190 73.798,337.155 72.597,337.100 72.348 C 336.951 71.676,335.496 70.277,334.275 69.632 C 333.684 69.320,333.200 68.915,333.200 68.732 C 333.200 68.313,332.511 68.296,332.256 68.709 M120.000 95.789 C 120.000 95.913,121.125 97.151,122.500 98.540 C 123.875 99.929,125.810 101.966,126.800 103.066 C 127.790 104.166,129.140 105.402,129.800 105.813 C 130.460 106.223,131.322 106.884,131.716 107.280 C 132.109 107.676,132.874 108.000,133.416 108.000 C 133.957 108.000,134.400 108.180,134.400 108.400 C 134.400 108.620,135.030 108.800,135.800 108.800 C 136.570 108.800,137.200 108.980,137.200 109.200 C 137.200 109.443,138.941 109.600,141.624 109.600 C 144.471 109.600,145.959 109.743,145.800 110.000 C 145.643 110.254,146.729 110.400,148.776 110.400 C 150.659 110.400,152.000 110.566,152.000 110.800 C 152.000 111.020,152.720 111.200,153.600 111.200 C 154.480 111.200,155.200 111.380,155.200 111.600 C 155.200 111.820,155.740 112.000,156.400 112.000 C 157.060 112.000,157.600 112.180,157.600 112.400 C 157.600 112.620,157.949 112.800,158.376 112.800 C 158.803 112.800,159.264 112.980,159.400 113.200 C 159.536 113.420,159.997 113.600,160.424 113.600 C 160.851 113.600,161.200 113.780,161.200 114.000 C 161.200 114.220,161.650 114.400,162.200 114.400 C 163.989 114.400,163.264 113.273,158.203 108.184 C 153.698 103.653,147.303 99.873,142.200 98.724 C 141.320 98.526,139.880 98.199,139.000 97.999 C 138.120 97.799,135.026 97.627,132.124 97.617 C 129.057 97.607,126.744 97.432,126.600 97.200 C 126.464 96.980,125.769 96.800,125.056 96.800 C 124.343 96.800,123.589 96.642,123.380 96.449 C 122.931 96.033,120.000 95.462,120.000 95.789 M91.826 124.300 C 91.958 124.905,92.167 125.670,92.290 126.000 C 92.913 127.670,93.315 131.149,93.471 136.200 C 93.565 139.280,93.813 141.971,94.022 142.180 C 94.230 142.389,94.400 143.143,94.400 143.856 C 94.400 144.569,94.580 145.264,94.800 145.400 C 95.020 145.536,95.200 146.095,95.200 146.643 C 95.200 147.191,95.560 148.384,96.000 149.294 C 96.440 150.205,96.800 151.138,96.800 151.367 C 96.800 151.763,98.479 154.685,100.726 158.200 C 103.174 162.028,110.246 168.288,111.127 167.406 C 111.264 167.269,111.187 167.031,110.954 166.878 C 110.721 166.725,110.282 165.745,109.978 164.700 C 109.674 163.655,109.285 162.800,109.113 162.800 C 108.941 162.800,108.800 162.451,108.800 162.024 C 108.800 161.597,108.630 161.142,108.423 161.014 C 108.216 160.886,107.933 159.931,107.796 158.891 C 107.658 157.851,107.384 156.640,107.187 156.200 C 106.991 155.760,106.741 152.970,106.634 150.000 C 106.401 143.574,106.029 140.065,105.550 139.769 C 105.357 139.650,105.200 139.203,105.200 138.776 C 105.200 138.349,105.020 138.000,104.800 138.000 C 104.580 138.000,104.400 137.640,104.400 137.200 C 104.400 136.760,104.220 136.400,104.000 136.400 C 103.780 136.400,103.600 136.080,103.600 135.688 C 103.600 135.297,103.240 134.717,102.800 134.400 C 102.360 134.083,102.000 133.591,102.000 133.307 C 102.000 133.022,100.290 131.080,98.200 128.990 C 96.110 126.900,94.400 125.301,94.400 125.437 C 94.400 125.573,93.878 125.126,93.240 124.442 C 91.811 122.913,91.515 122.883,91.826 124.300 M364.157 215.769 C 364.037 216.082,364.132 216.700,364.369 217.142 C 364.894 218.123,364.943 224.141,364.433 225.105 C 364.232 225.487,363.845 226.430,363.574 227.200 C 362.684 229.725,319.686 272.510,316.310 274.230 C 314.830 274.983,313.266 275.600,312.834 275.600 C 312.401 275.600,311.936 275.780,311.800 276.000 C 311.664 276.221,309.870 276.400,307.800 276.400 C 305.730 276.400,303.936 276.221,303.800 276.000 C 303.664 275.780,303.239 275.600,302.855 275.600 C 302.046 275.600,297.864 273.604,297.667 273.124 C 297.432 272.553,296.400 272.778,296.400 273.400 C 296.400 273.730,296.579 274.000,296.797 274.000 C 297.015 274.000,300.164 276.970,303.794 280.600 C 307.424 284.230,310.575 287.200,310.797 287.200 C 311.019 287.200,311.200 287.380,311.200 287.600 C 311.200 287.820,311.549 288.000,311.976 288.000 C 312.403 288.000,312.864 288.180,313.000 288.400 C 313.136 288.620,313.651 288.800,314.144 288.800 C 314.637 288.800,315.233 288.993,315.470 289.230 C 315.729 289.489,317.630 289.644,320.250 289.621 C 325.661 289.573,326.000 289.545,326.000 289.133 C 326.000 288.950,326.439 288.800,326.976 288.800 C 327.513 288.800,328.064 288.620,328.200 288.400 C 328.336 288.180,328.757 288.000,329.135 288.000 C 329.514 288.000,330.083 287.640,330.400 287.200 C 330.717 286.760,331.199 286.400,331.471 286.400 C 331.743 286.400,334.040 284.330,336.574 281.800 C 339.109 279.270,341.072 277.200,340.936 277.200 C 340.801 277.200,341.648 276.345,342.818 275.300 C 345.043 273.315,356.705 261.620,359.300 258.772 C 360.125 257.867,360.800 257.231,360.800 257.359 C 360.800 257.487,363.860 254.525,367.600 250.777 C 371.340 247.029,374.400 243.734,374.400 243.456 C 374.400 243.178,374.715 242.593,375.100 242.155 C 376.169 240.940,376.800 239.696,376.800 238.805 C 376.800 238.362,376.980 238.000,377.200 238.000 C 377.437 238.000,377.600 236.533,377.600 234.400 C 377.600 232.267,377.437 230.800,377.200 230.800 C 376.980 230.800,376.800 230.260,376.800 229.600 C 376.800 228.940,376.620 228.400,376.400 228.400 C 376.180 228.400,376.000 228.040,376.000 227.600 C 376.000 227.160,375.832 226.800,375.627 226.800 C 375.422 226.800,375.145 226.456,375.012 226.036 C 374.775 225.292,365.093 215.200,364.615 215.200 C 364.483 215.200,364.277 215.456,364.157 215.769 M247.000 216.803 C 243.932 217.098,242.000 217.480,239.400 218.307 C 238.066 218.732,231.580 222.033,229.964 223.109 C 226.456 225.447,225.619 226.110,223.970 227.859 C 222.964 228.927,221.834 230.250,221.459 230.800 C 221.084 231.350,220.238 232.520,219.579 233.400 C 217.765 235.822,215.313 240.816,214.850 243.030 C 214.623 244.113,214.221 245.810,213.956 246.800 C 213.316 249.191,213.018 260.378,213.579 260.939 C 213.811 261.171,214.000 262.123,214.000 263.056 C 214.000 263.989,214.156 264.849,214.346 264.967 C 214.536 265.084,214.796 265.821,214.923 266.603 C 215.991 273.181,230.000 290.028,230.000 284.733 C 230.000 284.330,229.820 284.000,229.600 284.000 C 229.380 284.000,229.200 283.640,229.200 283.200 C 229.200 282.760,229.020 282.400,228.800 282.400 C 228.580 282.400,228.400 281.939,228.400 281.376 C 228.400 280.796,228.227 280.460,228.000 280.600 C 227.758 280.750,227.600 280.196,227.600 279.200 C 227.600 278.204,227.442 277.650,227.200 277.800 C 226.958 277.949,226.800 277.404,226.800 276.424 C 226.800 275.531,226.620 274.800,226.400 274.800 C 226.149 274.800,226.000 272.267,226.000 268.000 C 226.000 263.733,226.149 261.200,226.400 261.200 C 226.620 261.200,226.800 260.480,226.800 259.600 C 226.800 258.720,226.980 258.000,227.200 258.000 C 227.420 258.000,227.600 257.460,227.600 256.800 C 227.600 256.140,227.780 255.600,228.000 255.600 C 228.220 255.600,228.400 255.150,228.400 254.600 C 228.400 254.050,228.580 253.600,228.800 253.600 C 229.020 253.600,229.200 253.240,229.200 252.800 C 229.200 252.360,229.380 252.000,229.600 252.000 C 229.820 252.000,230.000 251.640,230.000 251.200 C 230.000 250.760,230.180 250.400,230.400 250.400 C 230.620 250.400,230.800 250.040,230.800 249.600 C 230.800 249.160,230.980 248.800,231.200 248.800 C 231.420 248.800,231.600 248.480,231.600 248.088 C 231.600 247.697,231.960 247.117,232.400 246.800 C 232.840 246.483,233.200 245.985,233.200 245.693 C 233.200 245.011,241.410 236.914,242.430 236.591 C 242.853 236.456,243.200 236.178,243.200 235.973 C 243.200 235.768,243.436 235.600,243.725 235.600 C 244.013 235.600,244.636 235.240,245.108 234.800 C 245.580 234.360,246.244 234.000,246.583 234.000 C 246.922 234.000,247.200 233.820,247.200 233.600 C 247.200 233.380,247.560 233.200,248.000 233.200 C 248.440 233.200,248.800 233.020,248.800 232.800 C 248.800 232.580,249.340 232.400,250.000 232.400 C 250.660 232.400,251.200 232.220,251.200 232.000 C 251.200 231.780,251.560 231.600,252.000 231.600 C 252.440 231.600,252.800 231.420,252.800 231.200 C 252.800 230.980,253.419 230.800,254.176 230.800 C 254.933 230.800,255.664 230.620,255.800 230.400 C 255.936 230.180,257.081 230.000,258.344 230.000 C 259.607 230.000,260.836 229.804,261.075 229.565 C 261.495 229.145,262.311 229.170,269.700 229.828 C 271.185 229.960,272.400 230.233,272.400 230.434 C 272.400 230.635,273.120 230.800,274.000 230.800 C 274.880 230.800,275.600 230.980,275.600 231.200 C 275.600 231.420,275.942 231.600,276.359 231.600 C 276.777 231.600,278.084 232.108,279.264 232.728 C 284.042 235.242,283.738 233.501,278.419 227.890 C 273.588 222.795,268.011 219.723,259.000 217.194 C 257.153 216.675,250.563 216.461,247.000 216.803 M128.758 289.332 C 126.207 290.477,124.550 293.233,125.015 295.557 C 125.643 298.699,125.249 309.023,124.425 311.000 C 124.241 311.440,123.858 312.610,123.573 313.600 C 121.625 320.366,115.901 328.311,109.130 333.648 C 98.868 341.738,81.523 343.351,68.700 337.407 C 65.976 336.145,64.732 336.142,65.874 337.400 C 66.273 337.840,66.855 338.695,67.168 339.300 C 67.480 339.905,67.881 340.400,68.060 340.400 C 68.239 340.400,69.555 341.570,70.985 343.000 C 72.415 344.430,73.814 345.602,74.093 345.604 C 74.372 345.606,75.025 346.146,75.545 346.804 C 76.065 347.462,76.740 348.000,77.045 348.000 C 77.350 348.000,77.600 348.180,77.600 348.400 C 77.600 348.620,77.960 348.800,78.400 348.800 C 78.840 348.800,79.200 348.980,79.200 349.200 C 79.200 349.420,79.560 349.600,80.000 349.600 C 80.440 349.600,80.800 349.780,80.800 350.000 C 80.800 350.220,81.160 350.400,81.600 350.400 C 82.040 350.400,82.400 350.580,82.400 350.800 C 82.400 351.020,82.760 351.200,83.200 351.200 C 83.640 351.200,84.000 351.380,84.000 351.600 C 84.000 351.820,84.540 352.000,85.200 352.000 C 85.860 352.000,86.400 352.180,86.400 352.400 C 86.400 352.620,87.120 352.800,88.000 352.800 C 88.880 352.800,89.600 352.964,89.600 353.164 C 89.600 353.869,101.472 354.688,102.130 354.030 C 102.367 353.793,103.604 353.600,104.880 353.600 C 106.160 353.600,107.200 353.421,107.200 353.200 C 107.200 352.980,107.920 352.800,108.800 352.800 C 109.680 352.800,110.400 352.620,110.400 352.400 C 110.400 352.180,110.940 352.000,111.600 352.000 C 112.260 352.000,112.800 351.820,112.800 351.600 C 112.800 351.380,113.160 351.200,113.600 351.200 C 114.040 351.200,114.400 351.020,114.400 350.800 C 114.400 350.580,114.760 350.400,115.200 350.400 C 115.640 350.400,116.000 350.220,116.000 350.000 C 116.000 349.780,116.360 349.600,116.800 349.600 C 117.240 349.600,117.600 349.420,117.600 349.200 C 117.600 348.980,117.960 348.800,118.400 348.800 C 118.840 348.800,119.200 348.620,119.200 348.400 C 119.200 348.180,119.520 348.000,119.912 348.000 C 120.303 348.000,120.883 347.640,121.200 347.200 C 121.517 346.760,122.017 346.400,122.312 346.400 C 122.606 346.400,122.736 346.220,122.600 346.000 C 122.464 345.780,122.723 345.600,123.176 345.600 C 123.629 345.600,124.000 345.425,124.000 345.211 C 124.000 344.996,124.855 344.000,125.900 342.996 C 129.376 339.656,129.999 339.002,130.000 338.696 C 130.000 338.529,130.540 337.828,131.200 337.137 C 131.860 336.446,132.400 335.638,132.400 335.341 C 132.400 335.043,132.580 334.800,132.800 334.800 C 133.020 334.800,133.200 334.440,133.200 334.000 C 133.200 333.560,133.380 333.200,133.600 333.200 C 133.820 333.200,134.000 332.840,134.000 332.400 C 134.000 331.960,134.180 331.600,134.400 331.600 C 134.620 331.600,134.800 331.240,134.800 330.800 C 134.800 330.360,134.980 330.000,135.200 330.000 C 135.420 330.000,135.600 329.640,135.600 329.200 C 135.600 328.760,135.780 328.400,136.000 328.400 C 136.220 328.400,136.400 327.871,136.400 327.224 C 136.400 326.577,136.580 325.936,136.800 325.800 C 137.020 325.664,137.200 324.944,137.200 324.200 C 137.200 323.456,137.380 322.736,137.600 322.600 C 137.820 322.464,138.000 321.013,138.000 319.376 C 138.000 317.739,138.143 316.400,138.318 316.400 C 138.799 316.400,138.882 313.698,138.411 313.406 C 137.819 313.041,137.897 306.689,138.507 305.514 C 139.768 303.084,141.085 302.000,142.774 302.000 C 145.228 302.000,144.928 301.510,138.700 295.365 C 132.070 288.823,131.145 288.262,128.758 289.332 M271.069 303.659 C 270.943 304.139,271.187 305.191,271.622 306.043 C 272.486 307.737,272.786 316.114,272.000 316.600 C 271.780 316.736,271.600 317.163,271.600 317.548 C 271.600 319.912,269.642 322.086,247.664 344.127 C 221.946 369.918,223.737 368.506,216.959 368.360 C 211.260 368.237,211.308 368.155,214.957 371.745 C 216.631 373.392,218.000 374.654,218.000 374.550 C 218.000 374.446,219.251 375.630,220.781 377.180 C 222.310 378.731,223.840 380.000,224.181 380.000 C 224.521 380.000,224.800 380.180,224.800 380.400 C 224.800 380.620,225.239 380.800,225.776 380.800 C 226.313 380.800,226.864 380.980,227.000 381.200 C 227.136 381.420,228.666 381.600,230.400 381.600 C 232.134 381.600,233.664 381.420,233.800 381.200 C 233.936 380.980,234.577 380.800,235.224 380.800 C 235.871 380.800,236.400 380.620,236.400 380.400 C 236.400 380.180,236.720 380.000,237.112 380.000 C 237.503 380.000,238.083 379.640,238.400 379.200 C 238.717 378.760,239.127 378.400,239.310 378.400 C 239.494 378.400,240.714 377.310,242.022 375.977 C 243.330 374.645,244.400 373.648,244.400 373.763 C 244.400 373.942,252.389 365.921,259.360 358.743 C 260.566 357.501,261.608 356.511,261.676 356.543 C 261.744 356.574,264.155 354.215,267.033 351.300 C 269.912 348.385,272.207 346.000,272.133 346.000 C 272.060 346.000,273.800 344.226,276.000 342.058 C 278.200 339.890,280.000 337.982,280.000 337.819 C 280.000 337.655,280.540 337.017,281.200 336.400 C 281.860 335.783,282.400 335.031,282.400 334.728 C 282.400 334.425,282.760 333.917,283.200 333.600 C 283.670 333.261,284.000 332.565,284.000 331.912 C 284.000 331.300,284.180 330.800,284.400 330.800 C 284.620 330.800,284.800 330.091,284.800 329.224 C 284.800 328.357,284.980 327.536,285.200 327.400 C 285.420 327.264,285.600 326.083,285.600 324.776 C 285.600 323.459,285.422 322.400,285.200 322.400 C 284.980 322.400,284.800 321.680,284.800 320.800 C 284.800 319.920,284.620 319.200,284.400 319.200 C 284.180 319.200,284.000 318.660,284.000 318.000 C 284.000 317.340,283.820 316.800,283.600 316.800 C 283.380 316.800,283.200 316.440,283.200 316.000 C 283.200 315.560,283.032 315.200,282.827 315.200 C 282.622 315.200,282.337 314.831,282.194 314.380 C 282.051 313.929,281.318 312.945,280.567 312.193 C 279.815 311.442,279.200 310.723,279.200 310.596 C 279.200 310.469,277.771 308.952,276.025 307.225 C 274.279 305.497,272.959 303.975,273.092 303.842 C 273.225 303.709,273.033 303.600,272.667 303.600 C 272.300 303.600,272.000 303.420,272.000 303.200 C 272.000 302.450,271.294 302.798,271.069 303.659 " stroke="none" fill="#9c9c9c" fill-rule="evenodd"></path><path id="path1" d="M161.200 22.000 C 161.200 22.220,160.570 22.400,159.800 22.400 C 159.030 22.400,158.400 22.580,158.400 22.800 C 158.400 23.020,158.121 23.200,157.781 23.200 C 157.440 23.200,156.270 24.091,155.181 25.181 C 154.091 26.270,153.200 27.078,153.200 26.977 C 153.200 26.875,151.338 28.638,149.061 30.896 C 146.785 33.153,144.996 35.135,145.085 35.300 C 145.174 35.465,145.012 35.602,144.724 35.604 C 144.436 35.606,143.750 36.182,143.200 36.885 C 141.914 38.528,138.528 41.914,136.885 43.200 C 136.182 43.750,135.606 44.436,135.604 44.724 C 135.602 45.012,135.465 45.174,135.300 45.085 C 135.135 44.996,133.153 46.785,130.896 49.061 C 128.638 51.338,126.887 53.200,127.005 53.200 C 127.122 53.200,125.581 54.775,123.579 56.700 C 115.215 64.742,113.600 66.392,113.600 66.895 C 113.600 67.185,113.240 67.683,112.800 68.000 C 112.360 68.317,112.000 68.897,112.000 69.288 C 112.000 69.680,111.859 70.000,111.687 70.000 C 111.515 70.000,111.334 70.495,111.284 71.100 C 111.234 71.705,111.015 72.260,110.797 72.333 C 110.578 72.407,110.400 73.172,110.400 74.033 C 110.400 74.895,110.220 75.600,110.000 75.600 C 109.772 75.600,109.600 76.792,109.600 78.376 C 109.600 79.903,109.780 81.264,110.000 81.400 C 110.220 81.536,110.400 82.256,110.400 83.000 C 110.400 83.744,110.580 84.464,110.800 84.600 C 111.020 84.736,111.200 85.166,111.200 85.556 C 111.200 88.711,117.529 95.349,120.944 95.776 C 122.178 95.930,123.291 96.223,123.417 96.428 C 123.544 96.633,124.256 96.800,125.000 96.800 C 125.744 96.800,126.464 96.980,126.600 97.200 C 126.744 97.432,129.057 97.607,132.124 97.617 C 135.026 97.627,138.165 97.807,139.100 98.017 C 140.035 98.228,141.475 98.554,142.300 98.742 C 147.328 99.889,153.740 103.696,158.203 108.184 C 162.553 112.558,163.243 113.490,162.962 114.611 C 162.774 115.358,162.930 115.819,163.553 116.360 C 164.019 116.763,164.400 117.388,164.400 117.747 C 164.400 118.106,164.580 118.400,164.800 118.400 C 165.020 118.400,165.200 118.760,165.200 119.200 C 165.200 119.640,165.380 120.000,165.600 120.000 C 165.820 120.000,166.000 120.371,166.000 120.824 C 166.000 121.277,166.180 121.536,166.400 121.400 C 166.620 121.264,166.800 121.513,166.800 121.953 C 166.800 122.393,166.980 122.864,167.200 123.000 C 167.420 123.136,167.600 123.687,167.600 124.224 C 167.600 124.761,167.780 125.200,168.000 125.200 C 168.220 125.200,168.400 125.920,168.400 126.800 C 168.400 127.680,168.580 128.400,168.800 128.400 C 169.037 128.400,169.200 129.856,169.200 131.967 C 169.200 134.429,169.355 135.606,169.700 135.767 C 170.100 135.953,170.100 136.047,169.700 136.233 C 169.366 136.389,169.200 137.446,169.200 139.410 C 169.200 141.028,169.020 142.464,168.800 142.600 C 168.580 142.736,168.400 143.467,168.400 144.224 C 168.400 144.981,168.220 145.600,168.000 145.600 C 167.780 145.600,167.600 146.140,167.600 146.800 C 167.600 147.460,167.420 148.000,167.200 148.000 C 166.980 148.000,166.800 148.540,166.800 149.200 C 166.800 149.860,166.620 150.400,166.400 150.400 C 166.180 150.400,166.000 150.760,166.000 151.200 C 166.000 151.640,165.820 152.000,165.600 152.000 C 165.380 152.000,165.200 152.360,165.200 152.800 C 165.200 153.240,165.020 153.600,164.800 153.600 C 164.580 153.600,164.400 153.920,164.400 154.312 C 164.400 154.703,164.040 155.283,163.600 155.600 C 163.160 155.917,162.800 156.428,162.800 156.734 C 162.800 157.041,162.136 157.901,161.324 158.644 C 160.512 159.388,159.807 160.274,159.757 160.613 C 159.653 161.319,156.599 164.400,156.003 164.400 C 155.785 164.400,155.110 164.898,154.503 165.508 C 153.897 166.117,152.905 166.867,152.300 167.175 C 151.695 167.483,151.200 167.885,151.200 168.068 C 151.200 168.250,150.840 168.400,150.400 168.400 C 149.960 168.400,149.600 168.580,149.600 168.800 C 149.600 169.020,149.240 169.200,148.800 169.200 C 148.360 169.200,148.000 169.380,148.000 169.600 C 148.000 169.820,147.640 170.000,147.200 170.000 C 146.760 170.000,146.400 170.180,146.400 170.400 C 146.400 170.620,145.860 170.800,145.200 170.800 C 144.540 170.800,143.999 170.935,143.997 171.100 C 143.992 171.584,141.936 172.400,140.720 172.400 C 140.104 172.400,139.600 172.580,139.600 172.800 C 139.600 173.022,138.533 173.200,137.200 173.200 C 135.867 173.200,134.800 173.378,134.800 173.600 C 134.800 173.833,133.467 174.000,131.600 174.000 C 129.733 174.000,128.400 173.833,128.400 173.600 C 128.400 173.380,127.421 173.200,126.224 173.200 C 125.027 173.200,123.936 173.020,123.800 172.800 C 123.664 172.580,122.933 172.400,122.176 172.400 C 121.419 172.400,120.800 172.220,120.800 172.000 C 120.800 171.780,120.260 171.600,119.600 171.600 C 118.940 171.600,118.400 171.420,118.400 171.200 C 118.400 170.980,118.040 170.800,117.600 170.800 C 117.160 170.800,116.800 170.620,116.800 170.400 C 116.800 170.180,116.440 170.000,116.000 170.000 C 115.560 170.000,115.200 169.820,115.200 169.600 C 115.200 169.380,114.880 169.200,114.488 169.200 C 114.097 169.200,113.517 168.840,113.200 168.400 C 112.883 167.960,112.206 167.600,111.696 167.600 C 109.455 167.600,103.442 162.447,100.726 158.200 C 98.479 154.685,96.800 151.763,96.800 151.367 C 96.800 151.138,96.440 150.205,96.000 149.294 C 95.560 148.384,95.200 147.191,95.200 146.643 C 95.200 146.095,95.020 145.536,94.800 145.400 C 94.580 145.264,94.400 144.569,94.400 143.856 C 94.400 143.143,94.230 142.389,94.022 142.180 C 93.813 141.971,93.565 139.280,93.471 136.200 C 93.376 133.120,93.104 129.700,92.867 128.600 C 92.630 127.500,92.202 125.487,91.918 124.127 C 91.359 121.457,87.815 116.845,86.300 116.814 C 85.915 116.806,85.600 116.620,85.600 116.400 C 85.600 116.180,85.366 116.000,85.080 116.000 C 84.344 116.000,82.407 115.059,82.403 114.700 C 82.401 114.535,81.860 114.400,81.200 114.400 C 80.540 114.400,80.000 114.220,80.000 114.000 C 80.000 113.755,78.067 113.600,75.000 113.600 C 71.933 113.600,70.000 113.755,70.000 114.000 C 70.000 114.220,69.460 114.400,68.800 114.400 C 68.140 114.400,67.599 114.535,67.597 114.700 C 67.593 115.037,65.675 116.000,65.009 116.000 C 64.771 116.000,64.317 116.360,64.000 116.800 C 63.683 117.240,63.171 117.600,62.862 117.600 C 62.553 117.600,61.467 118.530,60.450 119.667 C 58.153 122.233,53.200 127.226,53.200 126.976 C 53.200 126.874,51.338 128.638,49.061 130.896 C 46.785 133.153,44.996 135.135,45.085 135.300 C 45.174 135.465,45.012 135.602,44.724 135.604 C 44.436 135.606,43.750 136.182,43.200 136.885 C 41.914 138.528,38.528 141.914,36.885 143.200 C 36.182 143.750,35.606 144.436,35.604 144.724 C 35.602 145.012,35.465 145.174,35.300 145.085 C 35.135 144.996,33.153 146.785,30.896 149.061 C 28.638 151.338,26.882 153.200,26.993 153.200 C 27.104 153.200,25.756 154.620,23.997 156.355 C 22.239 158.090,20.800 159.670,20.800 159.866 C 20.800 160.063,20.440 160.483,20.000 160.800 C 19.560 161.117,19.200 161.697,19.200 162.088 C 19.200 162.480,19.020 162.800,18.800 162.800 C 18.580 162.800,18.400 163.520,18.400 164.400 C 18.400 165.280,18.220 166.000,18.000 166.000 C 17.763 166.000,17.600 167.467,17.600 169.600 C 17.600 171.733,17.763 173.200,18.000 173.200 C 18.220 173.200,18.400 173.650,18.400 174.200 C 18.400 174.750,18.580 175.200,18.800 175.200 C 19.020 175.200,19.200 175.520,19.200 175.912 C 19.200 176.303,19.560 176.883,20.000 177.200 C 20.440 177.517,20.800 178.025,20.800 178.329 C 20.800 178.633,37.894 195.977,58.787 216.873 C 79.680 237.768,97.050 255.418,97.387 256.094 C 98.093 257.509,98.175 258.400,97.600 258.400 C 97.380 258.400,97.200 258.663,97.200 258.984 C 97.200 259.849,95.583 261.200,94.548 261.200 C 94.053 261.200,93.536 261.380,93.400 261.600 C 93.079 262.119,90.921 262.119,90.600 261.600 C 90.454 261.363,88.004 261.200,84.600 261.200 C 81.196 261.200,78.746 261.363,78.600 261.600 C 78.464 261.820,77.553 262.000,76.576 262.000 C 75.599 262.000,74.800 262.180,74.800 262.400 C 74.800 262.620,74.260 262.800,73.600 262.800 C 72.940 262.800,72.400 262.980,72.400 263.200 C 72.400 263.420,71.860 263.600,71.200 263.600 C 70.540 263.600,70.000 263.780,70.000 264.000 C 70.000 264.220,69.640 264.400,69.200 264.400 C 68.760 264.400,68.400 264.580,68.400 264.800 C 68.400 265.020,68.040 265.200,67.600 265.200 C 67.160 265.200,66.799 265.335,66.797 265.500 C 66.793 265.859,64.856 266.800,64.120 266.800 C 63.834 266.800,63.600 266.980,63.600 267.200 C 63.600 267.420,63.285 267.604,62.900 267.609 C 62.515 267.614,61.581 268.334,60.824 269.209 C 60.067 270.084,59.297 270.800,59.113 270.800 C 58.643 270.800,55.200 274.294,55.200 274.771 C 55.200 275.315,53.300 277.166,53.024 276.891 C 52.901 276.768,52.800 277.017,52.800 277.445 C 52.800 277.873,52.440 278.483,52.000 278.800 C 51.560 279.117,51.200 279.571,51.200 279.809 C 51.200 280.475,50.237 282.393,49.900 282.397 C 49.735 282.399,49.600 282.760,49.600 283.200 C 49.600 283.640,49.420 284.000,49.200 284.000 C 48.980 284.000,48.800 284.360,48.800 284.800 C 48.800 285.240,48.620 285.600,48.400 285.600 C 48.180 285.600,48.000 286.140,48.000 286.800 C 48.000 287.460,47.820 288.000,47.600 288.000 C 47.380 288.000,47.200 288.540,47.200 289.200 C 47.200 289.860,47.020 290.400,46.800 290.400 C 46.580 290.400,46.400 291.199,46.400 292.176 C 46.400 293.153,46.220 294.064,46.000 294.200 C 45.757 294.350,45.600 297.271,45.600 301.624 C 45.600 306.141,45.748 308.800,46.000 308.800 C 46.220 308.800,46.400 309.700,46.400 310.800 C 46.400 311.900,46.580 312.800,46.800 312.800 C 47.020 312.800,47.200 313.340,47.200 314.000 C 47.200 314.660,47.380 315.200,47.600 315.200 C 47.820 315.200,48.000 315.740,48.000 316.400 C 48.000 317.060,48.180 317.600,48.400 317.600 C 48.620 317.600,48.800 317.960,48.800 318.400 C 48.800 318.840,48.980 319.200,49.200 319.200 C 49.420 319.200,49.600 319.560,49.600 320.000 C 49.600 320.440,49.780 320.800,50.000 320.800 C 50.220 320.800,50.400 321.120,50.400 321.512 C 50.400 321.903,50.760 322.483,51.200 322.800 C 51.640 323.117,52.000 323.567,52.000 323.800 C 52.000 324.033,52.360 324.483,52.800 324.800 C 53.240 325.117,53.600 325.605,53.600 325.885 C 53.600 326.403,60.907 334.000,61.406 334.000 C 61.556 334.000,62.183 334.540,62.800 335.200 C 63.611 336.069,64.291 336.401,65.260 336.404 C 65.997 336.406,67.590 336.874,68.800 337.443 C 81.375 343.358,98.906 341.708,109.130 333.648 C 115.901 328.311,121.625 320.366,123.573 313.600 C 123.858 312.610,124.241 311.440,124.425 311.000 C 125.249 309.023,125.643 298.699,125.015 295.557 C 124.298 291.977,128.519 287.969,131.700 289.210 C 133.398 289.872,144.450 300.781,144.307 301.653 C 144.202 302.293,208.531 366.893,210.219 367.843 C 210.663 368.093,213.310 368.319,216.283 368.360 C 223.894 368.467,221.716 370.150,247.664 344.127 C 269.642 322.086,271.600 319.912,271.600 317.548 C 271.600 317.163,271.780 316.736,272.000 316.600 C 272.799 316.106,272.485 307.735,271.602 306.004 C 270.971 304.768,270.889 304.217,271.210 303.374 C 271.546 302.490,271.477 302.187,270.808 301.607 C 270.363 301.221,270.000 300.612,270.000 300.253 C 270.000 299.894,269.718 299.600,269.374 299.600 C 269.030 299.600,267.871 298.700,266.800 297.600 C 265.729 296.500,264.570 295.600,264.226 295.600 C 263.882 295.600,263.600 295.420,263.600 295.200 C 263.600 294.980,263.060 294.800,262.400 294.800 C 261.740 294.800,261.200 294.620,261.200 294.400 C 261.200 294.180,260.660 294.000,260.000 294.000 C 259.340 294.000,258.800 293.820,258.800 293.600 C 258.800 293.369,257.541 293.200,255.824 293.200 C 254.187 293.200,252.752 293.046,252.636 292.859 C 252.520 292.671,250.152 292.419,247.373 292.299 C 244.529 292.176,242.129 291.889,241.881 291.641 C 241.638 291.398,241.026 291.200,240.520 291.200 C 240.014 291.200,239.600 291.020,239.600 290.800 C 239.600 290.580,239.060 290.400,238.400 290.400 C 237.740 290.400,237.200 290.220,237.200 290.000 C 237.200 289.780,236.840 289.600,236.400 289.600 C 235.960 289.600,235.600 289.420,235.600 289.200 C 235.600 288.980,235.280 288.800,234.888 288.800 C 234.497 288.800,233.917 288.440,233.600 288.000 C 233.283 287.560,232.769 287.200,232.459 287.200 C 232.148 287.200,231.572 286.829,231.179 286.375 C 230.785 285.922,230.224 285.583,229.932 285.623 C 228.676 285.793,228.131 285.433,224.955 282.332 C 220.250 277.740,215.529 270.338,214.923 266.603 C 214.796 265.821,214.536 265.084,214.346 264.967 C 214.156 264.849,214.000 263.989,214.000 263.056 C 214.000 262.123,213.811 261.171,213.579 260.939 C 213.018 260.378,213.316 249.191,213.956 246.800 C 214.221 245.810,214.623 244.113,214.850 243.030 C 215.313 240.813,217.768 235.818,219.581 233.400 C 220.241 232.520,221.217 231.170,221.750 230.400 C 222.856 228.802,226.042 225.711,227.760 224.570 C 228.397 224.147,229.387 223.489,229.960 223.109 C 232.004 221.752,238.632 218.538,240.400 218.046 C 241.390 217.771,242.804 217.359,243.542 217.132 C 245.359 216.571,257.042 216.541,258.800 217.092 C 269.250 220.368,273.512 222.714,278.419 227.890 C 280.788 230.389,283.945 234.908,282.848 234.230 C 282.602 234.077,282.400 234.143,282.400 234.376 C 282.400 234.609,282.580 234.800,282.800 234.800 C 283.020 234.800,283.200 235.120,283.200 235.512 C 283.200 235.903,283.560 236.483,284.000 236.800 C 284.440 237.117,284.800 237.697,284.800 238.088 C 284.800 238.480,284.935 238.801,285.100 238.803 C 285.506 238.807,286.400 240.786,286.400 241.680 C 286.400 242.076,286.580 242.400,286.800 242.400 C 287.020 242.400,287.200 242.760,287.200 243.200 C 287.200 243.640,287.380 244.000,287.600 244.000 C 287.820 244.000,288.000 244.720,288.000 245.600 C 288.000 246.480,288.180 247.200,288.400 247.200 C 288.620 247.200,288.800 248.179,288.800 249.376 C 288.800 250.573,288.980 251.664,289.200 251.800 C 289.437 251.946,289.600 254.404,289.600 257.824 C 289.600 261.408,289.752 263.600,290.000 263.600 C 290.220 263.600,290.400 264.140,290.400 264.800 C 290.400 265.460,290.580 266.000,290.800 266.000 C 291.020 266.000,291.200 266.360,291.200 266.800 C 291.200 267.240,291.380 267.600,291.600 267.600 C 291.820 267.600,292.000 267.926,292.000 268.325 C 292.000 268.724,292.558 269.579,293.240 270.225 C 293.922 270.871,294.645 271.824,294.846 272.342 C 295.146 273.115,295.401 273.236,296.268 273.019 C 296.849 272.873,297.431 272.911,297.562 273.103 C 297.931 273.646,302.073 275.600,302.855 275.600 C 303.239 275.600,303.664 275.780,303.800 276.000 C 303.936 276.221,305.730 276.400,307.800 276.400 C 309.870 276.400,311.664 276.221,311.800 276.000 C 311.936 275.780,312.401 275.600,312.834 275.600 C 316.008 275.600,318.160 273.703,341.040 250.730 C 356.743 234.963,363.224 228.197,363.581 227.200 C 363.856 226.430,364.257 225.426,364.472 224.968 C 364.692 224.498,364.764 222.582,364.636 220.568 C 364.512 218.606,364.404 216.323,364.396 215.495 C 364.386 214.358,364.092 213.712,363.191 212.852 C 362.536 212.226,361.998 211.463,361.996 211.157 C 361.994 210.851,361.414 210.150,360.707 209.600 C 360.000 209.050,358.876 207.992,358.210 207.248 C 356.638 205.491,344.509 193.362,342.752 191.790 C 342.008 191.124,340.950 190.000,340.400 189.293 C 339.850 188.586,339.145 188.006,338.833 188.004 C 338.522 188.002,338.372 187.894,338.501 187.765 C 338.630 187.636,336.005 184.849,332.668 181.572 C 325.248 174.286,325.714 174.752,318.428 167.332 C 315.151 163.995,312.364 161.370,312.235 161.499 C 312.106 161.628,311.998 161.478,311.996 161.167 C 311.994 160.855,311.414 160.150,310.707 159.600 C 310.000 159.050,308.876 157.994,308.210 157.253 C 304.025 152.595,298.331 147.200,297.599 147.200 C 296.627 147.200,286.445 137.220,285.446 135.288 C 284.310 133.091,285.142 130.125,287.156 129.191 C 287.730 128.925,288.513 128.548,288.895 128.353 C 289.822 127.882,291.094 127.905,291.400 128.400 C 291.548 128.639,294.196 128.800,298.000 128.800 C 301.804 128.800,304.452 128.639,304.600 128.400 C 304.736 128.180,305.456 128.000,306.200 128.000 C 306.944 128.000,307.664 127.820,307.800 127.600 C 307.936 127.380,308.476 127.200,309.000 127.200 C 309.524 127.200,310.064 127.020,310.200 126.800 C 310.336 126.580,310.760 126.400,311.141 126.400 C 312.664 126.400,319.879 122.376,322.977 119.800 C 336.774 108.324,341.192 88.231,333.488 72.000 C 332.809 70.570,332.291 68.885,332.336 68.255 C 332.389 67.527,332.125 66.856,331.610 66.408 C 331.164 66.022,330.800 65.493,330.800 65.233 C 330.800 64.623,323.666 57.600,323.046 57.600 C 322.788 57.600,322.317 57.240,322.000 56.800 C 321.683 56.360,321.143 56.000,320.800 56.000 C 320.457 56.000,319.917 55.640,319.600 55.200 C 319.283 54.760,318.829 54.400,318.591 54.400 C 317.925 54.400,316.007 53.437,316.003 53.100 C 316.001 52.935,315.640 52.800,315.200 52.800 C 314.760 52.800,314.400 52.620,314.400 52.400 C 314.400 52.180,313.860 52.000,313.200 52.000 C 312.540 52.000,312.000 51.820,312.000 51.600 C 312.000 51.380,311.640 51.200,311.200 51.200 C 310.760 51.200,310.400 51.020,310.400 50.800 C 310.400 50.580,309.781 50.400,309.024 50.400 C 308.267 50.400,307.536 50.220,307.400 50.000 C 307.264 49.780,305.813 49.600,304.176 49.600 C 302.459 49.600,301.200 49.431,301.200 49.200 C 301.200 48.962,299.675 48.800,297.424 48.800 C 295.337 48.800,293.537 48.979,293.400 49.200 C 293.264 49.420,291.993 49.600,290.576 49.600 C 289.125 49.600,288.000 49.775,288.000 50.000 C 288.000 50.220,287.381 50.400,286.624 50.400 C 285.867 50.400,285.136 50.580,285.000 50.800 C 284.864 51.020,284.223 51.200,283.576 51.200 C 282.929 51.200,282.400 51.380,282.400 51.600 C 282.400 51.820,282.040 52.000,281.600 52.000 C 281.160 52.000,280.800 52.180,280.800 52.400 C 280.800 52.620,280.440 52.800,280.000 52.800 C 279.560 52.800,279.200 52.980,279.200 53.200 C 279.200 53.420,278.840 53.600,278.400 53.600 C 277.960 53.600,277.600 53.736,277.600 53.902 C 277.600 54.069,277.015 54.462,276.300 54.775 C 275.585 55.089,274.523 55.853,273.940 56.473 C 273.356 57.093,272.676 57.600,272.429 57.600 C 271.592 57.600,265.200 63.688,265.200 64.486 C 265.200 64.781,264.840 65.283,264.400 65.600 C 263.960 65.917,263.600 66.457,263.600 66.800 C 263.600 67.143,263.240 67.683,262.800 68.000 C 262.360 68.317,262.000 68.897,262.000 69.288 C 262.000 69.680,261.809 70.000,261.576 70.000 C 261.343 70.000,261.255 70.165,261.380 70.368 C 261.505 70.570,261.336 71.007,261.004 71.339 C 260.672 71.671,260.400 72.226,260.400 72.571 C 260.400 72.917,260.220 73.200,260.000 73.200 C 259.780 73.200,259.600 73.729,259.600 74.376 C 259.600 75.023,259.404 75.674,259.165 75.822 C 258.926 75.969,258.819 76.430,258.928 76.845 C 259.036 77.260,258.962 77.600,258.763 77.600 C 258.563 77.600,258.400 78.500,258.400 79.600 C 258.400 80.700,258.220 81.600,258.000 81.600 C 257.747 81.600,257.600 84.537,257.600 89.611 L 257.600 97.621 255.811 99.411 C 254.128 101.093,252.000 101.869,252.000 100.800 C 252.000 100.580,251.734 100.400,251.409 100.400 C 250.959 100.400,245.767 95.645,241.908 91.699 C 241.748 91.534,238.105 87.890,233.813 83.600 C 224.361 74.151,225.849 75.639,216.400 66.187 C 212.110 61.895,208.446 58.227,208.257 58.035 C 207.623 57.391,192.432 42.205,192.017 41.800 C 191.791 41.580,188.307 38.070,184.275 34.000 C 176.826 26.481,175.037 24.800,174.485 24.800 C 174.316 24.800,173.917 24.440,173.600 24.000 C 173.283 23.560,172.703 23.200,172.312 23.200 C 171.920 23.200,171.600 23.020,171.600 22.800 C 171.600 22.580,171.060 22.400,170.400 22.400 C 169.740 22.400,169.200 22.220,169.200 22.000 C 169.200 21.760,167.600 21.600,165.200 21.600 C 162.800 21.600,161.200 21.760,161.200 22.000 " stroke="none" fill="#3cbcf3" fill-rule="evenodd"></path></g></svg>